<svg xmlns="http://www.w3.org/2000/svg" xmlns:xlink="http://www.w3.org/1999/xlink" contentStyleType="text/css" data-diagram-type="CLASS" height="1568px" preserveAspectRatio="none" style="width:1005px;height:1568px;background:#FFFFFF;" version="1.1" viewBox="0 0 1005 1568" width="1005px" zoomAndPan="magnify"><title>API Layer (Controllers)</title><defs/><g><g class="title" data-source-line="4"><text fill="#000000" font-family="sans-serif" font-size="14" font-weight="bold" lengthAdjust="spacing" textLength="180.1475" x="405.5813" y="22.9951">API Layer (Controllers)</text></g><!--cluster 03--><g class="cluster" data-entity="03" data-source-line="8" data-uid="ent0004" id="cluster_03"><path d="M730.96,43.2969 L751.4424,43.2969 A3.75,3.75 0 0 1 753.9424,45.7969 L760.9424,65.5938 L977.23,65.5938 A2.5,2.5 0 0 1 979.73,68.0938 L979.73,372.7969 A2.5,2.5 0 0 1 977.23,375.2969 L730.96,375.2969 A2.5,2.5 0 0 1 728.46,372.7969 L728.46,45.7969 A2.5,2.5 0 0 1 730.96,43.2969" fill="none" style="stroke:#000000;stroke-width:1.5;"/><line style="stroke:#000000;stroke-width:1.5;" x1="728.46" x2="760.9424" y1="65.5938" y2="65.5938"/><text fill="#000000" font-family="sans-serif" font-size="14" font-weight="bold" lengthAdjust="spacing" textLength="19.4824" x="732.46" y="58.292">03</text></g><!--cluster  BLL (Interfaces Partial)--><g class="cluster" data-entity=" BLL (Interfaces Partial)" data-source-line="7" data-uid="ent0002" id="cluster_ BLL (Interfaces Partial)"><path d="M754.96,86.2969 L944.1739,86.2969 A3.75,3.75 0 0 1 946.6739,88.7969 L953.6739,108.5938 L953.23,108.5938 A2.5,2.5 0 0 1 955.73,111.0938 L955.73,348.7969 A2.5,2.5 0 0 1 953.23,351.2969 L754.96,351.2969 A2.5,2.5 0 0 1 752.46,348.7969 L752.46,88.7969 A2.5,2.5 0 0 1 754.96,86.2969" fill="none" style="stroke:#000000;stroke-width:1.5;"/><line style="stroke:#000000;stroke-width:1.5;" x1="752.46" x2="953.6739" y1="108.5938" y2="108.5938"/><text fill="#000000" font-family="sans-serif" font-size="14" font-weight="bold" lengthAdjust="spacing" textLength="183.3398" x="761.334" y="101.292">BLL (Interfaces Partial)</text></g><!--cluster 05--><g class="cluster" data-entity="05" data-source-line="14" data-uid="ent0009" id="cluster_05"><path d="M711.38,399.2969 L731.8624,399.2969 A3.75,3.75 0 0 1 734.3624,401.7969 L741.3624,421.5938 L995.81,421.5938 A2.5,2.5 0 0 1 998.31,424.0938 L998.31,1558.7969 A2.5,2.5 0 0 1 995.81,1561.2969 L711.38,1561.2969 A2.5,2.5 0 0 1 708.88,1558.7969 L708.88,401.7969 A2.5,2.5 0 0 1 711.38,399.2969" fill="none" style="stroke:#000000;stroke-width:1.5;"/><line style="stroke:#000000;stroke-width:1.5;" x1="708.88" x2="741.3624" y1="421.5938" y2="421.5938"/><text fill="#000000" font-family="sans-serif" font-size="14" font-weight="bold" lengthAdjust="spacing" textLength="19.4824" x="712.88" y="414.292">05</text></g><!--cluster  DTOs--><g class="cluster" data-entity=" DTOs" data-source-line="13" data-uid="ent0007" id="cluster_ DTOs"><path d="M735.38,442.2969 L782.6593,442.2969 A3.75,3.75 0 0 1 785.1593,444.7969 L792.1593,464.5938 L971.81,464.5938 A2.5,2.5 0 0 1 974.31,467.0938 L974.31,1534.7969 A2.5,2.5 0 0 1 971.81,1537.2969 L735.38,1537.2969 A2.5,2.5 0 0 1 732.88,1534.7969 L732.88,444.7969 A2.5,2.5 0 0 1 735.38,442.2969" fill="none" style="stroke:#000000;stroke-width:1.5;"/><line style="stroke:#000000;stroke-width:1.5;" x1="732.88" x2="792.1593" y1="464.5938" y2="464.5938"/><text fill="#000000" font-family="sans-serif" font-size="14" font-weight="bold" lengthAdjust="spacing" textLength="41.4053" x="741.754" y="457.292">DTOs</text></g><!--cluster 04--><g class="cluster" data-entity="04" data-source-line="33" data-uid="ent0024" id="cluster_04"><path d="M8.5,668.2969 L28.9824,668.2969 A3.75,3.75 0 0 1 31.4824,670.7969 L38.4824,690.5938 L643.38,690.5938 A2.5,2.5 0 0 1 645.88,693.0938 L645.88,1291.7969 A2.5,2.5 0 0 1 643.38,1294.2969 L8.5,1294.2969 A2.5,2.5 0 0 1 6,1291.7969 L6,670.7969 A2.5,2.5 0 0 1 8.5,668.2969" fill="none" style="stroke:#000000;stroke-width:1.5;"/><line style="stroke:#000000;stroke-width:1.5;" x1="6" x2="38.4824" y1="690.5938" y2="690.5938"/><text fill="#000000" font-family="sans-serif" font-size="14" font-weight="bold" lengthAdjust="spacing" textLength="19.4824" x="10" y="683.292">04</text></g><!--cluster  API Layer--><g class="cluster" data-entity=" API Layer" data-source-line="32" data-uid="ent0022" id="cluster_ API Layer"><path d="M32.5,711.2969 L113.4463,711.2969 A3.75,3.75 0 0 1 115.9463,713.7969 L122.9463,733.5938 L619.38,733.5938 A2.5,2.5 0 0 1 621.88,736.0938 L621.88,1267.7969 A2.5,2.5 0 0 1 619.38,1270.2969 L32.5,1270.2969 A2.5,2.5 0 0 1 30,1267.7969 L30,713.7969 A2.5,2.5 0 0 1 32.5,711.2969" fill="none" style="stroke:#000000;stroke-width:1.5;"/><line style="stroke:#000000;stroke-width:1.5;" x1="30" x2="122.9463" y1="733.5938" y2="733.5938"/><text fill="#000000" font-family="sans-serif" font-size="14" font-weight="bold" lengthAdjust="spacing" textLength="75.0723" x="38.874" y="726.292">API Layer</text></g><!--class ICandyService--><g class="entity" data-entity="ICandyService" data-source-line="8" data-uid="ent0003" id="entity_ICandyService"><rect fill="#F1F1F1" height="48" rx="2.5" ry="2.5" style="stroke:#181818;stroke-width:0.5;" width="132.2695" x="787.46" y="121.2969"/><ellipse cx="802.46" cy="137.2969" fill="#B4A7E5" rx="11" ry="11" style="stroke:#181818;stroke-width:1;"/><path d="M798.3819,133.0625 L798.3819,130.9063 L805.7725,130.9063 L805.7725,133.0625 L803.3038,133.0625 L803.3038,141.1406 L805.7725,141.1406 L805.7725,143.2969 L798.3819,143.2969 L798.3819,141.1406 L800.8506,141.1406 L800.8506,133.0625 L798.3819,133.0625 Z " fill="#000000"/><text fill="#000000" font-family="sans-serif" font-size="14" font-style="italic" lengthAdjust="spacing" textLength="100.2695" x="816.46" y="142.1436">ICandyService</text><line style="stroke:#181818;stroke-width:0.5;" x1="788.46" x2="918.7295" y1="153.2969" y2="153.2969"/><line style="stroke:#181818;stroke-width:0.5;" x1="788.46" x2="918.7295" y1="161.2969" y2="161.2969"/></g><!--class IUserService--><g class="entity" data-entity="IUserService" data-source-line="9" data-uid="ent0005" id="entity_IUserService"><rect fill="#F1F1F1" height="48" rx="2.5" ry="2.5" style="stroke:#181818;stroke-width:0.5;" width="119.7803" x="793.71" y="204.2969"/><ellipse cx="808.71" cy="220.2969" fill="#B4A7E5" rx="11" ry="11" style="stroke:#181818;stroke-width:1;"/><path d="M804.6319,216.0625 L804.6319,213.9063 L812.0225,213.9063 L812.0225,216.0625 L809.5538,216.0625 L809.5538,224.1406 L812.0225,224.1406 L812.0225,226.2969 L804.6319,226.2969 L804.6319,224.1406 L807.1006,224.1406 L807.1006,216.0625 L804.6319,216.0625 Z " fill="#000000"/><text fill="#000000" font-family="sans-serif" font-size="14" font-style="italic" lengthAdjust="spacing" textLength="87.7803" x="822.71" y="225.1436">IUserService</text><line style="stroke:#181818;stroke-width:0.5;" x1="794.71" x2="912.4903" y1="236.2969" y2="236.2969"/><line style="stroke:#181818;stroke-width:0.5;" x1="794.71" x2="912.4903" y1="244.2969" y2="244.2969"/></g><!--class IOrderService--><g class="entity" data-entity="IOrderService" data-source-line="10" data-uid="ent0006" id="entity_IOrderService"><rect fill="#F1F1F1" height="48" rx="2.5" ry="2.5" style="stroke:#181818;stroke-width:0.5;" width="127.9014" x="789.65" y="287.2969"/><ellipse cx="804.65" cy="303.2969" fill="#B4A7E5" rx="11" ry="11" style="stroke:#181818;stroke-width:1;"/><path d="M800.5719,299.0625 L800.5719,296.9063 L807.9625,296.9063 L807.9625,299.0625 L805.4938,299.0625 L805.4938,307.1406 L807.9625,307.1406 L807.9625,309.2969 L800.5719,309.2969 L800.5719,307.1406 L803.0406,307.1406 L803.0406,299.0625 L800.5719,299.0625 Z " fill="#000000"/><text fill="#000000" font-family="sans-serif" font-size="14" font-style="italic" lengthAdjust="spacing" textLength="95.9014" x="818.65" y="308.1436">IOrderService</text><line style="stroke:#181818;stroke-width:0.5;" x1="790.65" x2="916.5514" y1="319.2969" y2="319.2969"/><line style="stroke:#181818;stroke-width:0.5;" x1="790.65" x2="916.5514" y1="327.2969" y2="327.2969"/></g><!--class AddCandyRequestDto--><g class="entity" data-entity="AddCandyRequestDto" data-source-line="14" data-uid="ent0008" id="entity_AddCandyRequestDto"><rect fill="#F1F1F1" height="48" rx="2.5" ry="2.5" style="stroke:#181818;stroke-width:0.5;" width="186.082" x="760.56" y="726.2969"/><ellipse cx="775.56" cy="742.2969" fill="#ADD1B2" rx="11" ry="11" style="stroke:#181818;stroke-width:1;"/><path d="M778.5288,747.9375 Q777.9506,748.2344 777.31,748.375 Q776.6694,748.5313 775.9663,748.5313 Q773.4663,748.5313 772.1381,746.8906 Q770.8256,745.2344 770.8256,742.1094 Q770.8256,738.9844 772.1381,737.3281 Q773.4663,735.6719 775.9663,735.6719 Q776.6694,735.6719 777.31,735.8281 Q777.9663,735.9844 778.5288,736.2813 L778.5288,739 Q777.9038,738.4219 777.31,738.1563 Q776.7163,737.875 776.0913,737.875 Q774.7475,737.875 774.06,738.9531 Q773.3725,740.0156 773.3725,742.1094 Q773.3725,744.2031 774.06,745.2813 Q774.7475,746.3438 776.0913,746.3438 Q776.7163,746.3438 777.31,746.0781 Q777.9038,745.7969 778.5288,745.2188 L778.5288,747.9375 Z " fill="#000000"/><text fill="#000000" font-family="sans-serif" font-size="14" lengthAdjust="spacing" textLength="154.082" x="789.56" y="747.1436">AddCandyRequestDto</text><line style="stroke:#181818;stroke-width:0.5;" x1="761.56" x2="945.642" y1="758.2969" y2="758.2969"/><line style="stroke:#181818;stroke-width:0.5;" x1="761.56" x2="945.642" y1="766.2969" y2="766.2969"/></g><!--class UpdateCandyRequestDto--><g class="entity" data-entity="UpdateCandyRequestDto" data-source-line="15" data-uid="ent0010" id="entity_UpdateCandyRequestDto"><rect fill="#F1F1F1" height="48" rx="2.5" ry="2.5" style="stroke:#181818;stroke-width:0.5;" width="209.4336" x="748.88" y="809.2969"/><ellipse cx="763.88" cy="825.2969" fill="#ADD1B2" rx="11" ry="11" style="stroke:#181818;stroke-width:1;"/><path d="M766.8488,830.9375 Q766.2706,831.2344 765.63,831.375 Q764.9894,831.5313 764.2863,831.5313 Q761.7863,831.5313 760.4581,829.8906 Q759.1456,828.2344 759.1456,825.1094 Q759.1456,821.9844 760.4581,820.3281 Q761.7863,818.6719 764.2863,818.6719 Q764.9894,818.6719 765.63,818.8281 Q766.2863,818.9844 766.8488,819.2813 L766.8488,822 Q766.2238,821.4219 765.63,821.1563 Q765.0363,820.875 764.4113,820.875 Q763.0675,820.875 762.38,821.9531 Q761.6925,823.0156 761.6925,825.1094 Q761.6925,827.2031 762.38,828.2813 Q763.0675,829.3438 764.4113,829.3438 Q765.0363,829.3438 765.63,829.0781 Q766.2238,828.7969 766.8488,828.2188 L766.8488,830.9375 Z " fill="#000000"/><text fill="#000000" font-family="sans-serif" font-size="14" lengthAdjust="spacing" textLength="177.4336" x="777.88" y="830.1436">UpdateCandyRequestDto</text><line style="stroke:#181818;stroke-width:0.5;" x1="749.88" x2="957.3136" y1="841.2969" y2="841.2969"/><line style="stroke:#181818;stroke-width:0.5;" x1="749.88" x2="957.3136" y1="849.2969" y2="849.2969"/></g><!--class CandyResponseDto--><g class="entity" data-entity="CandyResponseDto" data-source-line="16" data-uid="ent0011" id="entity_CandyResponseDto"><rect fill="#F1F1F1" height="48" rx="2.5" ry="2.5" style="stroke:#181818;stroke-width:0.5;" width="169.1016" x="769.05" y="643.2969"/><ellipse cx="784.05" cy="659.2969" fill="#ADD1B2" rx="11" ry="11" style="stroke:#181818;stroke-width:1;"/><path d="M787.0188,664.9375 Q786.4406,665.2344 785.8,665.375 Q785.1594,665.5313 784.4563,665.5313 Q781.9563,665.5313 780.6281,663.8906 Q779.3156,662.2344 779.3156,659.1094 Q779.3156,655.9844 780.6281,654.3281 Q781.9563,652.6719 784.4563,652.6719 Q785.1594,652.6719 785.8,652.8281 Q786.4563,652.9844 787.0188,653.2813 L787.0188,656 Q786.3938,655.4219 785.8,655.1563 Q785.2063,654.875 784.5813,654.875 Q783.2375,654.875 782.55,655.9531 Q781.8625,657.0156 781.8625,659.1094 Q781.8625,661.2031 782.55,662.2813 Q783.2375,663.3438 784.5813,663.3438 Q785.2063,663.3438 785.8,663.0781 Q786.3938,662.7969 787.0188,662.2188 L787.0188,664.9375 Z " fill="#000000"/><text fill="#000000" font-family="sans-serif" font-size="14" lengthAdjust="spacing" textLength="137.1016" x="798.05" y="664.1436">CandyResponseDto</text><line style="stroke:#181818;stroke-width:0.5;" x1="770.05" x2="937.1516" y1="675.2969" y2="675.2969"/><line style="stroke:#181818;stroke-width:0.5;" x1="770.05" x2="937.1516" y1="683.2969" y2="683.2969"/></g><!--class RegisterUserDto--><g class="entity" data-entity="RegisterUserDto" data-source-line="17" data-uid="ent0012" id="entity_RegisterUserDto"><rect fill="#F1F1F1" height="48" rx="2.5" ry="2.5" style="stroke:#181818;stroke-width:0.5;" width="147.0146" x="780.09" y="1058.2969"/><ellipse cx="795.09" cy="1074.2969" fill="#ADD1B2" rx="11" ry="11" style="stroke:#181818;stroke-width:1;"/><path d="M798.0588,1079.9375 Q797.4806,1080.2344 796.84,1080.375 Q796.1994,1080.5313 795.4963,1080.5313 Q792.9963,1080.5313 791.6681,1078.8906 Q790.3556,1077.2344 790.3556,1074.1094 Q790.3556,1070.9844 791.6681,1069.3281 Q792.9963,1067.6719 795.4963,1067.6719 Q796.1994,1067.6719 796.84,1067.8281 Q797.4963,1067.9844 798.0588,1068.2813 L798.0588,1071 Q797.4338,1070.4219 796.84,1070.1563 Q796.2463,1069.875 795.6213,1069.875 Q794.2775,1069.875 793.59,1070.9531 Q792.9025,1072.0156 792.9025,1074.1094 Q792.9025,1076.2031 793.59,1077.2813 Q794.2775,1078.3438 795.6213,1078.3438 Q796.2463,1078.3438 796.84,1078.0781 Q797.4338,1077.7969 798.0588,1077.2188 L798.0588,1079.9375 Z " fill="#000000"/><text fill="#000000" font-family="sans-serif" font-size="14" lengthAdjust="spacing" textLength="115.0146" x="809.09" y="1079.1436">RegisterUserDto</text><line style="stroke:#181818;stroke-width:0.5;" x1="781.09" x2="926.1046" y1="1090.2969" y2="1090.2969"/><line style="stroke:#181818;stroke-width:0.5;" x1="781.09" x2="926.1046" y1="1098.2969" y2="1098.2969"/></g><!--class LoginRequestDto--><g class="entity" data-entity="LoginRequestDto" data-source-line="18" data-uid="ent0013" id="entity_LoginRequestDto"><rect fill="#F1F1F1" height="48" rx="2.5" ry="2.5" style="stroke:#181818;stroke-width:0.5;" width="152.3467" x="777.42" y="1141.2969"/><ellipse cx="792.42" cy="1157.2969" fill="#ADD1B2" rx="11" ry="11" style="stroke:#181818;stroke-width:1;"/><path d="M795.3888,1162.9375 Q794.8106,1163.2344 794.17,1163.375 Q793.5294,1163.5313 792.8263,1163.5313 Q790.3263,1163.5313 788.9981,1161.8906 Q787.6856,1160.2344 787.6856,1157.1094 Q787.6856,1153.9844 788.9981,1152.3281 Q790.3263,1150.6719 792.8263,1150.6719 Q793.5294,1150.6719 794.17,1150.8281 Q794.8263,1150.9844 795.3888,1151.2813 L795.3888,1154 Q794.7638,1153.4219 794.17,1153.1563 Q793.5763,1152.875 792.9513,1152.875 Q791.6075,1152.875 790.92,1153.9531 Q790.2325,1155.0156 790.2325,1157.1094 Q790.2325,1159.2031 790.92,1160.2813 Q791.6075,1161.3438 792.9513,1161.3438 Q793.5763,1161.3438 794.17,1161.0781 Q794.7638,1160.7969 795.3888,1160.2188 L795.3888,1162.9375 Z " fill="#000000"/><text fill="#000000" font-family="sans-serif" font-size="14" lengthAdjust="spacing" textLength="120.3467" x="806.42" y="1162.1436">LoginRequestDto</text><line style="stroke:#181818;stroke-width:0.5;" x1="778.42" x2="928.7667" y1="1173.2969" y2="1173.2969"/><line style="stroke:#181818;stroke-width:0.5;" x1="778.42" x2="928.7667" y1="1181.2969" y2="1181.2969"/></g><!--class AuthResponseDto--><g class="entity" data-entity="AuthResponseDto" data-source-line="19" data-uid="ent0014" id="entity_AuthResponseDto"><rect fill="#F1F1F1" height="48" rx="2.5" ry="2.5" style="stroke:#181818;stroke-width:0.5;" width="157.5146" x="774.84" y="1224.2969"/><ellipse cx="789.84" cy="1240.2969" fill="#ADD1B2" rx="11" ry="11" style="stroke:#181818;stroke-width:1;"/><path d="M792.8088,1245.9375 Q792.2306,1246.2344 791.59,1246.375 Q790.9494,1246.5313 790.2463,1246.5313 Q787.7463,1246.5313 786.4181,1244.8906 Q785.1056,1243.2344 785.1056,1240.1094 Q785.1056,1236.9844 786.4181,1235.3281 Q787.7463,1233.6719 790.2463,1233.6719 Q790.9494,1233.6719 791.59,1233.8281 Q792.2463,1233.9844 792.8088,1234.2813 L792.8088,1237 Q792.1838,1236.4219 791.59,1236.1563 Q790.9963,1235.875 790.3713,1235.875 Q789.0275,1235.875 788.34,1236.9531 Q787.6525,1238.0156 787.6525,1240.1094 Q787.6525,1242.2031 788.34,1243.2813 Q789.0275,1244.3438 790.3713,1244.3438 Q790.9963,1244.3438 791.59,1244.0781 Q792.1838,1243.7969 792.8088,1243.2188 L792.8088,1245.9375 Z " fill="#000000"/><text fill="#000000" font-family="sans-serif" font-size="14" lengthAdjust="spacing" textLength="125.5146" x="803.84" y="1245.1436">AuthResponseDto</text><line style="stroke:#181818;stroke-width:0.5;" x1="775.84" x2="931.3546" y1="1256.2969" y2="1256.2969"/><line style="stroke:#181818;stroke-width:0.5;" x1="775.84" x2="931.3546" y1="1264.2969" y2="1264.2969"/></g><!--class UserResponseDto--><g class="entity" data-entity="UserResponseDto" data-source-line="20" data-uid="ent0015" id="entity_UserResponseDto"><rect fill="#F1F1F1" height="48" rx="2.5" ry="2.5" style="stroke:#181818;stroke-width:0.5;" width="156.6123" x="775.29" y="1307.2969"/><ellipse cx="790.29" cy="1323.2969" fill="#ADD1B2" rx="11" ry="11" style="stroke:#181818;stroke-width:1;"/><path d="M793.2588,1328.9375 Q792.6806,1329.2344 792.04,1329.375 Q791.3994,1329.5313 790.6963,1329.5313 Q788.1963,1329.5313 786.8681,1327.8906 Q785.5556,1326.2344 785.5556,1323.1094 Q785.5556,1319.9844 786.8681,1318.3281 Q788.1963,1316.6719 790.6963,1316.6719 Q791.3994,1316.6719 792.04,1316.8281 Q792.6963,1316.9844 793.2588,1317.2813 L793.2588,1320 Q792.6338,1319.4219 792.04,1319.1563 Q791.4463,1318.875 790.8213,1318.875 Q789.4775,1318.875 788.79,1319.9531 Q788.1025,1321.0156 788.1025,1323.1094 Q788.1025,1325.2031 788.79,1326.2813 Q789.4775,1327.3438 790.8213,1327.3438 Q791.4463,1327.3438 792.04,1327.0781 Q792.6338,1326.7969 793.2588,1326.2188 L793.2588,1328.9375 Z " fill="#000000"/><text fill="#000000" font-family="sans-serif" font-size="14" lengthAdjust="spacing" textLength="124.6123" x="804.29" y="1328.1436">UserResponseDto</text><line style="stroke:#181818;stroke-width:0.5;" x1="776.29" x2="930.9023" y1="1339.2969" y2="1339.2969"/><line style="stroke:#181818;stroke-width:0.5;" x1="776.29" x2="930.9023" y1="1347.2969" y2="1347.2969"/></g><!--class UpdateUserDto--><g class="entity" data-entity="UpdateUserDto" data-source-line="21" data-uid="ent0016" id="entity_UpdateUserDto"><rect fill="#F1F1F1" height="48" rx="2.5" ry="2.5" style="stroke:#181818;stroke-width:0.5;" width="139.4473" x="783.87" y="892.2969"/><ellipse cx="798.87" cy="908.2969" fill="#ADD1B2" rx="11" ry="11" style="stroke:#181818;stroke-width:1;"/><path d="M801.8388,913.9375 Q801.2606,914.2344 800.62,914.375 Q799.9794,914.5313 799.2763,914.5313 Q796.7763,914.5313 795.4481,912.8906 Q794.1356,911.2344 794.1356,908.1094 Q794.1356,904.9844 795.4481,903.3281 Q796.7763,901.6719 799.2763,901.6719 Q799.9794,901.6719 800.62,901.8281 Q801.2763,901.9844 801.8388,902.2813 L801.8388,905 Q801.2138,904.4219 800.62,904.1563 Q800.0263,903.875 799.4013,903.875 Q798.0575,903.875 797.37,904.9531 Q796.6825,906.0156 796.6825,908.1094 Q796.6825,910.2031 797.37,911.2813 Q798.0575,912.3438 799.4013,912.3438 Q800.0263,912.3438 800.62,912.0781 Q801.2138,911.7969 801.8388,911.2188 L801.8388,913.9375 Z " fill="#000000"/><text fill="#000000" font-family="sans-serif" font-size="14" lengthAdjust="spacing" textLength="107.4473" x="812.87" y="913.1436">UpdateUserDto</text><line style="stroke:#181818;stroke-width:0.5;" x1="784.87" x2="922.3173" y1="924.2969" y2="924.2969"/><line style="stroke:#181818;stroke-width:0.5;" x1="784.87" x2="922.3173" y1="932.2969" y2="932.2969"/></g><!--class PlaceOrderRequestDto--><g class="entity" data-entity="PlaceOrderRequestDto" data-source-line="22" data-uid="ent0017" id="entity_PlaceOrderRequestDto"><rect fill="#F1F1F1" height="48" rx="2.5" ry="2.5" style="stroke:#181818;stroke-width:0.5;" width="191.585" x="757.8" y="1473.2969"/><ellipse cx="772.8" cy="1489.2969" fill="#ADD1B2" rx="11" ry="11" style="stroke:#181818;stroke-width:1;"/><path d="M775.7688,1494.9375 Q775.1906,1495.2344 774.55,1495.375 Q773.9094,1495.5313 773.2063,1495.5313 Q770.7063,1495.5313 769.3781,1493.8906 Q768.0656,1492.2344 768.0656,1489.1094 Q768.0656,1485.9844 769.3781,1484.3281 Q770.7063,1482.6719 773.2063,1482.6719 Q773.9094,1482.6719 774.55,1482.8281 Q775.2063,1482.9844 775.7688,1483.2813 L775.7688,1486 Q775.1438,1485.4219 774.55,1485.1563 Q773.9563,1484.875 773.3313,1484.875 Q771.9875,1484.875 771.3,1485.9531 Q770.6125,1487.0156 770.6125,1489.1094 Q770.6125,1491.2031 771.3,1492.2813 Q771.9875,1493.3438 773.3313,1493.3438 Q773.9563,1493.3438 774.55,1493.0781 Q775.1438,1492.7969 775.7688,1492.2188 L775.7688,1494.9375 Z " fill="#000000"/><text fill="#000000" font-family="sans-serif" font-size="14" lengthAdjust="spacing" textLength="159.585" x="786.8" y="1494.1436">PlaceOrderRequestDto</text><line style="stroke:#181818;stroke-width:0.5;" x1="758.8" x2="948.385" y1="1505.2969" y2="1505.2969"/><line style="stroke:#181818;stroke-width:0.5;" x1="758.8" x2="948.385" y1="1513.2969" y2="1513.2969"/></g><!--class OrderResponseDto--><g class="entity" data-entity="OrderResponseDto" data-source-line="23" data-uid="ent0018" id="entity_OrderResponseDto"><rect fill="#F1F1F1" height="48" rx="2.5" ry="2.5" style="stroke:#181818;stroke-width:0.5;" width="164.7334" x="771.23" y="1390.2969"/><ellipse cx="786.23" cy="1406.2969" fill="#ADD1B2" rx="11" ry="11" style="stroke:#181818;stroke-width:1;"/><path d="M789.1988,1411.9375 Q788.6206,1412.2344 787.98,1412.375 Q787.3394,1412.5313 786.6363,1412.5313 Q784.1363,1412.5313 782.8081,1410.8906 Q781.4956,1409.2344 781.4956,1406.1094 Q781.4956,1402.9844 782.8081,1401.3281 Q784.1363,1399.6719 786.6363,1399.6719 Q787.3394,1399.6719 787.98,1399.8281 Q788.6363,1399.9844 789.1988,1400.2813 L789.1988,1403 Q788.5738,1402.4219 787.98,1402.1563 Q787.3863,1401.875 786.7613,1401.875 Q785.4175,1401.875 784.73,1402.9531 Q784.0425,1404.0156 784.0425,1406.1094 Q784.0425,1408.2031 784.73,1409.2813 Q785.4175,1410.3438 786.7613,1410.3438 Q787.3863,1410.3438 787.98,1410.0781 Q788.5738,1409.7969 789.1988,1409.2188 L789.1988,1411.9375 Z " fill="#000000"/><text fill="#000000" font-family="sans-serif" font-size="14" lengthAdjust="spacing" textLength="132.7334" x="800.23" y="1411.1436">OrderResponseDto</text><line style="stroke:#181818;stroke-width:0.5;" x1="772.23" x2="934.9634" y1="1422.2969" y2="1422.2969"/><line style="stroke:#181818;stroke-width:0.5;" x1="772.23" x2="934.9634" y1="1430.2969" y2="1430.2969"/></g><!--class OrderHistoryItemDto--><g class="entity" data-entity="OrderHistoryItemDto" data-source-line="24" data-uid="ent0019" id="entity_OrderHistoryItemDto"><rect fill="#F1F1F1" height="48" rx="2.5" ry="2.5" style="stroke:#181818;stroke-width:0.5;" width="178.542" x="764.33" y="975.2969"/><ellipse cx="779.33" cy="991.2969" fill="#ADD1B2" rx="11" ry="11" style="stroke:#181818;stroke-width:1;"/><path d="M782.2988,996.9375 Q781.7206,997.2344 781.08,997.375 Q780.4394,997.5313 779.7363,997.5313 Q777.2363,997.5313 775.9081,995.8906 Q774.5956,994.2344 774.5956,991.1094 Q774.5956,987.9844 775.9081,986.3281 Q777.2363,984.6719 779.7363,984.6719 Q780.4394,984.6719 781.08,984.8281 Q781.7363,984.9844 782.2988,985.2813 L782.2988,988 Q781.6738,987.4219 781.08,987.1563 Q780.4863,986.875 779.8613,986.875 Q778.5175,986.875 777.83,987.9531 Q777.1425,989.0156 777.1425,991.1094 Q777.1425,993.2031 777.83,994.2813 Q778.5175,995.3438 779.8613,995.3438 Q780.4863,995.3438 781.08,995.0781 Q781.6738,994.7969 782.2988,994.2188 L782.2988,996.9375 Z " fill="#000000"/><text fill="#000000" font-family="sans-serif" font-size="14" lengthAdjust="spacing" textLength="146.542" x="793.33" y="996.1436">OrderHistoryItemDto</text><line style="stroke:#181818;stroke-width:0.5;" x1="765.33" x2="941.872" y1="1007.2969" y2="1007.2969"/><line style="stroke:#181818;stroke-width:0.5;" x1="765.33" x2="941.872" y1="1015.2969" y2="1015.2969"/></g><!--class OrderItemDto--><g class="entity" data-entity="OrderItemDto" data-source-line="25" data-uid="ent0020" id="entity_OrderItemDto"><rect fill="#F1F1F1" height="48" rx="2.5" ry="2.5" style="stroke:#181818;stroke-width:0.5;" width="128.7354" x="789.23" y="560.2969"/><ellipse cx="804.23" cy="576.2969" fill="#ADD1B2" rx="11" ry="11" style="stroke:#181818;stroke-width:1;"/><path d="M807.1988,581.9375 Q806.6206,582.2344 805.98,582.375 Q805.3394,582.5313 804.6363,582.5313 Q802.1363,582.5313 800.8081,580.8906 Q799.4956,579.2344 799.4956,576.1094 Q799.4956,572.9844 800.8081,571.3281 Q802.1363,569.6719 804.6363,569.6719 Q805.3394,569.6719 805.98,569.8281 Q806.6363,569.9844 807.1988,570.2813 L807.1988,573 Q806.5738,572.4219 805.98,572.1563 Q805.3863,571.875 804.7613,571.875 Q803.4175,571.875 802.73,572.9531 Q802.0425,574.0156 802.0425,576.1094 Q802.0425,578.2031 802.73,579.2813 Q803.4175,580.3438 804.7613,580.3438 Q805.3863,580.3438 805.98,580.0781 Q806.5738,579.7969 807.1988,579.2188 L807.1988,581.9375 Z " fill="#000000"/><text fill="#000000" font-family="sans-serif" font-size="14" lengthAdjust="spacing" textLength="96.7354" x="818.23" y="581.1436">OrderItemDto</text><line style="stroke:#181818;stroke-width:0.5;" x1="790.23" x2="916.9654" y1="592.2969" y2="592.2969"/><line style="stroke:#181818;stroke-width:0.5;" x1="790.23" x2="916.9654" y1="600.2969" y2="600.2969"/></g><!--class OrderItemResponseDto--><g class="entity" data-entity="OrderItemResponseDto" data-source-line="27" data-uid="ent0021" id="entity_OrderItemResponseDto"><rect fill="#F1F1F1" height="48" rx="2.5" ry="2.5" style="stroke:#181818;stroke-width:0.5;" width="196.6025" x="755.3" y="477.2969"/><ellipse cx="770.3" cy="493.2969" fill="#ADD1B2" rx="11" ry="11" style="stroke:#181818;stroke-width:1;"/><path d="M773.2688,498.9375 Q772.6906,499.2344 772.05,499.375 Q771.4094,499.5313 770.7063,499.5313 Q768.2063,499.5313 766.8781,497.8906 Q765.5656,496.2344 765.5656,493.1094 Q765.5656,489.9844 766.8781,488.3281 Q768.2063,486.6719 770.7063,486.6719 Q771.4094,486.6719 772.05,486.8281 Q772.7063,486.9844 773.2688,487.2813 L773.2688,490 Q772.6438,489.4219 772.05,489.1563 Q771.4563,488.875 770.8313,488.875 Q769.4875,488.875 768.8,489.9531 Q768.1125,491.0156 768.1125,493.1094 Q768.1125,495.2031 768.8,496.2813 Q769.4875,497.3438 770.8313,497.3438 Q771.4563,497.3438 772.05,497.0781 Q772.6438,496.7969 773.2688,496.2188 L773.2688,498.9375 Z " fill="#000000"/><text fill="#000000" font-family="sans-serif" font-size="14" lengthAdjust="spacing" textLength="164.6025" x="784.3" y="498.1436">OrderItemResponseDto</text><line style="stroke:#181818;stroke-width:0.5;" x1="756.3" x2="950.9025" y1="509.2969" y2="509.2969"/><line style="stroke:#181818;stroke-width:0.5;" x1="756.3" x2="950.9025" y1="517.2969" y2="517.2969"/></g><!--class CandyController--><g class="entity" data-entity="CandyController" data-source-line="33" data-uid="ent0023" id="entity_CandyController"><rect fill="#F1F1F1" height="162.0781" rx="2.5" ry="2.5" style="stroke:#181818;stroke-width:0.5;" width="559.8799" x="46" y="746.2569"/><ellipse cx="264.9038" cy="762.2569" fill="#ADD1B2" rx="11" ry="11" style="stroke:#181818;stroke-width:1;"/><path d="M267.8726,767.8975 Q267.2944,768.1944 266.6538,768.335 Q266.0132,768.4913 265.3101,768.4913 Q262.8101,768.4913 261.4819,766.8506 Q260.1694,765.1944 260.1694,762.0694 Q260.1694,758.9444 261.4819,757.2881 Q262.8101,755.6319 265.3101,755.6319 Q266.0132,755.6319 266.6538,755.7881 Q267.3101,755.9444 267.8726,756.2413 L267.8726,758.96 Q267.2476,758.3819 266.6538,758.1163 Q266.0601,757.835 265.4351,757.835 Q264.0913,757.835 263.4038,758.9131 Q262.7163,759.9756 262.7163,762.0694 Q262.7163,764.1631 263.4038,765.2413 Q264.0913,766.3038 265.4351,766.3038 Q266.0601,766.3038 266.6538,766.0381 Q267.2476,765.7569 267.8726,765.1788 L267.8726,767.8975 Z " fill="#000000"/><text fill="#000000" font-family="sans-serif" font-size="14" lengthAdjust="spacing" textLength="113.5723" x="285.4038" y="767.1036">CandyController</text><line style="stroke:#181818;stroke-width:0.5;" x1="47" x2="604.8799" y1="778.2569" y2="778.2569"/><line style="stroke:#181818;stroke-width:0.5;" x1="47" x2="604.8799" y1="786.2569" y2="786.2569"/><ellipse cx="57" cy="799.9053" fill="#84BE84" rx="3" ry="3" style="stroke:#038048;stroke-width:1;"/><text fill="#000000" font-family="sans-serif" font-size="14" lengthAdjust="spacing" textLength="323.2783" x="66" y="803.252">CandyController(ICandyService candyService)</text><ellipse cx="57" cy="816.2022" fill="#84BE84" rx="3" ry="3" style="stroke:#038048;stroke-width:1;"/><text fill="#000000" font-family="sans-serif" font-size="14" lengthAdjust="spacing" textLength="149.7891" x="66" y="819.5489">IActionResult GetAll()</text><ellipse cx="57" cy="832.4991" fill="#84BE84" rx="3" ry="3" style="stroke:#038048;stroke-width:1;"/><text fill="#000000" font-family="sans-serif" font-size="14" lengthAdjust="spacing" textLength="198.8164" x="66" y="835.8457">IActionResult GetById(int id)</text><ellipse cx="57" cy="848.7959" fill="#84BE84" rx="3" ry="3" style="stroke:#038048;stroke-width:1;"/><text fill="#000000" font-family="sans-serif" font-size="14" lengthAdjust="spacing" textLength="442.7979" x="66" y="852.1426">IActionResult Add([FromBody]AddCandyRequestDto candyDto)</text><ellipse cx="57" cy="865.0928" fill="#84BE84" rx="3" ry="3" style="stroke:#038048;stroke-width:1;"/><text fill="#000000" font-family="sans-serif" font-size="14" lengthAdjust="spacing" textLength="533.8799" x="66" y="868.4395">IActionResult Update(int id, [FromBody]UpdateCandyRequestDto candyDto)</text><ellipse cx="57" cy="881.3897" fill="#84BE84" rx="3" ry="3" style="stroke:#038048;stroke-width:1;"/><text fill="#000000" font-family="sans-serif" font-size="14" lengthAdjust="spacing" textLength="188.959" x="66" y="884.7364">IActionResult Delete(int id)</text><ellipse cx="57" cy="897.6866" fill="#84BE84" rx="3" ry="3" style="stroke:#038048;stroke-width:1;"/><text fill="#000000" font-family="sans-serif" font-size="14" lengthAdjust="spacing" textLength="311.8623" x="66" y="901.0332">IActionResult GetByCategory(int categoryId)</text></g><!--class UserController--><g class="entity" data-entity="UserController" data-source-line="49" data-uid="ent0029" id="entity_UserController"><rect fill="#F1F1F1" height="162.0781" rx="2.5" ry="2.5" style="stroke:#181818;stroke-width:0.5;" width="496.6064" x="77.64" y="943.2569"/><ellipse cx="271.1517" cy="959.2569" fill="#ADD1B2" rx="11" ry="11" style="stroke:#181818;stroke-width:1;"/><path d="M274.1205,964.8975 Q273.5423,965.1944 272.9017,965.335 Q272.2611,965.4913 271.558,965.4913 Q269.058,965.4913 267.7298,963.8506 Q266.4173,962.1944 266.4173,959.0694 Q266.4173,955.9444 267.7298,954.2881 Q269.058,952.6319 271.558,952.6319 Q272.2611,952.6319 272.9017,952.7881 Q273.558,952.9444 274.1205,953.2413 L274.1205,955.96 Q273.4955,955.3819 272.9017,955.1163 Q272.308,954.835 271.683,954.835 Q270.3392,954.835 269.6517,955.9131 Q268.9642,956.9756 268.9642,959.0694 Q268.9642,961.1631 269.6517,962.2413 Q270.3392,963.3038 271.683,963.3038 Q272.308,963.3038 272.9017,963.0381 Q273.4955,962.7569 274.1205,962.1788 L274.1205,964.8975 Z " fill="#000000"/><text fill="#000000" font-family="sans-serif" font-size="14" lengthAdjust="spacing" textLength="101.083" x="291.6517" y="964.1036">UserController</text><line style="stroke:#181818;stroke-width:0.5;" x1="78.64" x2="573.2464" y1="975.2569" y2="975.2569"/><line style="stroke:#181818;stroke-width:0.5;" x1="78.64" x2="573.2464" y1="983.2569" y2="983.2569"/><ellipse cx="88.64" cy="996.9053" fill="#84BE84" rx="3" ry="3" style="stroke:#038048;stroke-width:1;"/><text fill="#000000" font-family="sans-serif" font-size="14" lengthAdjust="spacing" textLength="286.5146" x="97.64" y="1000.252">UserController(IUserService userService)</text><ellipse cx="88.64" cy="1013.2022" fill="#84BE84" rx="3" ry="3" style="stroke:#038048;stroke-width:1;"/><text fill="#000000" font-family="sans-serif" font-size="14" lengthAdjust="spacing" textLength="446.626" x="97.64" y="1016.5489">IActionResult Register([FromBody]RegisterUserDto registerDto)</text><ellipse cx="88.64" cy="1029.4991" fill="#84BE84" rx="3" ry="3" style="stroke:#038048;stroke-width:1;"/><text fill="#000000" font-family="sans-serif" font-size="14" lengthAdjust="spacing" textLength="411.5098" x="97.64" y="1032.8457">IActionResult Login([FromBody]LoginRequestDto loginDto)</text><ellipse cx="88.64" cy="1045.7959" fill="#84BE84" rx="3" ry="3" style="stroke:#038048;stroke-width:1;"/><text fill="#000000" font-family="sans-serif" font-size="14" lengthAdjust="spacing" textLength="217.4785" x="97.64" y="1049.1426">IActionResult GetCurrentUser()</text><ellipse cx="88.64" cy="1062.0928" fill="#84BE84" rx="3" ry="3" style="stroke:#038048;stroke-width:1;"/><text fill="#000000" font-family="sans-serif" font-size="14" lengthAdjust="spacing" textLength="470.6064" x="97.64" y="1065.4395">IActionResult UpdateProfile([FromBody]UpdateUserDto updateDto)</text><ellipse cx="88.64" cy="1078.3897" fill="#84BE84" rx="3" ry="3" style="stroke:#038048;stroke-width:1;"/><text fill="#000000" font-family="sans-serif" font-size="14" lengthAdjust="spacing" textLength="222.2705" x="97.64" y="1081.7364">IActionResult GetOrderHistory()</text><ellipse cx="88.64" cy="1094.6866" fill="#84BE84" rx="3" ry="3" style="stroke:#038048;stroke-width:1;"/><text fill="#000000" font-family="sans-serif" font-size="14" lengthAdjust="spacing" textLength="394.2559" x="97.64" y="1098.0332">IActionResult UpdateCountry([FromBody]string country)</text></g><!--class OrderController--><g class="entity" data-entity="OrderController" data-source-line="68" data-uid="ent0037" id="entity_OrderController"><rect fill="#F1F1F1" height="113.1875" rx="2.5" ry="2.5" style="stroke:#181818;stroke-width:0.5;" width="519.459" x="66.21" y="1140.7069"/><ellipse cx="267.0874" cy="1156.7069" fill="#ADD1B2" rx="11" ry="11" style="stroke:#181818;stroke-width:1;"/><path d="M270.0562,1162.3475 Q269.4781,1162.6444 268.8374,1162.785 Q268.1968,1162.9413 267.4937,1162.9413 Q264.9937,1162.9413 263.6656,1161.3006 Q262.3531,1159.6444 262.3531,1156.5194 Q262.3531,1153.3944 263.6656,1151.7381 Q264.9937,1150.0819 267.4937,1150.0819 Q268.1968,1150.0819 268.8374,1150.2381 Q269.4937,1150.3944 270.0562,1150.6913 L270.0562,1153.41 Q269.4312,1152.8319 268.8374,1152.5663 Q268.2437,1152.285 267.6187,1152.285 Q266.2749,1152.285 265.5874,1153.3631 Q264.8999,1154.4256 264.8999,1156.5194 Q264.8999,1158.6131 265.5874,1159.6913 Q266.2749,1160.7538 267.6187,1160.7538 Q268.2437,1160.7538 268.8374,1160.4881 Q269.4312,1160.2069 270.0562,1159.6288 L270.0562,1162.3475 Z " fill="#000000"/><text fill="#000000" font-family="sans-serif" font-size="14" lengthAdjust="spacing" textLength="109.2041" x="287.5874" y="1161.5536">OrderController</text><line style="stroke:#181818;stroke-width:0.5;" x1="67.21" x2="584.669" y1="1172.7069" y2="1172.7069"/><line style="stroke:#181818;stroke-width:0.5;" x1="67.21" x2="584.669" y1="1180.7069" y2="1180.7069"/><ellipse cx="77.21" cy="1194.3553" fill="#84BE84" rx="3" ry="3" style="stroke:#038048;stroke-width:1;"/><text fill="#000000" font-family="sans-serif" font-size="14" lengthAdjust="spacing" textLength="309.7979" x="86.21" y="1197.702">OrderController(IOrderService orderService)</text><ellipse cx="77.21" cy="1210.6522" fill="#84BE84" rx="3" ry="3" style="stroke:#038048;stroke-width:1;"/><text fill="#000000" font-family="sans-serif" font-size="14" lengthAdjust="spacing" textLength="493.459" x="86.21" y="1213.9989">IActionResult PlaceOrder([FromBody]PlaceOrderRequestDto orderDto)</text><ellipse cx="77.21" cy="1226.9491" fill="#84BE84" rx="3" ry="3" style="stroke:#038048;stroke-width:1;"/><text fill="#000000" font-family="sans-serif" font-size="14" lengthAdjust="spacing" textLength="200.1221" x="86.21" y="1230.2957">IActionResult GetMyOrders()</text><ellipse cx="77.21" cy="1243.2459" fill="#84BE84" rx="3" ry="3" style="stroke:#038048;stroke-width:1;"/><text fill="#000000" font-family="sans-serif" font-size="14" lengthAdjust="spacing" textLength="334.8311" x="86.21" y="1246.5926">IActionResult UpdateStatus(int id, string status)</text></g><!--link CandyController to ICandyService--><g class="link" data-entity-1="CandyController" data-entity-2="ICandyService" data-source-line="43" data-uid="lnk25" id="link_CandyController_ICandyService"><path codeLine="43" d="M351.64,745.9869 C397.48,609.0969 508.93,333.2269 700.88,186.2969 C725.58,167.3869 752.4767,158.3235 781.2467,152.8235" fill="none" id="CandyController-to-ICandyService" style="stroke:#181818;stroke-width:1;stroke-dasharray:7.0,7.0;"/><polygon fill="#181818" points="787.14,151.6969,777.549,149.458,782.2289,152.6357,779.0512,157.3157,787.14,151.6969" style="stroke:#181818;stroke-width:1;"/><text fill="#000000" font-family="sans-serif" font-size="13" lengthAdjust="spacing" textLength="29.7832" x="662.88" y="195.3638">uses</text></g><!--link CandyController to AddCandyRequestDto--><g class="link" data-entity-1="CandyController" data-entity-2="AddCandyRequestDto" data-source-line="44" data-uid="lnk26" id="link_CandyController_AddCandyRequestDto"><path codeLine="44" d="M606.07,798.2369 C635.44,794.2869 664.81,789.9669 692.88,785.2969 C714.86,781.6369 732.5151,778.1929 754.5651,773.4329" fill="none" id="CandyController-to-AddCandyRequestDto" style="stroke:#181818;stroke-width:1;stroke-dasharray:7.0,7.0;"/><polygon fill="#181818" points="760.43,772.1669,750.7886,770.1561,755.5426,773.2219,752.4767,777.9759,760.43,772.1669" style="stroke:#181818;stroke-width:1;"/></g><!--link CandyController to UpdateCandyRequestDto--><g class="link" data-entity-1="CandyController" data-entity-2="UpdateCandyRequestDto" data-source-line="45" data-uid="lnk27" id="link_CandyController_UpdateCandyRequestDto"><path codeLine="45" d="M606.31,830.4869 C657.12,831.0669 701.1004,831.569 742.6204,832.039" fill="none" id="CandyController-to-UpdateCandyRequestDto" style="stroke:#181818;stroke-width:1;stroke-dasharray:7.0,7.0;"/><polygon fill="#181818" points="748.62,832.1069,739.6659,828.0053,743.6203,832.0503,739.5753,836.0047,748.62,832.1069" style="stroke:#181818;stroke-width:1;"/></g><!--link CandyController to CandyResponseDto--><g class="link" data-entity-1="CandyController" data-entity-2="CandyResponseDto" data-source-line="46" data-uid="lnk28" id="link_CandyController_CandyResponseDto"><path codeLine="46" d="M472.12,745.9469 C529.45,717.8769 597.03,689.6569 661.88,674.2969 C696.22,666.1669 728.9902,663.6298 762.5702,663.3898" fill="none" id="CandyController-to-CandyResponseDto" style="stroke:#181818;stroke-width:1;stroke-dasharray:7.0,7.0;"/><polygon fill="#181818" points="768.57,663.3469,759.5416,659.4113,763.5701,663.3826,759.5988,667.4111,768.57,663.3469" style="stroke:#181818;stroke-width:1;"/></g><!--link UserController to IUserService--><g class="link" data-entity-1="UserController" data-entity-2="IUserService" data-source-line="59" data-uid="lnk30" id="link_UserController_IUserService"><path codeLine="59" d="M574.52,987.2569 C605.22,972.7969 633.07,953.0869 653.88,926.2969 C660.53,917.7369 661.2,742.1169 661.88,731.2969 C668.33,628.4669 634.86,348.3969 700.88,269.2969 C723.26,242.4869 755.2258,232.8918 787.5558,229.3418" fill="none" id="UserController-to-IUserService" style="stroke:#181818;stroke-width:1;stroke-dasharray:7.0,7.0;"/><polygon fill="#181818" points="793.52,228.6869,784.1372,225.6931,788.5499,229.2326,785.0104,233.6453,793.52,228.6869" style="stroke:#181818;stroke-width:1;"/><text fill="#000000" font-family="sans-serif" font-size="13" lengthAdjust="spacing" textLength="29.7832" x="662.88" y="282.3638">uses</text></g><!--link UserController to RegisterUserDto--><g class="link" data-entity-1="UserController" data-entity-2="RegisterUserDto" data-source-line="60" data-uid="lnk31" id="link_UserController_RegisterUserDto"><path codeLine="60" d="M574.38,1051.5969 C649.34,1059.8669 720.0062,1067.6685 773.8162,1073.6085" fill="none" id="UserController-to-RegisterUserDto" style="stroke:#181818;stroke-width:1;stroke-dasharray:7.0,7.0;"/><polygon fill="#181818" points="779.78,1074.2669,771.2732,1069.3035,774.8102,1073.7183,770.3955,1077.2552,779.78,1074.2669" style="stroke:#181818;stroke-width:1;"/></g><!--link UserController to LoginRequestDto--><g class="link" data-entity-1="UserController" data-entity-2="LoginRequestDto" data-source-line="61" data-uid="lnk32" id="link_UserController_LoginRequestDto"><path codeLine="61" d="M574.38,1090.6669 C648.14,1110.4569 717.7248,1129.1228 771.3848,1143.5128" fill="none" id="UserController-to-LoginRequestDto" style="stroke:#181818;stroke-width:1;stroke-dasharray:7.0,7.0;"/><polygon fill="#181818" points="777.18,1145.0669,769.5232,1138.8722,772.3506,1143.7718,767.4511,1146.5992,777.18,1145.0669" style="stroke:#181818;stroke-width:1;"/></g><!--link UserController to AuthResponseDto--><g class="link" data-entity-1="UserController" data-entity-2="AuthResponseDto" data-source-line="62" data-uid="lnk33" id="link_UserController_AuthResponseDto"><path codeLine="62" d="M574.37,1076.4269 C602.89,1088.8569 630.2,1104.2469 653.88,1123.2969 C687.22,1150.1069 667.14,1180.9869 700.88,1207.2969 C721.97,1223.7369 743.2948,1232.2427 768.8048,1238.1527" fill="none" id="UserController-to-AuthResponseDto" style="stroke:#181818;stroke-width:1;stroke-dasharray:7.0,7.0;"/><polygon fill="#181818" points="774.65,1239.5069,766.785,1233.5788,769.779,1238.3784,764.9794,1241.3724,774.65,1239.5069" style="stroke:#181818;stroke-width:1;"/></g><!--link UserController to UserResponseDto--><g class="link" data-entity-1="UserController" data-entity-2="UserResponseDto" data-source-line="63" data-uid="lnk34" id="link_UserController_UserResponseDto"><path codeLine="63" d="M574.44,1063.7369 C604.86,1078.0769 632.64,1097.3769 653.88,1123.2969 C665.62,1137.6269 657.02,1188.4169 661.88,1206.2969 C672.68,1246.0169 669.4,1263.7769 700.88,1290.2969 C721.64,1307.7869 743.3349,1316.5662 769.2449,1322.3662" fill="none" id="UserController-to-UserResponseDto" style="stroke:#181818;stroke-width:1;stroke-dasharray:7.0,7.0;"/><polygon fill="#181818" points="775.1,1323.6769,767.1911,1317.8075,770.2208,1322.5846,765.4436,1325.6143,775.1,1323.6769" style="stroke:#181818;stroke-width:1;"/></g><!--link UserController to UpdateUserDto--><g class="link" data-entity-1="UserController" data-entity-2="UpdateUserDto" data-source-line="64" data-uid="lnk35" id="link_UserController_UpdateUserDto"><path codeLine="64" d="M574.38,973.4569 C651.07,957.7069 723.6328,942.7948 777.5928,931.7048" fill="none" id="UserController-to-UpdateUserDto" style="stroke:#181818;stroke-width:1;stroke-dasharray:7.0,7.0;"/><polygon fill="#181818" points="783.47,930.4969,773.849,928.3906,778.5724,931.5034,775.4595,936.2268,783.47,930.4969" style="stroke:#181818;stroke-width:1;"/></g><!--link UserController to OrderHistoryItemDto--><g class="link" data-entity-1="UserController" data-entity-2="OrderHistoryItemDto" data-source-line="65" data-uid="lnk36" id="link_UserController_OrderHistoryItemDto"><path codeLine="65" d="M574.38,1012.5269 C642.28,1009.2969 705.5668,1006.2926 758.0068,1003.7926" fill="none" id="UserController-to-OrderHistoryItemDto" style="stroke:#181818;stroke-width:1;stroke-dasharray:7.0,7.0;"/><polygon fill="#181818" points="764,1003.5069,754.8197,999.94,759.0057,1003.745,755.2007,1007.9309,764,1003.5069" style="stroke:#181818;stroke-width:1;"/></g><!--link OrderController to IOrderService--><g class="link" data-entity-1="OrderController" data-entity-2="IOrderService" data-source-line="75" data-uid="lnk38" id="link_OrderController_IOrderService"><path codeLine="75" d="M586.15,1171.8269 C611.73,1160.1369 635.12,1144.3869 653.88,1123.2969 C708.39,1062.0169 687.43,838.1269 692.88,756.2969 C693.97,739.9369 694.36,476.3369 700.88,461.2969 C724.53,406.7569 773.2676,365.1203 809.9876,339.0503" fill="none" id="OrderController-to-IOrderService" style="stroke:#181818;stroke-width:1;stroke-dasharray:7.0,7.0;"/><polygon fill="#181818" points="814.88,335.5769,805.2258,337.5254,810.803,338.4714,809.8571,344.0486,814.88,335.5769" style="stroke:#181818;stroke-width:1;"/><text fill="#000000" font-family="sans-serif" font-size="13" lengthAdjust="spacing" textLength="29.7832" x="662.88" y="752.3638">uses</text></g><!--link OrderController to PlaceOrderRequestDto--><g class="link" data-entity-1="OrderController" data-entity-2="PlaceOrderRequestDto" data-source-line="76" data-uid="lnk39" id="link_OrderController_PlaceOrderRequestDto"><path codeLine="76" d="M393.9,1254.3469 C465.56,1312.7269 584.67,1402.3169 700.88,1456.2969 C718.57,1464.5169 732.4595,1469.6587 751.5795,1475.2287" fill="none" id="OrderController-to-PlaceOrderRequestDto" style="stroke:#181818;stroke-width:1;stroke-dasharray:7.0,7.0;"/><polygon fill="#181818" points="757.34,1476.9069,749.818,1470.5493,752.5396,1475.5084,747.5804,1478.23,757.34,1476.9069" style="stroke:#181818;stroke-width:1;"/></g><!--link OrderController to OrderResponseDto--><g class="link" data-entity-1="OrderController" data-entity-2="OrderResponseDto" data-source-line="77" data-uid="lnk40" id="link_OrderController_OrderResponseDto"><path codeLine="77" d="M434.81,1254.2669 C508.37,1291.5669 608.77,1339.4769 700.88,1373.2969 C723.29,1381.5269 742.3157,1387.3591 765.2657,1393.5291" fill="none" id="OrderController-to-OrderResponseDto" style="stroke:#181818;stroke-width:1;stroke-dasharray:7.0,7.0;"/><polygon fill="#181818" points="771.06,1395.0869,763.4071,1388.8874,766.2315,1393.7887,761.3301,1396.6131,771.06,1395.0869" style="stroke:#181818;stroke-width:1;"/></g><!--SRC=[ZLLDRzim3BtxLn2znC66OC2womu3ye5j1Z8qQDPJiODcCOvHnSeaUPXHvB-FLfn4LgIuEKNcuoD5Ff4ZMAC1NYhCJIahs4W5PelqXHMAxHA16mD6WYgBhODB4bCQWJ1TPR1a3If8vx8oIWg1Ie-JP0HPbOkQ8rIOezPCDO02TrWP3HibTo0fZ0BHEciRDYS2_6UIFSjVM85mz-7Z16RB9QGP6TI64G-ic38b4-CxU4s0VkN91DcSLRnPe_fRqkaL3hxzIQEwONvGl6y_94ugdoQm-FcWJs5pmRI6AUSsw2F-gL6R1TNfH7m4FEqvCtWRqrdrNbOQhysFM9IQacoplxOkPL5MKUffRRPnvfRnXjMc7eww4bGnMwzewCuQOxVcxtGngPhCu2w2S4nWRQCsQmw_cs0E8NSl1v_6pxFjkjFs-yb5ultUsxPTDD_PZkGBt6F5DT1xwgiodGcPly3z-0n-vnEbVO_SERXUsTI-Gygy5WQ-ePaAaTu4p9gCfwHtA7aSHufEdx_Iyvn9tlmAwDlcGt_Y54VXT97UmuKj_1Y62HSqDyw40rUSKuI2D6NHUNV8Eg-ZlFp6JIPVl2vzXbgZZeAlgnA51gySHVkJW9JOVwrla9ixv49gwzEaFNnz-HylysaUEJBnHvJgpZUxQYUNG-9FCj6URp9Gm-UrKhHHsi3fa29NIcvAWQalo5FMjJqDHNG7rs38kQofqeqJKXjLLWMjEcjmPUdrrwhIROuZoW3KQq4CvXKv1lFsHWpcBP0ep2rp31HO23tvM_iRzD_Rug47u16bVG_f7EBTlUmUfxN1fMZvXZJrex5kUb1FQyDChS-ZjHEJjbzTBVd5icBgtTDHKmWSNQuXyDKAJGx_0G00]--></g></svg>