<svg xmlns="http://www.w3.org/2000/svg" xmlns:xlink="http://www.w3.org/1999/xlink" contentStyleType="text/css" data-diagram-type="CLASS" height="2462px" preserveAspectRatio="none" style="width:2862px;height:2462px;background:#FFFFFF;" version="1.1" viewBox="0 0 2862 2462" width="2862px" zoomAndPan="magnify"><title>Business Logic Layer (BLL)</title><defs/><g><g class="title" data-source-line="4"><text fill="#000000" font-family="sans-serif" font-size="14" font-weight="bold" lengthAdjust="spacing" textLength="211.3809" x="1318.5146" y="22.9951">Business Logic Layer (BLL)</text></g><!--cluster 02--><g class="cluster" data-entity="02" data-source-line="8" data-uid="ent0004" id="cluster_02"><path d="M8.5,43.2969 L28.9824,43.2969 A3.75,3.75 0 0 1 31.4824,45.7969 L38.4824,65.5938 L2852.91,65.5938 A2.5,2.5 0 0 1 2855.41,68.0938 L2855.41,2452.7969 A2.5,2.5 0 0 1 2852.91,2455.2969 L8.5,2455.2969 A2.5,2.5 0 0 1 6,2452.7969 L6,45.7969 A2.5,2.5 0 0 1 8.5,43.2969" fill="none" style="stroke:#000000;stroke-width:1.5;"/><line style="stroke:#000000;stroke-width:1.5;" x1="6" x2="38.4824" y1="65.5938" y2="65.5938"/><text fill="#000000" font-family="sans-serif" font-size="14" font-weight="bold" lengthAdjust="spacing" textLength="19.4824" x="10" y="58.292">02</text></g><!--cluster  DAL (Interfaces Partial)--><g class="cluster" data-entity=" DAL (Interfaces Partial)" data-source-line="7" data-uid="ent0002" id="cluster_ DAL (Interfaces Partial)"><path d="M32.5,86.2969 L224.5781,86.2969 A3.75,3.75 0 0 1 227.0781,88.7969 L234.0781,108.5938 L2828.91,108.5938 A2.5,2.5 0 0 1 2831.41,111.0938 L2831.41,2428.7969 A2.5,2.5 0 0 1 2828.91,2431.2969 L32.5,2431.2969 A2.5,2.5 0 0 1 30,2428.7969 L30,88.7969 A2.5,2.5 0 0 1 32.5,86.2969" fill="none" style="stroke:#000000;stroke-width:1.5;"/><line style="stroke:#000000;stroke-width:1.5;" x1="30" x2="234.0781" y1="108.5938" y2="108.5938"/><text fill="#000000" font-family="sans-serif" font-size="14" font-weight="bold" lengthAdjust="spacing" textLength="186.2041" x="38.874" y="101.292">DAL (Interfaces Partial)</text></g><!--cluster 06--><g class="cluster" data-entity="06" data-source-line="16" data-uid="ent0008" id="cluster_06"><path d="M2169.9,1502.2969 L2190.3824,1502.2969 A3.75,3.75 0 0 1 2192.8824,1504.7969 L2199.8824,1524.5938 L2573.19,1524.5938 A2.5,2.5 0 0 1 2575.69,1527.0938 L2575.69,1748.7969 A2.5,2.5 0 0 1 2573.19,1751.2969 L2169.9,1751.2969 A2.5,2.5 0 0 1 2167.4,1748.7969 L2167.4,1504.7969 A2.5,2.5 0 0 1 2169.9,1502.2969" fill="none" style="stroke:#000000;stroke-width:1.5;"/><line style="stroke:#000000;stroke-width:1.5;" x1="2167.4" x2="2199.8824" y1="1524.5938" y2="1524.5938"/><text fill="#000000" font-family="sans-serif" font-size="14" font-weight="bold" lengthAdjust="spacing" textLength="19.4824" x="2171.4" y="1517.292">06</text></g><!--cluster  Cross-Cutting Concerns (Interfaces Partial)--><g class="cluster" data-entity=" Cross-Cutting Concerns (Interfaces Partial)" data-source-line="15" data-uid="ent0006" id="cluster_ Cross-Cutting Concerns (Interfaces Partial)"><path d="M2193.9,1545.2969 L2540.0191,1545.2969 A3.75,3.75 0 0 1 2542.5191,1547.7969 L2549.5191,1567.5938 L2549.19,1567.5938 A2.5,2.5 0 0 1 2551.69,1570.0938 L2551.69,1724.7969 A2.5,2.5 0 0 1 2549.19,1727.2969 L2193.9,1727.2969 A2.5,2.5 0 0 1 2191.4,1724.7969 L2191.4,1547.7969 A2.5,2.5 0 0 1 2193.9,1545.2969" fill="none" style="stroke:#000000;stroke-width:1.5;"/><line style="stroke:#000000;stroke-width:1.5;" x1="2191.4" x2="2549.5191" y1="1567.5938" y2="1567.5938"/><text fill="#000000" font-family="sans-serif" font-size="14" font-weight="bold" lengthAdjust="spacing" textLength="340.2451" x="2200.274" y="1560.292">Cross-Cutting Concerns (Interfaces Partial)</text></g><!--cluster 05--><g class="cluster" data-entity="05" data-source-line="21" data-uid="ent0012" id="cluster_05"><path d="M2228.83,129.2969 L2249.3124,129.2969 A3.75,3.75 0 0 1 2251.8124,131.7969 L2258.8124,151.5938 L2804.91,151.5938 A2.5,2.5 0 0 1 2807.41,154.0938 L2807.41,1371.7969 A2.5,2.5 0 0 1 2804.91,1374.2969 L2228.83,1374.2969 A2.5,2.5 0 0 1 2226.33,1371.7969 L2226.33,131.7969 A2.5,2.5 0 0 1 2228.83,129.2969" fill="none" style="stroke:#000000;stroke-width:1.5;"/><line style="stroke:#000000;stroke-width:1.5;" x1="2226.33" x2="2258.8124" y1="151.5938" y2="151.5938"/><text fill="#000000" font-family="sans-serif" font-size="14" font-weight="bold" lengthAdjust="spacing" textLength="19.4824" x="2230.33" y="144.292">05</text></g><!--cluster  DTOs (Partial)--><g class="cluster" data-entity=" DTOs (Partial)" data-source-line="20" data-uid="ent0010" id="cluster_ DTOs (Partial)"><path d="M2252.83,172.2969 L2370.1298,172.2969 A3.75,3.75 0 0 1 2372.6298,174.7969 L2379.6298,194.5938 L2780.91,194.5938 A2.5,2.5 0 0 1 2783.41,197.0938 L2783.41,1347.7969 A2.5,2.5 0 0 1 2780.91,1350.2969 L2252.83,1350.2969 A2.5,2.5 0 0 1 2250.33,1347.7969 L2250.33,174.7969 A2.5,2.5 0 0 1 2252.83,172.2969" fill="none" style="stroke:#000000;stroke-width:1.5;"/><line style="stroke:#000000;stroke-width:1.5;" x1="2250.33" x2="2379.6298" y1="194.5938" y2="194.5938"/><text fill="#000000" font-family="sans-serif" font-size="14" font-weight="bold" lengthAdjust="spacing" textLength="111.4258" x="2259.204" y="187.292">DTOs (Partial)</text></g><!--cluster 03--><g class="cluster" data-entity="03" data-source-line="46" data-uid="ent0030" id="cluster_03"><path d="M56.5,1831.2969 L76.9824,1831.2969 A3.75,3.75 0 0 1 79.4824,1833.7969 L86.4824,1853.5938 L2484.16,1853.5938 A2.5,2.5 0 0 1 2486.66,1856.0938 L2486.66,2404.7969 A2.5,2.5 0 0 1 2484.16,2407.2969 L56.5,2407.2969 A2.5,2.5 0 0 1 54,2404.7969 L54,1833.7969 A2.5,2.5 0 0 1 56.5,1831.2969" fill="none" style="stroke:#000000;stroke-width:1.5;"/><line style="stroke:#000000;stroke-width:1.5;" x1="54" x2="86.4824" y1="1853.5938" y2="1853.5938"/><text fill="#000000" font-family="sans-serif" font-size="14" font-weight="bold" lengthAdjust="spacing" textLength="19.4824" x="58" y="1846.292">03</text></g><!--cluster  BLL (Business Logic Layer)--><g class="cluster" data-entity=" BLL (Business Logic Layer)" data-source-line="45" data-uid="ent0028" id="cluster_ BLL (Business Logic Layer)"><path d="M80.5,1874.2969 L297.7549,1874.2969 A3.75,3.75 0 0 1 300.2549,1876.7969 L307.2549,1896.5938 L2460.16,1896.5938 A2.5,2.5 0 0 1 2462.66,1899.0938 L2462.66,2380.7969 A2.5,2.5 0 0 1 2460.16,2383.2969 L80.5,2383.2969 A2.5,2.5 0 0 1 78,2380.7969 L78,1876.7969 A2.5,2.5 0 0 1 80.5,1874.2969" fill="none" style="stroke:#000000;stroke-width:1.5;"/><line style="stroke:#000000;stroke-width:1.5;" x1="78" x2="307.2549" y1="1896.5938" y2="1896.5938"/><text fill="#000000" font-family="sans-serif" font-size="14" font-weight="bold" lengthAdjust="spacing" textLength="211.3809" x="86.874" y="1889.292">BLL (Business Logic Layer)</text></g><!--class IRepository--><g class="entity" data-entity="IRepository" data-source-line="8" data-uid="ent0003" id="entity_IRepository"><rect fill="#F1F1F1" height="48" rx="2.5" ry="2.5" style="stroke:#181818;stroke-width:0.5;" width="122.5313" x="2309.78" y="1767.2969"/><ellipse cx="2324.78" cy="1783.2969" fill="#B4A7E5" rx="11" ry="11" style="stroke:#181818;stroke-width:1;"/><path d="M2320.7019,1779.0625 L2320.7019,1776.9063 L2328.0925,1776.9063 L2328.0925,1779.0625 L2325.6238,1779.0625 L2325.6238,1787.1406 L2328.0925,1787.1406 L2328.0925,1789.2969 L2320.7019,1789.2969 L2320.7019,1787.1406 L2323.1706,1787.1406 L2323.1706,1779.0625 L2320.7019,1779.0625 Z " fill="#000000"/><text fill="#000000" font-family="sans-serif" font-size="14" font-style="italic" lengthAdjust="spacing" textLength="79.2012" x="2338.78" y="1788.1436">IRepository</text><rect fill="#FFFFFF" height="15.9688" style="stroke:#181818;stroke-width:1;stroke-dasharray:2.0,2.0;" width="9.3301" x="2425.9812" y="1764.2969"/><text fill="#000000" font-family="sans-serif" font-size="12" font-style="italic" lengthAdjust="spacing" textLength="7.3301" x="2426.9812" y="1776.4355">T</text><line style="stroke:#181818;stroke-width:0.5;" x1="2310.78" x2="2431.3113" y1="1799.2969" y2="1799.2969"/><line style="stroke:#181818;stroke-width:0.5;" x1="2310.78" x2="2431.3113" y1="1807.2969" y2="1807.2969"/></g><!--class ICandyRepository--><g class="entity" data-entity="ICandyRepository" data-source-line="9" data-uid="ent0005" id="entity_ICandyRepository"><rect fill="#F1F1F1" height="96.8906" rx="2.5" ry="2.5" style="stroke:#181818;stroke-width:0.5;" width="526.6641" x="2107.71" y="1389.8469"/><ellipse cx="2304.9917" cy="1405.8469" fill="#B4A7E5" rx="11" ry="11" style="stroke:#181818;stroke-width:1;"/><path d="M2300.9136,1401.6125 L2300.9136,1399.4563 L2308.3042,1399.4563 L2308.3042,1401.6125 L2305.8355,1401.6125 L2305.8355,1409.6906 L2308.3042,1409.6906 L2308.3042,1411.8469 L2300.9136,1411.8469 L2300.9136,1409.6906 L2303.3824,1409.6906 L2303.3824,1401.6125 L2300.9136,1401.6125 Z " fill="#000000"/><text fill="#000000" font-family="sans-serif" font-size="14" font-style="italic" lengthAdjust="spacing" textLength="123.6006" x="2325.4917" y="1410.6936">ICandyRepository</text><line style="stroke:#181818;stroke-width:0.5;" x1="2108.71" x2="2633.3741" y1="1421.8469" y2="1421.8469"/><text fill="#000000" font-family="sans-serif" font-size="14" lengthAdjust="spacing" textLength="319.4707" x="2113.71" y="1438.842">ICandyRepository &lt;|-- IRepository&lt;Candy&gt; }</text><text fill="#000000" font-family="sans-serif" font-size="14" lengthAdjust="spacing" textLength="490.3008" x="2113.71" y="1455.1389">interface IUserRepository { IUserRepository &lt;|-- IRepository&lt;User&gt; }</text><text fill="#000000" font-family="sans-serif" font-size="14" lengthAdjust="spacing" textLength="514.6641" x="2113.71" y="1471.4357">interface IOrderRepository { IOrderRepository &lt;|-- IRepository&lt;Order&gt; }</text><line style="stroke:#181818;stroke-width:0.5;" x1="2108.71" x2="2633.3741" y1="1478.7375" y2="1478.7375"/></g><!--class IJwtService--><g class="entity" data-entity="IJwtService" data-source-line="16" data-uid="ent0007" id="entity_IJwtService"><rect fill="#F1F1F1" height="48" rx="2.5" ry="2.5" style="stroke:#181818;stroke-width:0.5;" width="108.9385" x="2316.57" y="1580.2969"/><ellipse cx="2331.57" cy="1596.2969" fill="#B4A7E5" rx="11" ry="11" style="stroke:#181818;stroke-width:1;"/><path d="M2327.4919,1592.0625 L2327.4919,1589.9063 L2334.8825,1589.9063 L2334.8825,1592.0625 L2332.4138,1592.0625 L2332.4138,1600.1406 L2334.8825,1600.1406 L2334.8825,1602.2969 L2327.4919,1602.2969 L2327.4919,1600.1406 L2329.9606,1600.1406 L2329.9606,1592.0625 L2327.4919,1592.0625 Z " fill="#000000"/><text fill="#000000" font-family="sans-serif" font-size="14" font-style="italic" lengthAdjust="spacing" textLength="76.9385" x="2345.57" y="1601.1436">IJwtService</text><line style="stroke:#181818;stroke-width:0.5;" x1="2317.57" x2="2424.5085" y1="1612.2969" y2="1612.2969"/><line style="stroke:#181818;stroke-width:0.5;" x1="2317.57" x2="2424.5085" y1="1620.2969" y2="1620.2969"/></g><!--class ITaxService--><g class="entity" data-entity="ITaxService" data-source-line="17" data-uid="ent0009" id="entity_ITaxService"><rect fill="#F1F1F1" height="48" rx="2.5" ry="2.5" style="stroke:#181818;stroke-width:0.5;" width="113.2861" x="2314.4" y="1663.2969"/><ellipse cx="2329.4" cy="1679.2969" fill="#B4A7E5" rx="11" ry="11" style="stroke:#181818;stroke-width:1;"/><path d="M2325.3219,1675.0625 L2325.3219,1672.9063 L2332.7125,1672.9063 L2332.7125,1675.0625 L2330.2438,1675.0625 L2330.2438,1683.1406 L2332.7125,1683.1406 L2332.7125,1685.2969 L2325.3219,1685.2969 L2325.3219,1683.1406 L2327.7906,1683.1406 L2327.7906,1675.0625 L2325.3219,1675.0625 Z " fill="#000000"/><text fill="#000000" font-family="sans-serif" font-size="14" font-style="italic" lengthAdjust="spacing" textLength="81.2861" x="2343.4" y="1684.1436">ITaxService</text><line style="stroke:#181818;stroke-width:0.5;" x1="2315.4" x2="2426.6861" y1="1695.2969" y2="1695.2969"/><line style="stroke:#181818;stroke-width:0.5;" x1="2315.4" x2="2426.6861" y1="1703.2969" y2="1703.2969"/></g><!--class AddCandyRequestDto--><g class="entity" data-entity="AddCandyRequestDto" data-source-line="21" data-uid="ent0011" id="entity_AddCandyRequestDto"><rect fill="#F1F1F1" height="48" rx="2.5" ry="2.5" style="stroke:#181818;stroke-width:0.5;" width="186.082" x="2278" y="871.2969"/><ellipse cx="2293" cy="887.2969" fill="#ADD1B2" rx="11" ry="11" style="stroke:#181818;stroke-width:1;"/><path d="M2295.9688,892.9375 Q2295.3906,893.2344 2294.75,893.375 Q2294.1094,893.5313 2293.4063,893.5313 Q2290.9063,893.5313 2289.5781,891.8906 Q2288.2656,890.2344 2288.2656,887.1094 Q2288.2656,883.9844 2289.5781,882.3281 Q2290.9063,880.6719 2293.4063,880.6719 Q2294.1094,880.6719 2294.75,880.8281 Q2295.4063,880.9844 2295.9688,881.2813 L2295.9688,884 Q2295.3438,883.4219 2294.75,883.1563 Q2294.1563,882.875 2293.5313,882.875 Q2292.1875,882.875 2291.5,883.9531 Q2290.8125,885.0156 2290.8125,887.1094 Q2290.8125,889.2031 2291.5,890.2813 Q2292.1875,891.3438 2293.5313,891.3438 Q2294.1563,891.3438 2294.75,891.0781 Q2295.3438,890.7969 2295.9688,890.2188 L2295.9688,892.9375 Z " fill="#000000"/><text fill="#000000" font-family="sans-serif" font-size="14" lengthAdjust="spacing" textLength="154.082" x="2307" y="892.1436">AddCandyRequestDto</text><line style="stroke:#181818;stroke-width:0.5;" x1="2279" x2="2463.082" y1="903.2969" y2="903.2969"/><line style="stroke:#181818;stroke-width:0.5;" x1="2279" x2="2463.082" y1="911.2969" y2="911.2969"/></g><!--class UpdateCandyRequestDto--><g class="entity" data-entity="UpdateCandyRequestDto" data-source-line="22" data-uid="ent0013" id="entity_UpdateCandyRequestDto"><rect fill="#F1F1F1" height="48" rx="2.5" ry="2.5" style="stroke:#181818;stroke-width:0.5;" width="209.4336" x="2266.33" y="788.2969"/><ellipse cx="2281.33" cy="804.2969" fill="#ADD1B2" rx="11" ry="11" style="stroke:#181818;stroke-width:1;"/><path d="M2284.2988,809.9375 Q2283.7206,810.2344 2283.08,810.375 Q2282.4394,810.5313 2281.7363,810.5313 Q2279.2363,810.5313 2277.9081,808.8906 Q2276.5956,807.2344 2276.5956,804.1094 Q2276.5956,800.9844 2277.9081,799.3281 Q2279.2363,797.6719 2281.7363,797.6719 Q2282.4394,797.6719 2283.08,797.8281 Q2283.7363,797.9844 2284.2988,798.2813 L2284.2988,801 Q2283.6738,800.4219 2283.08,800.1563 Q2282.4863,799.875 2281.8613,799.875 Q2280.5175,799.875 2279.83,800.9531 Q2279.1425,802.0156 2279.1425,804.1094 Q2279.1425,806.2031 2279.83,807.2813 Q2280.5175,808.3438 2281.8613,808.3438 Q2282.4863,808.3438 2283.08,808.0781 Q2283.6738,807.7969 2284.2988,807.2188 L2284.2988,809.9375 Z " fill="#000000"/><text fill="#000000" font-family="sans-serif" font-size="14" lengthAdjust="spacing" textLength="177.4336" x="2295.33" y="809.1436">UpdateCandyRequestDto</text><line style="stroke:#181818;stroke-width:0.5;" x1="2267.33" x2="2474.7636" y1="820.2969" y2="820.2969"/><line style="stroke:#181818;stroke-width:0.5;" x1="2267.33" x2="2474.7636" y1="828.2969" y2="828.2969"/></g><!--class CandyResponseDto--><g class="entity" data-entity="CandyResponseDto" data-source-line="23" data-uid="ent0014" id="entity_CandyResponseDto"><rect fill="#F1F1F1" height="48" rx="2.5" ry="2.5" style="stroke:#181818;stroke-width:0.5;" width="169.1016" x="2286.49" y="705.2969"/><ellipse cx="2301.49" cy="721.2969" fill="#ADD1B2" rx="11" ry="11" style="stroke:#181818;stroke-width:1;"/><path d="M2304.4588,726.9375 Q2303.8806,727.2344 2303.24,727.375 Q2302.5994,727.5313 2301.8963,727.5313 Q2299.3963,727.5313 2298.0681,725.8906 Q2296.7556,724.2344 2296.7556,721.1094 Q2296.7556,717.9844 2298.0681,716.3281 Q2299.3963,714.6719 2301.8963,714.6719 Q2302.5994,714.6719 2303.24,714.8281 Q2303.8963,714.9844 2304.4588,715.2813 L2304.4588,718 Q2303.8338,717.4219 2303.24,717.1563 Q2302.6463,716.875 2302.0213,716.875 Q2300.6775,716.875 2299.99,717.9531 Q2299.3025,719.0156 2299.3025,721.1094 Q2299.3025,723.2031 2299.99,724.2813 Q2300.6775,725.3438 2302.0213,725.3438 Q2302.6463,725.3438 2303.24,725.0781 Q2303.8338,724.7969 2304.4588,724.2188 L2304.4588,726.9375 Z " fill="#000000"/><text fill="#000000" font-family="sans-serif" font-size="14" lengthAdjust="spacing" textLength="137.1016" x="2315.49" y="726.1436">CandyResponseDto</text><line style="stroke:#181818;stroke-width:0.5;" x1="2287.49" x2="2454.5916" y1="737.2969" y2="737.2969"/><line style="stroke:#181818;stroke-width:0.5;" x1="2287.49" x2="2454.5916" y1="745.2969" y2="745.2969"/></g><!--class RegisterUserDto--><g class="entity" data-entity="RegisterUserDto" data-source-line="24" data-uid="ent0015" id="entity_RegisterUserDto"><rect fill="#F1F1F1" height="48" rx="2.5" ry="2.5" style="stroke:#181818;stroke-width:0.5;" width="147.0146" x="2297.54" y="373.2969"/><ellipse cx="2312.54" cy="389.2969" fill="#ADD1B2" rx="11" ry="11" style="stroke:#181818;stroke-width:1;"/><path d="M2315.5088,394.9375 Q2314.9306,395.2344 2314.29,395.375 Q2313.6494,395.5313 2312.9463,395.5313 Q2310.4463,395.5313 2309.1181,393.8906 Q2307.8056,392.2344 2307.8056,389.1094 Q2307.8056,385.9844 2309.1181,384.3281 Q2310.4463,382.6719 2312.9463,382.6719 Q2313.6494,382.6719 2314.29,382.8281 Q2314.9463,382.9844 2315.5088,383.2813 L2315.5088,386 Q2314.8838,385.4219 2314.29,385.1563 Q2313.6963,384.875 2313.0713,384.875 Q2311.7275,384.875 2311.04,385.9531 Q2310.3525,387.0156 2310.3525,389.1094 Q2310.3525,391.2031 2311.04,392.2813 Q2311.7275,393.3438 2313.0713,393.3438 Q2313.6963,393.3438 2314.29,393.0781 Q2314.8838,392.7969 2315.5088,392.2188 L2315.5088,394.9375 Z " fill="#000000"/><text fill="#000000" font-family="sans-serif" font-size="14" lengthAdjust="spacing" textLength="115.0146" x="2326.54" y="394.1436">RegisterUserDto</text><line style="stroke:#181818;stroke-width:0.5;" x1="2298.54" x2="2443.5546" y1="405.2969" y2="405.2969"/><line style="stroke:#181818;stroke-width:0.5;" x1="2298.54" x2="2443.5546" y1="413.2969" y2="413.2969"/></g><!--class LoginRequestDto--><g class="entity" data-entity="LoginRequestDto" data-source-line="25" data-uid="ent0016" id="entity_LoginRequestDto"><rect fill="#F1F1F1" height="48" rx="2.5" ry="2.5" style="stroke:#181818;stroke-width:0.5;" width="152.3467" x="2294.87" y="290.2969"/><ellipse cx="2309.87" cy="306.2969" fill="#ADD1B2" rx="11" ry="11" style="stroke:#181818;stroke-width:1;"/><path d="M2312.8388,311.9375 Q2312.2606,312.2344 2311.62,312.375 Q2310.9794,312.5313 2310.2763,312.5313 Q2307.7763,312.5313 2306.4481,310.8906 Q2305.1356,309.2344 2305.1356,306.1094 Q2305.1356,302.9844 2306.4481,301.3281 Q2307.7763,299.6719 2310.2763,299.6719 Q2310.9794,299.6719 2311.62,299.8281 Q2312.2763,299.9844 2312.8388,300.2813 L2312.8388,303 Q2312.2138,302.4219 2311.62,302.1563 Q2311.0263,301.875 2310.4013,301.875 Q2309.0575,301.875 2308.37,302.9531 Q2307.6825,304.0156 2307.6825,306.1094 Q2307.6825,308.2031 2308.37,309.2813 Q2309.0575,310.3438 2310.4013,310.3438 Q2311.0263,310.3438 2311.62,310.0781 Q2312.2138,309.7969 2312.8388,309.2188 L2312.8388,311.9375 Z " fill="#000000"/><text fill="#000000" font-family="sans-serif" font-size="14" lengthAdjust="spacing" textLength="120.3467" x="2323.87" y="311.1436">LoginRequestDto</text><line style="stroke:#181818;stroke-width:0.5;" x1="2295.87" x2="2446.2167" y1="322.2969" y2="322.2969"/><line style="stroke:#181818;stroke-width:0.5;" x1="2295.87" x2="2446.2167" y1="330.2969" y2="330.2969"/></g><!--class AuthResponseDto--><g class="entity" data-entity="AuthResponseDto" data-source-line="26" data-uid="ent0017" id="entity_AuthResponseDto"><rect fill="#F1F1F1" height="48" rx="2.5" ry="2.5" style="stroke:#181818;stroke-width:0.5;" width="157.5146" x="2292.29" y="207.2969"/><ellipse cx="2307.29" cy="223.2969" fill="#ADD1B2" rx="11" ry="11" style="stroke:#181818;stroke-width:1;"/><path d="M2310.2588,228.9375 Q2309.6806,229.2344 2309.04,229.375 Q2308.3994,229.5313 2307.6963,229.5313 Q2305.1963,229.5313 2303.8681,227.8906 Q2302.5556,226.2344 2302.5556,223.1094 Q2302.5556,219.9844 2303.8681,218.3281 Q2305.1963,216.6719 2307.6963,216.6719 Q2308.3994,216.6719 2309.04,216.8281 Q2309.6963,216.9844 2310.2588,217.2813 L2310.2588,220 Q2309.6338,219.4219 2309.04,219.1563 Q2308.4463,218.875 2307.8213,218.875 Q2306.4775,218.875 2305.79,219.9531 Q2305.1025,221.0156 2305.1025,223.1094 Q2305.1025,225.2031 2305.79,226.2813 Q2306.4775,227.3438 2307.8213,227.3438 Q2308.4463,227.3438 2309.04,227.0781 Q2309.6338,226.7969 2310.2588,226.2188 L2310.2588,228.9375 Z " fill="#000000"/><text fill="#000000" font-family="sans-serif" font-size="14" lengthAdjust="spacing" textLength="125.5146" x="2321.29" y="228.1436">AuthResponseDto</text><line style="stroke:#181818;stroke-width:0.5;" x1="2293.29" x2="2448.8046" y1="239.2969" y2="239.2969"/><line style="stroke:#181818;stroke-width:0.5;" x1="2293.29" x2="2448.8046" y1="247.2969" y2="247.2969"/></g><!--class UserResponseDto--><g class="entity" data-entity="UserResponseDto" data-source-line="27" data-uid="ent0018" id="entity_UserResponseDto"><rect fill="#F1F1F1" height="48" rx="2.5" ry="2.5" style="stroke:#181818;stroke-width:0.5;" width="156.6123" x="2292.74" y="622.2969"/><ellipse cx="2307.74" cy="638.2969" fill="#ADD1B2" rx="11" ry="11" style="stroke:#181818;stroke-width:1;"/><path d="M2310.7088,643.9375 Q2310.1306,644.2344 2309.49,644.375 Q2308.8494,644.5313 2308.1463,644.5313 Q2305.6463,644.5313 2304.3181,642.8906 Q2303.0056,641.2344 2303.0056,638.1094 Q2303.0056,634.9844 2304.3181,633.3281 Q2305.6463,631.6719 2308.1463,631.6719 Q2308.8494,631.6719 2309.49,631.8281 Q2310.1463,631.9844 2310.7088,632.2813 L2310.7088,635 Q2310.0838,634.4219 2309.49,634.1563 Q2308.8963,633.875 2308.2713,633.875 Q2306.9275,633.875 2306.24,634.9531 Q2305.5525,636.0156 2305.5525,638.1094 Q2305.5525,640.2031 2306.24,641.2813 Q2306.9275,642.3438 2308.2713,642.3438 Q2308.8963,642.3438 2309.49,642.0781 Q2310.0838,641.7969 2310.7088,641.2188 L2310.7088,643.9375 Z " fill="#000000"/><text fill="#000000" font-family="sans-serif" font-size="14" lengthAdjust="spacing" textLength="124.6123" x="2321.74" y="643.1436">UserResponseDto</text><line style="stroke:#181818;stroke-width:0.5;" x1="2293.74" x2="2448.3523" y1="654.2969" y2="654.2969"/><line style="stroke:#181818;stroke-width:0.5;" x1="2293.74" x2="2448.3523" y1="662.2969" y2="662.2969"/></g><!--class UpdateUserDto--><g class="entity" data-entity="UpdateUserDto" data-source-line="28" data-uid="ent0019" id="entity_UpdateUserDto"><rect fill="#F1F1F1" height="48" rx="2.5" ry="2.5" style="stroke:#181818;stroke-width:0.5;" width="139.4473" x="2301.32" y="539.2969"/><ellipse cx="2316.32" cy="555.2969" fill="#ADD1B2" rx="11" ry="11" style="stroke:#181818;stroke-width:1;"/><path d="M2319.2888,560.9375 Q2318.7106,561.2344 2318.07,561.375 Q2317.4294,561.5313 2316.7263,561.5313 Q2314.2263,561.5313 2312.8981,559.8906 Q2311.5856,558.2344 2311.5856,555.1094 Q2311.5856,551.9844 2312.8981,550.3281 Q2314.2263,548.6719 2316.7263,548.6719 Q2317.4294,548.6719 2318.07,548.8281 Q2318.7263,548.9844 2319.2888,549.2813 L2319.2888,552 Q2318.6638,551.4219 2318.07,551.1563 Q2317.4763,550.875 2316.8513,550.875 Q2315.5075,550.875 2314.82,551.9531 Q2314.1325,553.0156 2314.1325,555.1094 Q2314.1325,557.2031 2314.82,558.2813 Q2315.5075,559.3438 2316.8513,559.3438 Q2317.4763,559.3438 2318.07,559.0781 Q2318.6638,558.7969 2319.2888,558.2188 L2319.2888,560.9375 Z " fill="#000000"/><text fill="#000000" font-family="sans-serif" font-size="14" lengthAdjust="spacing" textLength="107.4473" x="2330.32" y="560.1436">UpdateUserDto</text><line style="stroke:#181818;stroke-width:0.5;" x1="2302.32" x2="2439.7673" y1="571.2969" y2="571.2969"/><line style="stroke:#181818;stroke-width:0.5;" x1="2302.32" x2="2439.7673" y1="579.2969" y2="579.2969"/></g><!--class PlaceOrderRequestDto--><g class="entity" data-entity="PlaceOrderRequestDto" data-source-line="29" data-uid="ent0020" id="entity_PlaceOrderRequestDto"><rect fill="#F1F1F1" height="48" rx="2.5" ry="2.5" style="stroke:#181818;stroke-width:0.5;" width="191.585" x="2275.25" y="954.2969"/><ellipse cx="2290.25" cy="970.2969" fill="#ADD1B2" rx="11" ry="11" style="stroke:#181818;stroke-width:1;"/><path d="M2293.2188,975.9375 Q2292.6406,976.2344 2292,976.375 Q2291.3594,976.5313 2290.6563,976.5313 Q2288.1563,976.5313 2286.8281,974.8906 Q2285.5156,973.2344 2285.5156,970.1094 Q2285.5156,966.9844 2286.8281,965.3281 Q2288.1563,963.6719 2290.6563,963.6719 Q2291.3594,963.6719 2292,963.8281 Q2292.6563,963.9844 2293.2188,964.2813 L2293.2188,967 Q2292.5938,966.4219 2292,966.1563 Q2291.4063,965.875 2290.7813,965.875 Q2289.4375,965.875 2288.75,966.9531 Q2288.0625,968.0156 2288.0625,970.1094 Q2288.0625,972.2031 2288.75,973.2813 Q2289.4375,974.3438 2290.7813,974.3438 Q2291.4063,974.3438 2292,974.0781 Q2292.5938,973.7969 2293.2188,973.2188 L2293.2188,975.9375 Z " fill="#000000"/><text fill="#000000" font-family="sans-serif" font-size="14" lengthAdjust="spacing" textLength="159.585" x="2304.25" y="975.1436">PlaceOrderRequestDto</text><line style="stroke:#181818;stroke-width:0.5;" x1="2276.25" x2="2465.835" y1="986.2969" y2="986.2969"/><line style="stroke:#181818;stroke-width:0.5;" x1="2276.25" x2="2465.835" y1="994.2969" y2="994.2969"/></g><!--class OrderResponseDto--><g class="entity" data-entity="OrderResponseDto" data-source-line="30" data-uid="ent0021" id="entity_OrderResponseDto"><rect fill="#F1F1F1" height="48" rx="2.5" ry="2.5" style="stroke:#181818;stroke-width:0.5;" width="164.7334" x="2288.68" y="1037.2969"/><ellipse cx="2303.68" cy="1053.2969" fill="#ADD1B2" rx="11" ry="11" style="stroke:#181818;stroke-width:1;"/><path d="M2306.6488,1058.9375 Q2306.0706,1059.2344 2305.43,1059.375 Q2304.7894,1059.5313 2304.0863,1059.5313 Q2301.5863,1059.5313 2300.2581,1057.8906 Q2298.9456,1056.2344 2298.9456,1053.1094 Q2298.9456,1049.9844 2300.2581,1048.3281 Q2301.5863,1046.6719 2304.0863,1046.6719 Q2304.7894,1046.6719 2305.43,1046.8281 Q2306.0863,1046.9844 2306.6488,1047.2813 L2306.6488,1050 Q2306.0238,1049.4219 2305.43,1049.1563 Q2304.8363,1048.875 2304.2113,1048.875 Q2302.8675,1048.875 2302.18,1049.9531 Q2301.4925,1051.0156 2301.4925,1053.1094 Q2301.4925,1055.2031 2302.18,1056.2813 Q2302.8675,1057.3438 2304.2113,1057.3438 Q2304.8363,1057.3438 2305.43,1057.0781 Q2306.0238,1056.7969 2306.6488,1056.2188 L2306.6488,1058.9375 Z " fill="#000000"/><text fill="#000000" font-family="sans-serif" font-size="14" lengthAdjust="spacing" textLength="132.7334" x="2317.68" y="1058.1436">OrderResponseDto</text><line style="stroke:#181818;stroke-width:0.5;" x1="2289.68" x2="2452.4134" y1="1069.2969" y2="1069.2969"/><line style="stroke:#181818;stroke-width:0.5;" x1="2289.68" x2="2452.4134" y1="1077.2969" y2="1077.2969"/></g><!--class OrderHistoryItemDto--><g class="entity" data-entity="OrderHistoryItemDto" data-source-line="31" data-uid="ent0022" id="entity_OrderHistoryItemDto"><rect fill="#F1F1F1" height="48" rx="2.5" ry="2.5" style="stroke:#181818;stroke-width:0.5;" width="178.542" x="2281.77" y="456.2969"/><ellipse cx="2296.77" cy="472.2969" fill="#ADD1B2" rx="11" ry="11" style="stroke:#181818;stroke-width:1;"/><path d="M2299.7388,477.9375 Q2299.1606,478.2344 2298.52,478.375 Q2297.8794,478.5313 2297.1763,478.5313 Q2294.6763,478.5313 2293.3481,476.8906 Q2292.0356,475.2344 2292.0356,472.1094 Q2292.0356,468.9844 2293.3481,467.3281 Q2294.6763,465.6719 2297.1763,465.6719 Q2297.8794,465.6719 2298.52,465.8281 Q2299.1763,465.9844 2299.7388,466.2813 L2299.7388,469 Q2299.1138,468.4219 2298.52,468.1563 Q2297.9263,467.875 2297.3013,467.875 Q2295.9575,467.875 2295.27,468.9531 Q2294.5825,470.0156 2294.5825,472.1094 Q2294.5825,474.2031 2295.27,475.2813 Q2295.9575,476.3438 2297.3013,476.3438 Q2297.9263,476.3438 2298.52,476.0781 Q2299.1138,475.7969 2299.7388,475.2188 L2299.7388,477.9375 Z " fill="#000000"/><text fill="#000000" font-family="sans-serif" font-size="14" lengthAdjust="spacing" textLength="146.542" x="2310.77" y="477.1436">OrderHistoryItemDto</text><line style="stroke:#181818;stroke-width:0.5;" x1="2282.77" x2="2459.312" y1="488.2969" y2="488.2969"/><line style="stroke:#181818;stroke-width:0.5;" x1="2282.77" x2="2459.312" y1="496.2969" y2="496.2969"/></g><!--class Brand--><g class="entity" data-entity="Brand" data-source-line="32" data-uid="ent0023" id="entity_Brand"><rect fill="#F1F1F1" height="48" rx="2.5" ry="2.5" style="stroke:#181818;stroke-width:0.5;" width="73.6992" x="2334.19" y="1286.2969"/><ellipse cx="2349.19" cy="1302.2969" fill="#ADD1B2" rx="11" ry="11" style="stroke:#181818;stroke-width:1;"/><path d="M2352.1588,1307.9375 Q2351.5806,1308.2344 2350.94,1308.375 Q2350.2994,1308.5313 2349.5963,1308.5313 Q2347.0963,1308.5313 2345.7681,1306.8906 Q2344.4556,1305.2344 2344.4556,1302.1094 Q2344.4556,1298.9844 2345.7681,1297.3281 Q2347.0963,1295.6719 2349.5963,1295.6719 Q2350.2994,1295.6719 2350.94,1295.8281 Q2351.5963,1295.9844 2352.1588,1296.2813 L2352.1588,1299 Q2351.5338,1298.4219 2350.94,1298.1563 Q2350.3463,1297.875 2349.7213,1297.875 Q2348.3775,1297.875 2347.69,1298.9531 Q2347.0025,1300.0156 2347.0025,1302.1094 Q2347.0025,1304.2031 2347.69,1305.2813 Q2348.3775,1306.3438 2349.7213,1306.3438 Q2350.3463,1306.3438 2350.94,1306.0781 Q2351.5338,1305.7969 2352.1588,1305.2188 L2352.1588,1307.9375 Z " fill="#000000"/><text fill="#000000" font-family="sans-serif" font-size="14" lengthAdjust="spacing" textLength="41.6992" x="2363.19" y="1307.1436">Brand</text><line style="stroke:#181818;stroke-width:0.5;" x1="2335.19" x2="2406.8892" y1="1318.2969" y2="1318.2969"/><line style="stroke:#181818;stroke-width:0.5;" x1="2335.19" x2="2406.8892" y1="1326.2969" y2="1326.2969"/></g><!--class Category--><g class="entity" data-entity="Category" data-source-line="34" data-uid="ent0024" id="entity_Category"><rect fill="#F1F1F1" height="48" rx="2.5" ry="2.5" style="stroke:#181818;stroke-width:0.5;" width="95.9502" x="2323.07" y="1203.2969"/><ellipse cx="2338.07" cy="1219.2969" fill="#ADD1B2" rx="11" ry="11" style="stroke:#181818;stroke-width:1;"/><path d="M2341.0388,1224.9375 Q2340.4606,1225.2344 2339.82,1225.375 Q2339.1794,1225.5313 2338.4763,1225.5313 Q2335.9763,1225.5313 2334.6481,1223.8906 Q2333.3356,1222.2344 2333.3356,1219.1094 Q2333.3356,1215.9844 2334.6481,1214.3281 Q2335.9763,1212.6719 2338.4763,1212.6719 Q2339.1794,1212.6719 2339.82,1212.8281 Q2340.4763,1212.9844 2341.0388,1213.2813 L2341.0388,1216 Q2340.4138,1215.4219 2339.82,1215.1563 Q2339.2263,1214.875 2338.6013,1214.875 Q2337.2575,1214.875 2336.57,1215.9531 Q2335.8825,1217.0156 2335.8825,1219.1094 Q2335.8825,1221.2031 2336.57,1222.2813 Q2337.2575,1223.3438 2338.6013,1223.3438 Q2339.2263,1223.3438 2339.82,1223.0781 Q2340.4138,1222.7969 2341.0388,1222.2188 L2341.0388,1224.9375 Z " fill="#000000"/><text fill="#000000" font-family="sans-serif" font-size="14" lengthAdjust="spacing" textLength="63.9502" x="2352.07" y="1224.1436">Category</text><line style="stroke:#181818;stroke-width:0.5;" x1="2324.07" x2="2418.0202" y1="1235.2969" y2="1235.2969"/><line style="stroke:#181818;stroke-width:0.5;" x1="2324.07" x2="2418.0202" y1="1243.2969" y2="1243.2969"/></g><!--class Candy--><g class="entity" data-entity="Candy" data-source-line="36" data-uid="ent0025" id="entity_Candy"><rect fill="#F1F1F1" height="48" rx="2.5" ry="2.5" style="stroke:#181818;stroke-width:0.5;" width="76.3994" x="2332.84" y="1120.2969"/><ellipse cx="2347.84" cy="1136.2969" fill="#ADD1B2" rx="11" ry="11" style="stroke:#181818;stroke-width:1;"/><path d="M2350.8088,1141.9375 Q2350.2306,1142.2344 2349.59,1142.375 Q2348.9494,1142.5313 2348.2463,1142.5313 Q2345.7463,1142.5313 2344.4181,1140.8906 Q2343.1056,1139.2344 2343.1056,1136.1094 Q2343.1056,1132.9844 2344.4181,1131.3281 Q2345.7463,1129.6719 2348.2463,1129.6719 Q2348.9494,1129.6719 2349.59,1129.8281 Q2350.2463,1129.9844 2350.8088,1130.2813 L2350.8088,1133 Q2350.1838,1132.4219 2349.59,1132.1563 Q2348.9963,1131.875 2348.3713,1131.875 Q2347.0275,1131.875 2346.34,1132.9531 Q2345.6525,1134.0156 2345.6525,1136.1094 Q2345.6525,1138.2031 2346.34,1139.2813 Q2347.0275,1140.3438 2348.3713,1140.3438 Q2348.9963,1140.3438 2349.59,1140.0781 Q2350.1838,1139.7969 2350.8088,1139.2188 L2350.8088,1141.9375 Z " fill="#000000"/><text fill="#000000" font-family="sans-serif" font-size="14" lengthAdjust="spacing" textLength="44.3994" x="2361.84" y="1141.1436">Candy</text><line style="stroke:#181818;stroke-width:0.5;" x1="2333.84" x2="2408.2394" y1="1152.2969" y2="1152.2969"/><line style="stroke:#181818;stroke-width:0.5;" x1="2333.84" x2="2408.2394" y1="1160.2969" y2="1160.2969"/></g><!--class User--><g class="entity" data-entity="User" data-source-line="38" data-uid="ent0026" id="entity_User"><rect fill="#F1F1F1" height="48" rx="2.5" ry="2.5" style="stroke:#181818;stroke-width:0.5;" width="63.9102" x="2699.44" y="1286.2969"/><ellipse cx="2714.44" cy="1302.2969" fill="#ADD1B2" rx="11" ry="11" style="stroke:#181818;stroke-width:1;"/><path d="M2717.4088,1307.9375 Q2716.8306,1308.2344 2716.19,1308.375 Q2715.5494,1308.5313 2714.8463,1308.5313 Q2712.3463,1308.5313 2711.0181,1306.8906 Q2709.7056,1305.2344 2709.7056,1302.1094 Q2709.7056,1298.9844 2711.0181,1297.3281 Q2712.3463,1295.6719 2714.8463,1295.6719 Q2715.5494,1295.6719 2716.19,1295.8281 Q2716.8463,1295.9844 2717.4088,1296.2813 L2717.4088,1299 Q2716.7838,1298.4219 2716.19,1298.1563 Q2715.5963,1297.875 2714.9713,1297.875 Q2713.6275,1297.875 2712.94,1298.9531 Q2712.2525,1300.0156 2712.2525,1302.1094 Q2712.2525,1304.2031 2712.94,1305.2813 Q2713.6275,1306.3438 2714.9713,1306.3438 Q2715.5963,1306.3438 2716.19,1306.0781 Q2716.7838,1305.7969 2717.4088,1305.2188 L2717.4088,1307.9375 Z " fill="#000000"/><text fill="#000000" font-family="sans-serif" font-size="14" lengthAdjust="spacing" textLength="31.9102" x="2728.44" y="1307.1436">User</text><line style="stroke:#181818;stroke-width:0.5;" x1="2700.44" x2="2762.3502" y1="1318.2969" y2="1318.2969"/><line style="stroke:#181818;stroke-width:0.5;" x1="2700.44" x2="2762.3502" y1="1326.2969" y2="1326.2969"/></g><!--class Order--><g class="entity" data-entity="Order" data-source-line="40" data-uid="ent0027" id="entity_Order"><rect fill="#F1F1F1" height="48" rx="2.5" ry="2.5" style="stroke:#181818;stroke-width:0.5;" width="72.0313" x="2695.38" y="1203.2969"/><ellipse cx="2710.38" cy="1219.2969" fill="#ADD1B2" rx="11" ry="11" style="stroke:#181818;stroke-width:1;"/><path d="M2713.3488,1224.9375 Q2712.7706,1225.2344 2712.13,1225.375 Q2711.4894,1225.5313 2710.7863,1225.5313 Q2708.2863,1225.5313 2706.9581,1223.8906 Q2705.6456,1222.2344 2705.6456,1219.1094 Q2705.6456,1215.9844 2706.9581,1214.3281 Q2708.2863,1212.6719 2710.7863,1212.6719 Q2711.4894,1212.6719 2712.13,1212.8281 Q2712.7863,1212.9844 2713.3488,1213.2813 L2713.3488,1216 Q2712.7238,1215.4219 2712.13,1215.1563 Q2711.5363,1214.875 2710.9113,1214.875 Q2709.5675,1214.875 2708.88,1215.9531 Q2708.1925,1217.0156 2708.1925,1219.1094 Q2708.1925,1221.2031 2708.88,1222.2813 Q2709.5675,1223.3438 2710.9113,1223.3438 Q2711.5363,1223.3438 2712.13,1223.0781 Q2712.7238,1222.7969 2713.3488,1222.2188 L2713.3488,1224.9375 Z " fill="#000000"/><text fill="#000000" font-family="sans-serif" font-size="14" lengthAdjust="spacing" textLength="40.0313" x="2724.38" y="1224.1436">Order</text><line style="stroke:#181818;stroke-width:0.5;" x1="2696.38" x2="2766.4113" y1="1235.2969" y2="1235.2969"/><line style="stroke:#181818;stroke-width:0.5;" x1="2696.38" x2="2766.4113" y1="1243.2969" y2="1243.2969"/></g><!--class ICandyService--><g class="entity" data-entity="ICandyService" data-source-line="46" data-uid="ent0029" id="entity_ICandyService"><rect fill="#F1F1F1" height="145.7813" rx="2.5" ry="2.5" style="stroke:#181818;stroke-width:0.5;" width="723.7988" x="94" y="2090.4069"/><ellipse cx="401.5146" cy="2106.4069" fill="#B4A7E5" rx="11" ry="11" style="stroke:#181818;stroke-width:1;"/><path d="M397.4365,2102.1725 L397.4365,2100.0163 L404.8271,2100.0163 L404.8271,2102.1725 L402.3584,2102.1725 L402.3584,2110.2506 L404.8271,2110.2506 L404.8271,2112.4069 L397.4365,2112.4069 L397.4365,2110.2506 L399.9053,2110.2506 L399.9053,2102.1725 L397.4365,2102.1725 Z " fill="#000000"/><text fill="#000000" font-family="sans-serif" font-size="14" font-style="italic" lengthAdjust="spacing" textLength="100.2695" x="422.0146" y="2111.2536">ICandyService</text><line style="stroke:#181818;stroke-width:0.5;" x1="95" x2="816.7988" y1="2122.4069" y2="2122.4069"/><line style="stroke:#181818;stroke-width:0.5;" x1="95" x2="816.7988" y1="2130.4069" y2="2130.4069"/><ellipse cx="105" cy="2144.0553" fill="#84BE84" rx="3" ry="3" style="stroke:#038048;stroke-width:1;"/><text fill="#000000" font-family="sans-serif" font-size="14" lengthAdjust="spacing" textLength="526.8252" x="114" y="2147.402">Task&lt;IEnumerable&lt;CandyResponseDto&gt;&gt; GetAllCandiesAsync(int userId)</text><ellipse cx="105" cy="2160.3522" fill="#84BE84" rx="3" ry="3" style="stroke:#038048;stroke-width:1;"/><text fill="#000000" font-family="sans-serif" font-size="14" lengthAdjust="spacing" textLength="461.084" x="114" y="2163.6989">Task&lt;CandyResponseDto&gt; GetCandyByIdAsync(int id, int userId)</text><ellipse cx="105" cy="2176.6491" fill="#84BE84" rx="3" ry="3" style="stroke:#038048;stroke-width:1;"/><text fill="#000000" font-family="sans-serif" font-size="14" lengthAdjust="spacing" textLength="547.6338" x="114" y="2179.9957">Task&lt;CandyResponseDto&gt; AddCandyAsync(AddCandyRequestDto candyDto)</text><ellipse cx="105" cy="2192.9459" fill="#84BE84" rx="3" ry="3" style="stroke:#038048;stroke-width:1;"/><text fill="#000000" font-family="sans-serif" font-size="14" lengthAdjust="spacing" textLength="478.1533" x="114" y="2196.2926">Task UpdateCandyAsync(int id, UpdateCandyRequestDto candyDto)</text><ellipse cx="105" cy="2209.2428" fill="#84BE84" rx="3" ry="3" style="stroke:#038048;stroke-width:1;"/><text fill="#000000" font-family="sans-serif" font-size="14" lengthAdjust="spacing" textLength="215.5098" x="114" y="2212.5895">Task DeleteCandyAsync(int id)</text><ellipse cx="105" cy="2225.5397" fill="#84BE84" rx="3" ry="3" style="stroke:#038048;stroke-width:1;"/><text fill="#000000" font-family="sans-serif" font-size="14" lengthAdjust="spacing" textLength="697.7988" x="114" y="2228.8864">Task&lt;IEnumerable&lt;CandyResponseDto&gt;&gt; GetCandiesByCategoryAsync(int categoryId, int userId)</text></g><!--class CandyService--><g class="entity" data-entity="CandyService" data-source-line="55" data-uid="ent0031" id="entity_CandyService"><rect fill="#F1F1F1" height="64.2969" rx="2.5" ry="2.5" style="stroke:#181818;stroke-width:0.5;" width="1137.9131" x="878.8" y="2008.1469"/><ellipse cx="1395.4362" cy="2024.1469" fill="#ADD1B2" rx="11" ry="11" style="stroke:#181818;stroke-width:1;"/><path d="M1398.405,2029.7875 Q1397.8269,2030.0844 1397.1862,2030.225 Q1396.5456,2030.3813 1395.8425,2030.3813 Q1393.3425,2030.3813 1392.0144,2028.7406 Q1390.7019,2027.0844 1390.7019,2023.9594 Q1390.7019,2020.8344 1392.0144,2019.1781 Q1393.3425,2017.5219 1395.8425,2017.5219 Q1396.5456,2017.5219 1397.1862,2017.6781 Q1397.8425,2017.8344 1398.405,2018.1313 L1398.405,2020.85 Q1397.78,2020.2719 1397.1862,2020.0063 Q1396.5925,2019.725 1395.9675,2019.725 Q1394.6237,2019.725 1393.9362,2020.8031 Q1393.2487,2021.8656 1393.2487,2023.9594 Q1393.2487,2026.0531 1393.9362,2027.1313 Q1394.6237,2028.1938 1395.9675,2028.1938 Q1396.5925,2028.1938 1397.1862,2027.9281 Q1397.78,2027.6469 1398.405,2027.0688 L1398.405,2029.7875 Z " fill="#000000"/><text fill="#000000" font-family="sans-serif" font-size="14" lengthAdjust="spacing" textLength="96.1406" x="1415.9362" y="2028.9936">CandyService</text><line style="stroke:#181818;stroke-width:0.5;" x1="879.8" x2="2015.7131" y1="2040.1469" y2="2040.1469"/><line style="stroke:#181818;stroke-width:0.5;" x1="879.8" x2="2015.7131" y1="2048.1469" y2="2048.1469"/><ellipse cx="889.8" cy="2061.7953" fill="#84BE84" rx="3" ry="3" style="stroke:#038048;stroke-width:1;"/><text fill="#000000" font-family="sans-serif" font-size="14" lengthAdjust="spacing" textLength="1111.9131" x="898.8" y="2065.142">CandyService(ICandyRepository candyRepository, IRepository&lt;Brand&gt; brandRepository, IRepository&lt;Category&gt; categoryRepository, ITaxService taxService)</text></g><!--class IUserService--><g class="entity" data-entity="IUserService" data-source-line="69" data-uid="ent0040" id="entity_IUserService"><rect fill="#F1F1F1" height="145.7813" rx="2.5" ry="2.5" style="stroke:#181818;stroke-width:0.5;" width="610.7461" x="150.53" y="1909.4069"/><ellipse cx="407.7629" cy="1925.4069" fill="#B4A7E5" rx="11" ry="11" style="stroke:#181818;stroke-width:1;"/><path d="M403.6848,1921.1725 L403.6848,1919.0163 L411.0754,1919.0163 L411.0754,1921.1725 L408.6067,1921.1725 L408.6067,1929.2506 L411.0754,1929.2506 L411.0754,1931.4069 L403.6848,1931.4069 L403.6848,1929.2506 L406.1535,1929.2506 L406.1535,1921.1725 L403.6848,1921.1725 Z " fill="#000000"/><text fill="#000000" font-family="sans-serif" font-size="14" font-style="italic" lengthAdjust="spacing" textLength="87.7803" x="428.2629" y="1930.2536">IUserService</text><line style="stroke:#181818;stroke-width:0.5;" x1="151.53" x2="760.2761" y1="1941.4069" y2="1941.4069"/><line style="stroke:#181818;stroke-width:0.5;" x1="151.53" x2="760.2761" y1="1949.4069" y2="1949.4069"/><ellipse cx="161.53" cy="1963.0553" fill="#84BE84" rx="3" ry="3" style="stroke:#038048;stroke-width:1;"/><text fill="#000000" font-family="sans-serif" font-size="14" lengthAdjust="spacing" textLength="495.4756" x="170.53" y="1966.402">Task&lt;AuthResponseDto&gt; RegisterAsync(RegisterUserDto registerDto)</text><ellipse cx="161.53" cy="1979.3522" fill="#84BE84" rx="3" ry="3" style="stroke:#038048;stroke-width:1;"/><text fill="#000000" font-family="sans-serif" font-size="14" lengthAdjust="spacing" textLength="460.3594" x="170.53" y="1982.6989">Task&lt;AuthResponseDto&gt; LoginAsync(LoginRequestDto loginDto)</text><ellipse cx="161.53" cy="1995.6491" fill="#84BE84" rx="3" ry="3" style="stroke:#038048;stroke-width:1;"/><text fill="#000000" font-family="sans-serif" font-size="14" lengthAdjust="spacing" textLength="413.957" x="170.53" y="1998.9957">Task&lt;UserResponseDto&gt; GetCurrentUserAsync(int userId)</text><ellipse cx="161.53" cy="2011.9459" fill="#84BE84" rx="3" ry="3" style="stroke:#038048;stroke-width:1;"/><text fill="#000000" font-family="sans-serif" font-size="14" lengthAdjust="spacing" textLength="477.5449" x="170.53" y="2015.2926">Task UpdateUserProfileAsync(int userId, UpdateUserDto updateDto)</text><ellipse cx="161.53" cy="2028.2428" fill="#84BE84" rx="3" ry="3" style="stroke:#038048;stroke-width:1;"/><text fill="#000000" font-family="sans-serif" font-size="14" lengthAdjust="spacing" textLength="584.7461" x="170.53" y="2031.5895">Task&lt;IEnumerable&lt;OrderHistoryItemDto&gt;&gt; GetUserOrderHistoryAsync(int userId)</text><ellipse cx="161.53" cy="2044.5397" fill="#84BE84" rx="3" ry="3" style="stroke:#038048;stroke-width:1;"/><text fill="#000000" font-family="sans-serif" font-size="14" lengthAdjust="spacing" textLength="401.1943" x="170.53" y="2047.8864">Task UpdateUserCountryAsync(int userId, string country)</text></g><!--class UserService--><g class="entity" data-entity="UserService" data-source-line="78" data-uid="ent0041" id="entity_UserService"><rect fill="#F1F1F1" height="64.2969" rx="2.5" ry="2.5" style="stroke:#181818;stroke-width:0.5;" width="504.6045" x="1195.45" y="1909.1469"/><ellipse cx="1401.6766" cy="1925.1469" fill="#ADD1B2" rx="11" ry="11" style="stroke:#181818;stroke-width:1;"/><path d="M1404.6453,1930.7875 Q1404.0672,1931.0844 1403.4266,1931.225 Q1402.7859,1931.3813 1402.0828,1931.3813 Q1399.5828,1931.3813 1398.2547,1929.7406 Q1396.9422,1928.0844 1396.9422,1924.9594 Q1396.9422,1921.8344 1398.2547,1920.1781 Q1399.5828,1918.5219 1402.0828,1918.5219 Q1402.7859,1918.5219 1403.4266,1918.6781 Q1404.0828,1918.8344 1404.6453,1919.1313 L1404.6453,1921.85 Q1404.0203,1921.2719 1403.4266,1921.0063 Q1402.8328,1920.725 1402.2078,1920.725 Q1400.8641,1920.725 1400.1766,1921.8031 Q1399.4891,1922.8656 1399.4891,1924.9594 Q1399.4891,1927.0531 1400.1766,1928.1313 Q1400.8641,1929.1938 1402.2078,1929.1938 Q1402.8328,1929.1938 1403.4266,1928.9281 Q1404.0203,1928.6469 1404.6453,1928.0688 L1404.6453,1930.7875 Z " fill="#000000"/><text fill="#000000" font-family="sans-serif" font-size="14" lengthAdjust="spacing" textLength="83.6514" x="1422.1766" y="1929.9936">UserService</text><line style="stroke:#181818;stroke-width:0.5;" x1="1196.45" x2="1699.0545" y1="1941.1469" y2="1941.1469"/><line style="stroke:#181818;stroke-width:0.5;" x1="1196.45" x2="1699.0545" y1="1949.1469" y2="1949.1469"/><ellipse cx="1206.45" cy="1962.7953" fill="#84BE84" rx="3" ry="3" style="stroke:#038048;stroke-width:1;"/><text fill="#000000" font-family="sans-serif" font-size="14" lengthAdjust="spacing" textLength="478.6045" x="1215.45" y="1966.142">UserService(IUserRepository userRepository, IJwtService jwtService)</text></g><!--class IUserRepository--><g class="entity" data-entity="IUserRepository" data-source-line="84" data-uid="ent0044" id="entity_IUserRepository"><rect fill="#F1F1F1" height="48" rx="2.5" ry="2.5" style="stroke:#181818;stroke-width:0.5;" width="143.1113" x="2299.49" y="2074.2969"/><ellipse cx="2314.49" cy="2090.2969" fill="#ADD1B2" rx="11" ry="11" style="stroke:#181818;stroke-width:1;"/><path d="M2317.4588,2095.9375 Q2316.8806,2096.2344 2316.24,2096.375 Q2315.5994,2096.5313 2314.8963,2096.5313 Q2312.3963,2096.5313 2311.0681,2094.8906 Q2309.7556,2093.2344 2309.7556,2090.1094 Q2309.7556,2086.9844 2311.0681,2085.3281 Q2312.3963,2083.6719 2314.8963,2083.6719 Q2315.5994,2083.6719 2316.24,2083.8281 Q2316.8963,2083.9844 2317.4588,2084.2813 L2317.4588,2087 Q2316.8338,2086.4219 2316.24,2086.1563 Q2315.6463,2085.875 2315.0213,2085.875 Q2313.6775,2085.875 2312.99,2086.9531 Q2312.3025,2088.0156 2312.3025,2090.1094 Q2312.3025,2092.2031 2312.99,2093.2813 Q2313.6775,2094.3438 2315.0213,2094.3438 Q2315.6463,2094.3438 2316.24,2094.0781 Q2316.8338,2093.7969 2317.4588,2093.2188 L2317.4588,2095.9375 Z " fill="#000000"/><text fill="#000000" font-family="sans-serif" font-size="14" lengthAdjust="spacing" textLength="111.1113" x="2328.49" y="2095.1436">IUserRepository</text><line style="stroke:#181818;stroke-width:0.5;" x1="2300.49" x2="2441.6013" y1="2106.2969" y2="2106.2969"/><line style="stroke:#181818;stroke-width:0.5;" x1="2300.49" x2="2441.6013" y1="2114.2969" y2="2114.2969"/></g><!--class IOrderService--><g class="entity" data-entity="IOrderService" data-source-line="94" data-uid="ent0053" id="entity_IOrderService"><rect fill="#F1F1F1" height="96.8906" rx="2.5" ry="2.5" style="stroke:#181818;stroke-width:0.5;" width="650.6816" x="130.56" y="2270.8469"/><ellipse cx="403.7001" cy="2286.8469" fill="#B4A7E5" rx="11" ry="11" style="stroke:#181818;stroke-width:1;"/><path d="M399.622,2282.6125 L399.622,2280.4563 L407.0126,2280.4563 L407.0126,2282.6125 L404.5439,2282.6125 L404.5439,2290.6906 L407.0126,2290.6906 L407.0126,2292.8469 L399.622,2292.8469 L399.622,2290.6906 L402.0908,2290.6906 L402.0908,2282.6125 L399.622,2282.6125 Z " fill="#000000"/><text fill="#000000" font-family="sans-serif" font-size="14" font-style="italic" lengthAdjust="spacing" textLength="95.9014" x="424.2001" y="2291.6936">IOrderService</text><line style="stroke:#181818;stroke-width:0.5;" x1="131.56" x2="780.2416" y1="2302.8469" y2="2302.8469"/><line style="stroke:#181818;stroke-width:0.5;" x1="131.56" x2="780.2416" y1="2310.8469" y2="2310.8469"/><ellipse cx="141.56" cy="2324.4953" fill="#84BE84" rx="3" ry="3" style="stroke:#038048;stroke-width:1;"/><text fill="#000000" font-family="sans-serif" font-size="14" lengthAdjust="spacing" textLength="624.6816" x="150.56" y="2327.842">Task&lt;OrderResponseDto&gt; PlaceOrderAsync(PlaceOrderRequestDto orderDto, int userId)</text><ellipse cx="141.56" cy="2340.7922" fill="#84BE84" rx="3" ry="3" style="stroke:#038048;stroke-width:1;"/><text fill="#000000" font-family="sans-serif" font-size="14" lengthAdjust="spacing" textLength="528.4248" x="150.56" y="2344.1389">Task&lt;IEnumerable&lt;OrderResponseDto&gt;&gt; GetUserOrdersAsync(int userId)</text><ellipse cx="141.56" cy="2357.0891" fill="#84BE84" rx="3" ry="3" style="stroke:#038048;stroke-width:1;"/><text fill="#000000" font-family="sans-serif" font-size="14" lengthAdjust="spacing" textLength="425.3594" x="150.56" y="2360.4357">Task UpdateOrderStatusAsync(int orderId, string newStatus)</text></g><!--class OrderService--><g class="entity" data-entity="OrderService" data-source-line="100" data-uid="ent0054" id="entity_OrderService"><rect fill="#F1F1F1" height="64.2969" rx="2.5" ry="2.5" style="stroke:#181818;stroke-width:0.5;" width="1018.1748" x="938.67" y="2107.1469"/><ellipse cx="1397.6212" cy="2123.1469" fill="#ADD1B2" rx="11" ry="11" style="stroke:#181818;stroke-width:1;"/><path d="M1400.5899,2128.7875 Q1400.0118,2129.0844 1399.3712,2129.225 Q1398.7305,2129.3813 1398.0274,2129.3813 Q1395.5274,2129.3813 1394.1993,2127.7406 Q1392.8868,2126.0844 1392.8868,2122.9594 Q1392.8868,2119.8344 1394.1993,2118.1781 Q1395.5274,2116.5219 1398.0274,2116.5219 Q1398.7305,2116.5219 1399.3712,2116.6781 Q1400.0274,2116.8344 1400.5899,2117.1313 L1400.5899,2119.85 Q1399.9649,2119.2719 1399.3712,2119.0063 Q1398.7774,2118.725 1398.1524,2118.725 Q1396.8087,2118.725 1396.1212,2119.8031 Q1395.4337,2120.8656 1395.4337,2122.9594 Q1395.4337,2125.0531 1396.1212,2126.1313 Q1396.8087,2127.1938 1398.1524,2127.1938 Q1398.7774,2127.1938 1399.3712,2126.9281 Q1399.9649,2126.6469 1400.5899,2126.0688 L1400.5899,2128.7875 Z " fill="#000000"/><text fill="#000000" font-family="sans-serif" font-size="14" lengthAdjust="spacing" textLength="91.7725" x="1418.1212" y="2127.9936">OrderService</text><line style="stroke:#181818;stroke-width:0.5;" x1="939.67" x2="1955.8448" y1="2139.1469" y2="2139.1469"/><line style="stroke:#181818;stroke-width:0.5;" x1="939.67" x2="1955.8448" y1="2147.1469" y2="2147.1469"/><ellipse cx="949.67" cy="2160.7953" fill="#84BE84" rx="3" ry="3" style="stroke:#038048;stroke-width:1;"/><text fill="#000000" font-family="sans-serif" font-size="14" lengthAdjust="spacing" textLength="992.1748" x="958.67" y="2164.142">OrderService(IOrderRepository orderRepository, ICandyRepository candyRepository, IUserRepository userRepository, ITaxService taxService)</text></g><!--class IOrderRepository--><g class="entity" data-entity="IOrderRepository" data-source-line="106" data-uid="ent0057" id="entity_IOrderRepository"><rect fill="#F1F1F1" height="48" rx="2.5" ry="2.5" style="stroke:#181818;stroke-width:0.5;" width="151.2324" x="2295.43" y="2172.2969"/><ellipse cx="2310.43" cy="2188.2969" fill="#ADD1B2" rx="11" ry="11" style="stroke:#181818;stroke-width:1;"/><path d="M2313.3988,2193.9375 Q2312.8206,2194.2344 2312.18,2194.375 Q2311.5394,2194.5313 2310.8363,2194.5313 Q2308.3363,2194.5313 2307.0081,2192.8906 Q2305.6956,2191.2344 2305.6956,2188.1094 Q2305.6956,2184.9844 2307.0081,2183.3281 Q2308.3363,2181.6719 2310.8363,2181.6719 Q2311.5394,2181.6719 2312.18,2181.8281 Q2312.8363,2181.9844 2313.3988,2182.2813 L2313.3988,2185 Q2312.7738,2184.4219 2312.18,2184.1563 Q2311.5863,2183.875 2310.9613,2183.875 Q2309.6175,2183.875 2308.93,2184.9531 Q2308.2425,2186.0156 2308.2425,2188.1094 Q2308.2425,2190.2031 2308.93,2191.2813 Q2309.6175,2192.3438 2310.9613,2192.3438 Q2311.5863,2192.3438 2312.18,2192.0781 Q2312.7738,2191.7969 2313.3988,2191.2188 L2313.3988,2193.9375 Z " fill="#000000"/><text fill="#000000" font-family="sans-serif" font-size="14" lengthAdjust="spacing" textLength="119.2324" x="2324.43" y="2193.1436">IOrderRepository</text><line style="stroke:#181818;stroke-width:0.5;" x1="2296.43" x2="2445.6624" y1="2204.2969" y2="2204.2969"/><line style="stroke:#181818;stroke-width:0.5;" x1="2296.43" x2="2445.6624" y1="2212.2969" y2="2212.2969"/></g><!--reverse link ICandyService to CandyService--><g class="link" data-entity-1="ICandyService" data-entity-2="CandyService" data-source-line="60" data-uid="lnk33" id="link_ICandyService_CandyService"><path codeLine="60" d="M836.0049,2095.144 C856.4849,2092.104 858.98,2091.8869 878.8,2089.2969 C924.8,2083.2869 973,2077.8369 1021.04,2072.9469" fill="none" id="ICandyService-backto-CandyService" style="stroke:#181818;stroke-width:1;stroke-dasharray:7.0,7.0;"/><polygon fill="none" points="818.2,2097.7869,836.8859,2101.0789,835.1239,2089.209,818.2,2097.7869" style="stroke:#181818;stroke-width:1;"/></g><!--link CandyService to ICandyRepository--><g class="link" data-entity-1="CandyService" data-entity-2="ICandyRepository" data-source-line="61" data-uid="lnk34" id="link_CandyService_ICandyRepository"><path codeLine="61" d="M1589.51,2072.9069 C1718.56,2093.6869 1905.92,2099.3569 2016.71,1991.2969 C2059.77,1949.2969 2022.68,1777.4369 2046.71,1722.2969 C2055.15,1702.9369 2068.04,1705.0669 2077.71,1686.2969 C2103.3,1636.6669 2072.51,1607.6369 2107.71,1564.2969 C2134.79,1530.9569 2167.3941,1508.47 2206.1041,1489.83" fill="none" id="CandyService-to-ICandyRepository" style="stroke:#181818;stroke-width:1;stroke-dasharray:7.0,7.0;"/><polygon fill="#181818" points="2211.51,1487.2269,2201.6657,1487.5276,2207.0051,1489.3961,2205.1365,1494.7355,2211.51,1487.2269" style="stroke:#181818;stroke-width:1;"/><text fill="#000000" font-family="sans-serif" font-size="13" lengthAdjust="spacing" textLength="29.7832" x="2047.71" y="1682.3638">uses</text></g><!--link CandyService to IRepository--><g class="link" data-entity-1="CandyService" data-entity-2="IRepository" data-source-line="62" data-uid="lnk35" id="link_CandyService_IRepository"><path codeLine="62" d="M1601.9,2072.9169 C1728.87,2090.3569 1905.91,2091.0269 2016.71,1991.2969 C2068.87,1944.3569 1995.8,1884.5869 2046.71,1836.2969 C2116.82,1769.7969 2231.0141,1771.1908 2303.4441,1780.0208" fill="none" id="CandyService-to-IRepository" style="stroke:#181818;stroke-width:1;stroke-dasharray:7.0,7.0;"/><polygon fill="#181818" points="2309.4,1780.7469,2300.9502,1775.6871,2304.4367,1780.1418,2299.9821,1783.6283,2309.4,1780.7469" style="stroke:#181818;stroke-width:1;"/><text fill="#000000" font-family="sans-serif" font-size="13" lengthAdjust="spacing" textLength="29.7832" x="2047.71" y="1811.3638">uses</text></g><!--link CandyService to ITaxService--><g class="link" data-entity-1="CandyService" data-entity-2="ITaxService" data-source-line="63" data-uid="lnk36" id="link_CandyService_ITaxService"><path codeLine="63" d="M1593.76,2072.9269 C1722.1,2092.5169 1905.77,2096.3469 2016.71,1991.2969 C2085.81,1925.8669 2004.89,1864.7769 2046.71,1779.2969 C2055.41,1761.5069 2064.05,1761.6269 2077.71,1747.2969 C2091.16,1733.1869 2090.26,1723.9869 2107.71,1715.2969 C2173.01,1682.7869 2252.5859,1679.6216 2307.9459,1682.0716" fill="none" id="CandyService-to-ITaxService" style="stroke:#181818;stroke-width:1;stroke-dasharray:7.0,7.0;"/><polygon fill="#181818" points="2313.94,1682.3369,2305.1257,1677.9429,2308.9449,1682.1158,2304.772,1685.9351,2313.94,1682.3369" style="stroke:#181818;stroke-width:1;"/><text fill="#000000" font-family="sans-serif" font-size="13" lengthAdjust="spacing" textLength="29.7832" x="2047.71" y="1743.3638">uses</text></g><!--link CandyService to CandyResponseDto--><g class="link" data-entity-1="CandyService" data-entity-2="CandyResponseDto" data-source-line="64" data-uid="lnk37" id="link_CandyService_CandyResponseDto"><path codeLine="64" d="M1584.4,2072.9269 C1714.36,2095.2869 1906.53,2103.4769 2016.71,1991.2969 C2085.39,1921.3769 2006.86,1640.8269 2046.71,1551.2969 C2054.76,1533.2069 2069.91,1537.4969 2077.71,1519.2969 C2110.51,1442.7369 2052.3,832.4769 2107.71,770.2969 C2151.26,721.4269 2221.2189,713.83 2280.2289,717.05" fill="none" id="CandyService-to-CandyResponseDto" style="stroke:#181818;stroke-width:1;stroke-dasharray:7.0,7.0;"/><polygon fill="#181818" points="2286.22,717.3769,2277.4513,712.8924,2281.2274,717.1044,2277.0154,720.8806,2286.22,717.3769" style="stroke:#181818;stroke-width:1;"/><text fill="#000000" font-family="sans-serif" font-size="13" lengthAdjust="spacing" textLength="29.7832" x="2047.71" y="1515.3638">uses</text></g><!--link CandyService to AddCandyRequestDto--><g class="link" data-entity-1="CandyService" data-entity-2="AddCandyRequestDto" data-source-line="65" data-uid="lnk38" id="link_CandyService_AddCandyRequestDto"><path codeLine="65" d="M1587.21,2072.9269 C1716.67,2094.4169 1906.18,2101.2069 2016.71,1991.2969 C2068.3,1939.9969 2018.29,1732.2669 2046.71,1665.2969 C2054.96,1645.8569 2069.94,1648.9269 2077.71,1629.2969 C2106.09,1557.6369 2056.34,993.7569 2107.71,936.2969 C2149.27,889.8169 2214.1337,880.7956 2271.7437,882.8256" fill="none" id="CandyService-to-AddCandyRequestDto" style="stroke:#181818;stroke-width:1;stroke-dasharray:7.0,7.0;"/><polygon fill="#181818" points="2277.74,883.0369,2268.8864,878.7224,2272.7431,882.8608,2268.6047,886.7175,2277.74,883.0369" style="stroke:#181818;stroke-width:1;"/><text fill="#000000" font-family="sans-serif" font-size="13" lengthAdjust="spacing" textLength="29.7832" x="2047.71" y="1625.3638">uses</text></g><!--link CandyService to UpdateCandyRequestDto--><g class="link" data-entity-1="CandyService" data-entity-2="UpdateCandyRequestDto" data-source-line="66" data-uid="lnk39" id="link_CandyService_UpdateCandyRequestDto"><path codeLine="66" d="M1585.38,2072.8969 C1715.14,2094.9169 1906.32,2102.5669 2016.71,1991.2969 C2076.84,1930.6969 2013.9,1687.1069 2046.71,1608.2969 C2054.83,1588.8069 2069.95,1591.9369 2077.71,1572.2969 C2107.1,1497.9369 2054.47,912.9469 2107.71,853.2969 C2146.47,809.8769 2204.8002,799.2691 2260.0502,799.7091" fill="none" id="CandyService-to-UpdateCandyRequestDto" style="stroke:#181818;stroke-width:1;stroke-dasharray:7.0,7.0;"/><polygon fill="#181818" points="2266.05,799.7569,2257.0821,795.6853,2261.0502,799.7171,2257.0184,803.6851,2266.05,799.7569" style="stroke:#181818;stroke-width:1;"/><text fill="#000000" font-family="sans-serif" font-size="13" lengthAdjust="spacing" textLength="29.7832" x="2047.71" y="1568.3638">uses</text></g><!--reverse link IUserService to UserService--><g class="link" data-entity-1="IUserService" data-entity-2="UserService" data-source-line="83" data-uid="lnk43" id="link_IUserService_UserService"><path codeLine="83" d="M779.6146,1968.9318 C918.6546,1963.1718 1063.34,1957.1769 1195.28,1951.7169" fill="none" id="IUserService-backto-UserService" style="stroke:#181818;stroke-width:1;stroke-dasharray:7.0,7.0;"/><polygon fill="none" points="761.63,1969.6769,779.8629,1974.9267,779.3662,1962.937,761.63,1969.6769" style="stroke:#181818;stroke-width:1;"/></g><!--link UserService to IUserRepository--><g class="link" data-entity-1="UserService" data-entity-2="IUserRepository" data-source-line="84" data-uid="lnk45" id="link_UserService_IUserRepository"><path codeLine="84" d="M1629.93,1908.6469 C1751.99,1897.2669 1909.64,1904.5069 2016.71,1990.2969 C2051.27,2017.9869 2011.53,2058.4069 2046.71,2085.2969 C2118.58,2140.2169 2222.0465,2132.3733 2293.3165,2118.1233" fill="none" id="UserService-to-IUserRepository" style="stroke:#181818;stroke-width:1;stroke-dasharray:7.0,7.0;"/><polygon fill="#181818" points="2299.2,2116.9469,2289.5904,2114.7891,2294.297,2117.9272,2291.1589,2122.6338,2299.2,2116.9469" style="stroke:#181818;stroke-width:1;"/><text fill="#000000" font-family="sans-serif" font-size="13" lengthAdjust="spacing" textLength="29.7832" x="2047.71" y="2081.3638">uses</text></g><!--link UserService to IJwtService--><g class="link" data-entity-1="UserService" data-entity-2="IJwtService" data-source-line="85" data-uid="lnk46" id="link_UserService_IJwtService"><path codeLine="85" d="M1477.24,1908.6969 C1556.6,1820.6969 1791.19,1579.2469 2046.71,1494.2969 C2059.79,1489.9469 2066.42,1486.4069 2077.71,1494.2969 C2109.52,1516.5269 2077.13,1552.4069 2107.71,1576.2969 C2167.09,1622.6869 2252.5151,1621.7511 2310.2651,1614.6311" fill="none" id="UserService-to-IJwtService" style="stroke:#181818;stroke-width:1;stroke-dasharray:7.0,7.0;"/><polygon fill="#181818" points="2316.22,1613.8969,2306.7982,1611.0282,2311.2576,1614.5087,2307.7771,1618.9681,2316.22,1613.8969" style="stroke:#181818;stroke-width:1;"/><text fill="#000000" font-family="sans-serif" font-size="13" lengthAdjust="spacing" textLength="29.7832" x="2047.71" y="1486.3638">uses</text></g><!--link UserService to RegisterUserDto--><g class="link" data-entity-1="UserService" data-entity-2="RegisterUserDto" data-source-line="86" data-uid="lnk47" id="link_UserService_RegisterUserDto"><path codeLine="86" d="M1459.26,1908.7669 C1511.02,1750.4369 1748.5,1046.7769 2046.71,521.2969 C2069.31,481.4769 2068.59,462.0669 2107.71,438.2969 C2164.83,403.5869 2235.4108,395.1428 2291.0708,394.2528" fill="none" id="UserService-to-RegisterUserDto" style="stroke:#181818;stroke-width:1;stroke-dasharray:7.0,7.0;"/><polygon fill="#181818" points="2297.07,394.1569,2288.0072,390.3013,2292.0706,394.2368,2288.1351,398.3003,2297.07,394.1569" style="stroke:#181818;stroke-width:1;"/><text fill="#000000" font-family="sans-serif" font-size="13" lengthAdjust="spacing" textLength="29.7832" x="2047.71" y="461.3638">uses</text></g><!--link UserService to LoginRequestDto--><g class="link" data-entity-1="UserService" data-entity-2="LoginRequestDto" data-source-line="87" data-uid="lnk48" id="link_UserService_LoginRequestDto"><path codeLine="87" d="M1458.43,1908.8369 C1507.81,1745.3869 1741.33,998.2469 2046.71,440.2969 C2069.04,399.5069 2068.11,379.6669 2107.71,355.2969 C2163.85,320.7469 2233.131,312.1139 2288.641,311.1239" fill="none" id="UserService-to-LoginRequestDto" style="stroke:#181818;stroke-width:1;stroke-dasharray:7.0,7.0;"/><polygon fill="#181818" points="2294.64,311.0169,2285.5701,307.178,2289.6408,311.106,2285.7128,315.1767,2294.64,311.0169" style="stroke:#181818;stroke-width:1;"/><text fill="#000000" font-family="sans-serif" font-size="13" lengthAdjust="spacing" textLength="29.7832" x="2047.71" y="379.3638">uses</text></g><!--link UserService to AuthResponseDto--><g class="link" data-entity-1="UserService" data-entity-2="AuthResponseDto" data-source-line="88" data-uid="lnk49" id="link_UserService_AuthResponseDto"><path codeLine="88" d="M1457.66,1908.7469 C1504.57,1739.8169 1732.73,948.2969 2046.71,358.2969 C2068.73,316.9269 2067.87,296.9669 2107.71,272.2969 C2162.87,238.1369 2230.6813,229.2739 2285.9513,228.1039" fill="none" id="UserService-to-AuthResponseDto" style="stroke:#181818;stroke-width:1;stroke-dasharray:7.0,7.0;"/><polygon fill="#181818" points="2291.95,227.9769,2282.8674,224.1682,2286.9511,228.0827,2283.0367,232.1665,2291.95,227.9769" style="stroke:#181818;stroke-width:1;"/><text fill="#000000" font-family="sans-serif" font-size="13" lengthAdjust="spacing" textLength="29.7832" x="2047.71" y="295.3638">uses</text></g><!--link UserService to UserResponseDto--><g class="link" data-entity-1="UserService" data-entity-2="UserResponseDto" data-source-line="89" data-uid="lnk50" id="link_UserService_UserResponseDto"><path codeLine="89" d="M1471.91,1908.8269 C1563.39,1779.0269 1903.11,1282.3169 2077.71,824.2969 C2099.91,766.0569 2062.32,730.0169 2107.71,687.2969 C2156.38,641.4869 2228.0854,634.1616 2286.3154,636.6416" fill="none" id="UserService-to-UserResponseDto" style="stroke:#181818;stroke-width:1;stroke-dasharray:7.0,7.0;"/><polygon fill="#181818" points="2292.31,636.8969,2283.4884,632.5175,2287.3145,636.6841,2283.1479,640.5103,2292.31,636.8969" style="stroke:#181818;stroke-width:1;"/><text fill="#000000" font-family="sans-serif" font-size="13" lengthAdjust="spacing" textLength="29.7832" x="2047.71" y="820.3638">uses</text></g><!--link UserService to UpdateUserDto--><g class="link" data-entity-1="UserService" data-entity-2="UpdateUserDto" data-source-line="90" data-uid="lnk51" id="link_UserService_UpdateUserDto"><path codeLine="90" d="M1464.49,1908.8669 C1563.11,1705.6169 2092.59,615.4169 2107.71,604.2969 C2163.42,563.3369 2237.9113,556.1819 2295.0113,557.3719" fill="none" id="UserService-to-UpdateUserDto" style="stroke:#181818;stroke-width:1;stroke-dasharray:7.0,7.0;"/><polygon fill="#181818" points="2301.01,557.4969,2292.0953,553.3102,2296.0111,557.3927,2291.9286,561.3085,2301.01,557.4969" style="stroke:#181818;stroke-width:1;"/><text fill="#000000" font-family="sans-serif" font-size="13" lengthAdjust="spacing" textLength="29.7832" x="2047.71" y="657.3638">uses</text></g><!--link UserService to OrderHistoryItemDto--><g class="link" data-entity-1="UserService" data-entity-2="OrderHistoryItemDto" data-source-line="91" data-uid="lnk52" id="link_UserService_OrderHistoryItemDto"><path codeLine="91" d="M1452.35,1908.7169 C1473.78,1731.8869 1601.39,882.0469 2107.71,521.2969 C2157.74,485.6569 2220.7611,476.122 2275.4511,475.072" fill="none" id="UserService-to-OrderHistoryItemDto" style="stroke:#181818;stroke-width:1;stroke-dasharray:7.0,7.0;"/><polygon fill="#181818" points="2281.45,474.9569,2272.3749,471.1304,2276.4509,475.0529,2272.5284,479.1289,2281.45,474.9569" style="stroke:#181818;stroke-width:1;"/><text fill="#000000" font-family="sans-serif" font-size="13" lengthAdjust="spacing" textLength="29.7832" x="2047.71" y="542.3638">uses</text></g><!--reverse link IOrderService to OrderService--><g class="link" data-entity-1="IOrderService" data-entity-2="OrderService" data-source-line="105" data-uid="lnk56" id="link_IOrderService_OrderService"><path codeLine="105" d="M743.4597,2267.1869 C915.4997,2235.9069 1116.25,2199.3969 1267.37,2171.9169" fill="none" id="IOrderService-backto-OrderService" style="stroke:#181818;stroke-width:1;stroke-dasharray:7.0,7.0;"/><polygon fill="none" points="725.75,2270.4069,744.533,2273.0902,742.3863,2261.2837,725.75,2270.4069" style="stroke:#181818;stroke-width:1;"/></g><!--link OrderService to IOrderRepository--><g class="link" data-entity-1="OrderService" data-entity-2="IOrderRepository" data-source-line="106" data-uid="lnk58" id="link_OrderService_IOrderRepository"><path codeLine="106" d="M1957.23,2170.7569 C2090.14,2178.9769 2211.6914,2186.4964 2288.9614,2191.2764" fill="none" id="OrderService-to-IOrderRepository" style="stroke:#181818;stroke-width:1;stroke-dasharray:7.0,7.0;"/><polygon fill="#181818" points="2294.95,2191.6469,2286.2141,2187.0988,2289.9595,2191.3382,2285.7202,2195.0836,2294.95,2191.6469" style="stroke:#181818;stroke-width:1;"/><text fill="#000000" font-family="sans-serif" font-size="13" lengthAdjust="spacing" textLength="29.7832" x="2047.71" y="2173.3638">uses</text></g><!--link OrderService to ICandyRepository--><g class="link" data-entity-1="OrderService" data-entity-2="ICandyRepository" data-source-line="107" data-uid="lnk59" id="link_OrderService_ICandyRepository"><path codeLine="107" d="M1646.17,2171.9369 C1765.06,2180.4369 1913.01,2169.9569 2016.71,2090.2969 C2047.82,2066.4069 2026.92,2041.1669 2046.71,2007.2969 C2057.37,1989.0669 2069.64,1990.8069 2077.71,1971.2969 C2112.38,1887.4969 2056.63,1639.2369 2107.71,1564.2969 C2130.69,1530.5869 2159.9205,1508.3042 2196.5005,1489.8942" fill="none" id="OrderService-to-ICandyRepository" style="stroke:#181818;stroke-width:1;stroke-dasharray:7.0,7.0;"/><polygon fill="#181818" points="2201.86,1487.1969,2192.0225,1487.6699,2197.3937,1489.4447,2195.619,1494.8159,2201.86,1487.1969" style="stroke:#181818;stroke-width:1;"/><text fill="#000000" font-family="sans-serif" font-size="13" lengthAdjust="spacing" textLength="29.7832" x="2047.71" y="1967.3638">uses</text></g><!--link OrderService to IUserRepository--><g class="link" data-entity-1="OrderService" data-entity-2="IUserRepository" data-source-line="108" data-uid="lnk60" id="link_OrderService_IUserRepository"><path codeLine="108" d="M1957.04,2148.6369 C1997.9,2147.2769 2038.51,2145.2269 2077.71,2142.2969 C2153.84,2136.5969 2234.2958,2123.7346 2293.2958,2113.0646" fill="none" id="OrderService-to-IUserRepository" style="stroke:#181818;stroke-width:1;stroke-dasharray:7.0,7.0;"/><polygon fill="#181818" points="2299.2,2111.9969,2289.6318,2109.6624,2294.2798,2112.8867,2291.0555,2117.5347,2299.2,2111.9969" style="stroke:#181818;stroke-width:1;"/><text fill="#000000" font-family="sans-serif" font-size="13" lengthAdjust="spacing" textLength="29.7832" x="2047.71" y="2138.3638">uses</text></g><!--link OrderService to ITaxService--><g class="link" data-entity-1="OrderService" data-entity-2="ITaxService" data-source-line="109" data-uid="lnk61" id="link_OrderService_ITaxService"><path codeLine="109" d="M1957.25,2113.0369 C1977.63,2106.4769 1997.54,2098.9369 2016.71,2090.2969 C2020.98,2088.3769 2075.67,2036.5069 2077.71,2032.2969 C2108.65,1968.6569 2057.98,1765.6269 2107.71,1715.2969 C2160.75,1661.6169 2248.2448,1664.4926 2308.1048,1674.0326" fill="none" id="OrderService-to-ITaxService" style="stroke:#181818;stroke-width:1;stroke-dasharray:7.0,7.0;"/><polygon fill="#181818" points="2314.03,1674.9769,2305.7717,1669.6103,2309.0923,1674.1899,2304.5126,1677.5106,2314.03,1674.9769" style="stroke:#181818;stroke-width:1;"/><text fill="#000000" font-family="sans-serif" font-size="13" lengthAdjust="spacing" textLength="29.7832" x="2047.71" y="2028.3638">uses</text></g><!--link OrderService to PlaceOrderRequestDto--><g class="link" data-entity-1="OrderService" data-entity-2="PlaceOrderRequestDto" data-source-line="110" data-uid="lnk62" id="link_OrderService_PlaceOrderRequestDto"><path codeLine="110" d="M1595.37,2171.9269 C1723.44,2191.0869 1905.76,2194.2569 2016.71,2090.2969 C2081.34,2029.7469 2007.37,1972.6469 2046.71,1893.2969 C2055.51,1875.5569 2069.95,1879.5169 2077.71,1861.2969 C2114.39,1775.1669 2045.58,1089.3269 2107.71,1019.2969 C2148.48,973.3469 2211.8827,963.9465 2269.0627,965.6665" fill="none" id="OrderService-to-PlaceOrderRequestDto" style="stroke:#181818;stroke-width:1;stroke-dasharray:7.0,7.0;"/><polygon fill="#181818" points="2275.06,965.8469,2266.1843,961.5781,2270.0623,965.6965,2265.9438,969.5745,2275.06,965.8469" style="stroke:#181818;stroke-width:1;"/><text fill="#000000" font-family="sans-serif" font-size="13" lengthAdjust="spacing" textLength="29.7832" x="2047.71" y="1857.3638">uses</text></g><!--link OrderService to OrderResponseDto--><g class="link" data-entity-1="OrderService" data-entity-2="OrderResponseDto" data-source-line="111" data-uid="lnk63" id="link_OrderService_OrderResponseDto"><path codeLine="111" d="M1605.84,2171.9369 C1732.16,2188.4469 1906.22,2187.7669 2016.71,2090.2969 C2064.43,2048.1969 2018.4,2007.2869 2046.71,1950.2969 C2056.1,1931.3869 2070,1933.9569 2077.71,1914.2969 C2110.69,1830.2469 2047.75,1169.7969 2107.71,1102.2969 C2151.72,1052.7569 2223.0306,1045.5705 2282.3606,1049.1005" fill="none" id="OrderService-to-OrderResponseDto" style="stroke:#181818;stroke-width:1;stroke-dasharray:7.0,7.0;"/><polygon fill="#181818" points="2288.35,1049.4569,2279.6035,1044.9294,2283.3588,1049.1599,2279.1283,1052.9153,2288.35,1049.4569" style="stroke:#181818;stroke-width:1;"/><text fill="#000000" font-family="sans-serif" font-size="13" lengthAdjust="spacing" textLength="29.7832" x="2047.71" y="1910.3638">uses</text></g><!--SRC=[bLVRRjim37ttLn1zQOAbmR1XUnW20qawR1w2jUZb0roRIRqwKYR9QuEs_px9bqIMQ2V9GskBHqSInKFIvt2B2j9COA8opc391QX7r2FnIiJh8CUb0iL1PAj72nS4AbCvmgoG6KCfOS5NMGABU8i21hF5OXW4vn2n92zI18Q9niHY2vZZ6fcIi1Hy3Lol920tasIvSiAPmXSLREBaALuXd7tyD8RBwG86aJQ8PQnvu3eMAelpuHcy1g1_MME2w0OtN6QAY-taBeHNU7S1yvYbspsgPl269syN5oss4X3wVFSIXKtdZNXCnauGNOdKPNA7FAeIOBZU0yjZNySm5rpAYtcXLCPMCESiGS7aiKxyzQnkKVpBz3FXmRlunRQsblwYB-lkIY_aiYTvh6DacgQre_yMADMb3gjcWGfmlqbZXVsOsYetd4dqpJUuogJUh76pRpLHoZgffuLwx6QkBhRJMcwTNlKwrvwhRxDZwThQnLwQV-g3wMkF5Avzn4nelvWnA0VFuJTYYccfAZjcIbm8AMwGfSYIRSkr2bTLy1sYQQ2TJFgIZg8fPKLo65yUGL7fQSymiWFOTU4HVBMeh2tf4BTY_FCOT7hJEOx8V9IQoYFk55DQpUy3tCNoQH9zPyKQHVoGuyIDx3247wYcUMuC6SgftB9aeAcXq6UEqg5BvX6O-UNWR1kb- -bPEeAJQ1hXLXI4Z1FphXzSBblHxVLfgNVoNEh2GV0CJ_TdxSpPjWdXFLzIZqI4VtGGEE7jt-cvtgQ96WcwaBerPKJ8S4HhQcHdMUk4zh83hsObXzU31_El2xFNTEE85j9A_6htEBGE7wqtJNLlH_qQrIDFPUr7yxTb7XURyLlOdaEWng5Vfx-PEv8Tu6Dnri7wS5xXwGCJ6kc3qsgePmHKqz6PKPmY5kugOXNdRdqKzJiXEf-gB9yLZrj9S_DEaJXbiz9W8OIE4sCwbDIimdej-3BBqPqnScflKRvHMx6J0r5Hg_nWQ6pZ2HkSyu8fVyO8f1Ac4KigEv5Gw1jjvvDsO-cNkMfB5jF0xKMBRWRuitliahIzHr_HjhKHj3NcOyQXrojR2l6WrbPxO6vqzq3T0Ew1kdrX3zHj4lkWhQZj0LBDNrTgAB6TkS7jCaEhDQsYbcnLkNdN3xrTWoSkh_Bkb2MFr5Hr61MhmffHRiOI5SFd2jAIbTtq7HAMyvqreagt9pwoGDlB3RplDtve7QA47rBmIKMvvGrRmhM6s-vgL6mFKh1nw7-gMj5Ce7kgE87kJX84cAxbFf2CyzuPtXTQ8y7t_m00]--></g></svg>