<svg xmlns="http://www.w3.org/2000/svg" xmlns:xlink="http://www.w3.org/1999/xlink" contentStyleType="text/css" data-diagram-type="CLASS" height="521px" preserveAspectRatio="none" style="width:1827px;height:521px;background:#FFFFFF;" version="1.1" viewBox="0 0 1827 521" width="1827px" zoomAndPan="magnify"><title>Cross-Cutting Concerns (JWT &amp; Tax)</title><defs/><g><g class="title" data-source-line="4"><text fill="#000000" font-family="sans-serif" font-size="14" font-weight="bold" lengthAdjust="spacing" textLength="283.2744" x="765.0328" y="22.9951">Cross-Cutting Concerns (JWT &amp; Tax)</text></g><!--cluster 01--><g class="cluster" data-entity="01" data-source-line="8" data-uid="ent0004" id="cluster_01"><path d="M1155.79,43.2969 L1176.2724,43.2969 A3.75,3.75 0 0 1 1178.7724,45.7969 L1185.7724,65.5938 L1349.7,65.5938 A2.5,2.5 0 0 1 1352.2,68.0938 L1352.2,206.7969 A2.5,2.5 0 0 1 1349.7,209.2969 L1155.79,209.2969 A2.5,2.5 0 0 1 1153.29,206.7969 L1153.29,45.7969 A2.5,2.5 0 0 1 1155.79,43.2969" fill="none" style="stroke:#000000;stroke-width:1.5;"/><line style="stroke:#000000;stroke-width:1.5;" x1="1153.29" x2="1185.7724" y1="65.5938" y2="65.5938"/><text fill="#000000" font-family="sans-serif" font-size="14" font-weight="bold" lengthAdjust="spacing" textLength="19.4824" x="1157.29" y="58.292">01</text></g><!--cluster  Entities (Partial)--><g class="cluster" data-entity=" Entities (Partial)" data-source-line="7" data-uid="ent0002" id="cluster_ Entities (Partial)"><path d="M1179.79,86.2969 L1316.0254,86.2969 A3.75,3.75 0 0 1 1318.5254,88.7969 L1325.5254,108.5938 L1325.7,108.5938 A2.5,2.5 0 0 1 1328.2,111.0938 L1328.2,182.7969 A2.5,2.5 0 0 1 1325.7,185.2969 L1179.79,185.2969 A2.5,2.5 0 0 1 1177.29,182.7969 L1177.29,88.7969 A2.5,2.5 0 0 1 1179.79,86.2969" fill="none" style="stroke:#000000;stroke-width:1.5;"/><line style="stroke:#000000;stroke-width:1.5;" x1="1177.29" x2="1325.5254" y1="108.5938" y2="108.5938"/><text fill="#000000" font-family="sans-serif" font-size="14" font-weight="bold" lengthAdjust="spacing" textLength="130.3613" x="1186.164" y="101.292">Entities (Partial)</text></g><!--cluster 02--><g class="cluster" data-entity="02" data-source-line="12" data-uid="ent0007" id="cluster_02"><path d="M1068.18,233.2969 L1088.6624,233.2969 A3.75,3.75 0 0 1 1091.1624,235.7969 L1098.1624,255.5938 L1817.84,255.5938 A2.5,2.5 0 0 1 1820.34,258.0938 L1820.34,511.7969 A2.5,2.5 0 0 1 1817.84,514.2969 L1068.18,514.2969 A2.5,2.5 0 0 1 1065.68,511.7969 L1065.68,235.7969 A2.5,2.5 0 0 1 1068.18,233.2969" fill="none" style="stroke:#000000;stroke-width:1.5;"/><line style="stroke:#000000;stroke-width:1.5;" x1="1065.68" x2="1098.1624" y1="255.5938" y2="255.5938"/><text fill="#000000" font-family="sans-serif" font-size="14" font-weight="bold" lengthAdjust="spacing" textLength="19.4824" x="1069.68" y="248.292">02</text></g><!--cluster  DAL (Partial)--><g class="cluster" data-entity=" DAL (Partial)" data-source-line="11" data-uid="ent0005" id="cluster_ DAL (Partial)"><path d="M1092.18,276.2969 L1199.4515,276.2969 A3.75,3.75 0 0 1 1201.9515,278.7969 L1208.9515,298.5938 L1793.84,298.5938 A2.5,2.5 0 0 1 1796.34,301.0938 L1796.34,487.7969 A2.5,2.5 0 0 1 1793.84,490.2969 L1092.18,490.2969 A2.5,2.5 0 0 1 1089.68,487.7969 L1089.68,278.7969 A2.5,2.5 0 0 1 1092.18,276.2969" fill="none" style="stroke:#000000;stroke-width:1.5;"/><line style="stroke:#000000;stroke-width:1.5;" x1="1089.68" x2="1208.9515" y1="298.5938" y2="298.5938"/><text fill="#000000" font-family="sans-serif" font-size="14" font-weight="bold" lengthAdjust="spacing" textLength="101.3975" x="1098.554" y="291.292">DAL (Partial)</text></g><!--cluster 06--><g class="cluster" data-entity="06" data-source-line="27" data-uid="ent0014" id="cluster_06"><path d="M8.5,200.2969 L28.9824,200.2969 A3.75,3.75 0 0 1 31.4824,202.7969 L38.4824,222.5938 L1000.18,222.5938 A2.5,2.5 0 0 1 1002.68,225.0938 L1002.68,511.7969 A2.5,2.5 0 0 1 1000.18,514.2969 L8.5,514.2969 A2.5,2.5 0 0 1 6,511.7969 L6,202.7969 A2.5,2.5 0 0 1 8.5,200.2969" fill="none" style="stroke:#000000;stroke-width:1.5;"/><line style="stroke:#000000;stroke-width:1.5;" x1="6" x2="38.4824" y1="222.5938" y2="222.5938"/><text fill="#000000" font-family="sans-serif" font-size="14" font-weight="bold" lengthAdjust="spacing" textLength="19.4824" x="10" y="215.292">06</text></g><!--cluster  Cross-Cutting Concerns--><g class="cluster" data-entity=" Cross-Cutting Concerns" data-source-line="26" data-uid="ent0012" id="cluster_ Cross-Cutting Concerns"><path d="M32.5,243.2969 L223.792,243.2969 A3.75,3.75 0 0 1 226.292,245.7969 L233.292,265.5938 L976.18,265.5938 A2.5,2.5 0 0 1 978.68,268.0938 L978.68,487.7969 A2.5,2.5 0 0 1 976.18,490.2969 L32.5,490.2969 A2.5,2.5 0 0 1 30,487.7969 L30,245.7969 A2.5,2.5 0 0 1 32.5,243.2969" fill="none" style="stroke:#000000;stroke-width:1.5;"/><line style="stroke:#000000;stroke-width:1.5;" x1="30" x2="233.292" y1="265.5938" y2="265.5938"/><text fill="#000000" font-family="sans-serif" font-size="14" font-weight="bold" lengthAdjust="spacing" textLength="185.418" x="38.874" y="258.292">Cross-Cutting Concerns</text></g><!--class User--><g class="entity" data-entity="User" data-source-line="8" data-uid="ent0003" id="entity_User"><rect fill="#F1F1F1" height="48" rx="2.5" ry="2.5" style="stroke:#181818;stroke-width:0.5;" width="63.9102" x="1220.29" y="121.2969"/><ellipse cx="1235.29" cy="137.2969" fill="#ADD1B2" rx="11" ry="11" style="stroke:#181818;stroke-width:1;"/><path d="M1238.2588,142.9375 Q1237.6806,143.2344 1237.04,143.375 Q1236.3994,143.5313 1235.6963,143.5313 Q1233.1963,143.5313 1231.8681,141.8906 Q1230.5556,140.2344 1230.5556,137.1094 Q1230.5556,133.9844 1231.8681,132.3281 Q1233.1963,130.6719 1235.6963,130.6719 Q1236.3994,130.6719 1237.04,130.8281 Q1237.6963,130.9844 1238.2588,131.2813 L1238.2588,134 Q1237.6338,133.4219 1237.04,133.1563 Q1236.4463,132.875 1235.8213,132.875 Q1234.4775,132.875 1233.79,133.9531 Q1233.1025,135.0156 1233.1025,137.1094 Q1233.1025,139.2031 1233.79,140.2813 Q1234.4775,141.3438 1235.8213,141.3438 Q1236.4463,141.3438 1237.04,141.0781 Q1237.6338,140.7969 1238.2588,140.2188 L1238.2588,142.9375 Z " fill="#000000"/><text fill="#000000" font-family="sans-serif" font-size="14" lengthAdjust="spacing" textLength="31.9102" x="1249.29" y="142.1436">User</text><line style="stroke:#181818;stroke-width:0.5;" x1="1221.29" x2="1283.2002" y1="153.2969" y2="153.2969"/><line style="stroke:#181818;stroke-width:0.5;" x1="1221.29" x2="1283.2002" y1="161.2969" y2="161.2969"/></g><!--class IRepository--><g class="entity" data-entity="IRepository" data-source-line="12" data-uid="ent0006" id="entity_IRepository"><rect fill="#F1F1F1" height="48" rx="2.5" ry="2.5" style="stroke:#181818;stroke-width:0.5;" width="122.5313" x="1190.98" y="311.2969"/><ellipse cx="1205.98" cy="327.2969" fill="#B4A7E5" rx="11" ry="11" style="stroke:#181818;stroke-width:1;"/><path d="M1201.9019,323.0625 L1201.9019,320.9063 L1209.2925,320.9063 L1209.2925,323.0625 L1206.8238,323.0625 L1206.8238,331.1406 L1209.2925,331.1406 L1209.2925,333.2969 L1201.9019,333.2969 L1201.9019,331.1406 L1204.3706,331.1406 L1204.3706,323.0625 L1201.9019,323.0625 Z " fill="#000000"/><text fill="#000000" font-family="sans-serif" font-size="14" font-style="italic" lengthAdjust="spacing" textLength="79.2012" x="1219.98" y="332.1436">IRepository</text><rect fill="#FFFFFF" height="15.9688" style="stroke:#181818;stroke-width:1;stroke-dasharray:2.0,2.0;" width="9.3301" x="1307.1812" y="308.2969"/><text fill="#000000" font-family="sans-serif" font-size="12" font-style="italic" lengthAdjust="spacing" textLength="7.3301" x="1308.1812" y="320.4355">T</text><line style="stroke:#181818;stroke-width:0.5;" x1="1191.98" x2="1312.5113" y1="343.2969" y2="343.2969"/><line style="stroke:#181818;stroke-width:0.5;" x1="1191.98" x2="1312.5113" y1="351.2969" y2="351.2969"/></g><!--class IUserRepository--><g class="entity" data-entity="IUserRepository" data-source-line="13" data-uid="ent0008" id="entity_IUserRepository"><rect fill="#F1F1F1" height="80.5938" rx="2.5" ry="2.5" style="stroke:#181818;stroke-width:0.5;" width="293.1348" x="1105.68" y="393.9969"/><ellipse cx="1192.4417" cy="409.9969" fill="#B4A7E5" rx="11" ry="11" style="stroke:#181818;stroke-width:1;"/><path d="M1188.3636,405.7625 L1188.3636,403.6063 L1195.7542,403.6063 L1195.7542,405.7625 L1193.2855,405.7625 L1193.2855,413.8406 L1195.7542,413.8406 L1195.7542,415.9969 L1188.3636,415.9969 L1188.3636,413.8406 L1190.8323,413.8406 L1190.8323,405.7625 L1188.3636,405.7625 Z " fill="#000000"/><text fill="#000000" font-family="sans-serif" font-size="14" font-style="italic" lengthAdjust="spacing" textLength="111.1113" x="1212.9417" y="414.8436">IUserRepository</text><line style="stroke:#181818;stroke-width:0.5;" x1="1106.68" x2="1397.8148" y1="425.9969" y2="425.9969"/><text fill="#000000" font-family="sans-serif" font-size="14" lengthAdjust="spacing" textLength="281.1348" x="1111.68" y="442.992">IUserRepository &lt;|-- IRepository&lt;User&gt;</text><line style="stroke:#181818;stroke-width:0.5;" x1="1106.68" x2="1397.8148" y1="450.2938" y2="450.2938"/><ellipse cx="1116.68" cy="463.9422" fill="#84BE84" rx="3" ry="3" style="stroke:#038048;stroke-width:1;"/><text fill="#000000" font-family="sans-serif" font-size="14" lengthAdjust="spacing" textLength="267.1143" x="1125.68" y="467.2889">Task&lt;User&gt; GetByIdAsync(int userId)</text></g><!--class UserRepository--><g class="entity" data-entity="UserRepository" data-source-line="18" data-uid="ent0009" id="entity_UserRepository"><rect fill="#F1F1F1" height="64.2969" rx="2.5" ry="2.5" style="stroke:#181818;stroke-width:0.5;" width="320.5264" x="1459.82" y="402.1469"/><ellipse cx="1562.342" cy="418.1469" fill="#ADD1B2" rx="11" ry="11" style="stroke:#181818;stroke-width:1;"/><path d="M1565.3107,423.7875 Q1564.7326,424.0844 1564.092,424.225 Q1563.4513,424.3813 1562.7482,424.3813 Q1560.2482,424.3813 1558.9201,422.7406 Q1557.6076,421.0844 1557.6076,417.9594 Q1557.6076,414.8344 1558.9201,413.1781 Q1560.2482,411.5219 1562.7482,411.5219 Q1563.4513,411.5219 1564.092,411.6781 Q1564.7482,411.8344 1565.3107,412.1313 L1565.3107,414.85 Q1564.6857,414.2719 1564.092,414.0063 Q1563.4982,413.725 1562.8732,413.725 Q1561.5295,413.725 1560.842,414.8031 Q1560.1545,415.8656 1560.1545,417.9594 Q1560.1545,420.0531 1560.842,421.1313 Q1561.5295,422.1938 1562.8732,422.1938 Q1563.4982,422.1938 1564.092,421.9281 Q1564.6857,421.6469 1565.3107,421.0688 L1565.3107,423.7875 Z " fill="#000000"/><text fill="#000000" font-family="sans-serif" font-size="14" lengthAdjust="spacing" textLength="106.9824" x="1582.842" y="422.9936">UserRepository</text><line style="stroke:#181818;stroke-width:0.5;" x1="1460.82" x2="1779.3464" y1="434.1469" y2="434.1469"/><line style="stroke:#181818;stroke-width:0.5;" x1="1460.82" x2="1779.3464" y1="442.1469" y2="442.1469"/><ellipse cx="1470.82" cy="455.7953" fill="#84BE84" rx="3" ry="3" style="stroke:#038048;stroke-width:1;"/><text fill="#000000" font-family="sans-serif" font-size="14" lengthAdjust="spacing" textLength="294.5264" x="1479.82" y="459.142">UserRepository(CandyDbContext context)</text></g><!--class IJwtService--><g class="entity" data-entity="IJwtService" data-source-line="27" data-uid="ent0013" id="entity_IJwtService"><rect fill="#F1F1F1" height="80.5938" rx="2.5" ry="2.5" style="stroke:#181818;stroke-width:0.5;" width="396.207" x="108.11" y="277.9969"/><ellipse cx="263.4943" cy="293.9969" fill="#B4A7E5" rx="11" ry="11" style="stroke:#181818;stroke-width:1;"/><path d="M259.4162,289.7625 L259.4162,287.6063 L266.8068,287.6063 L266.8068,289.7625 L264.338,289.7625 L264.338,297.8406 L266.8068,297.8406 L266.8068,299.9969 L259.4162,299.9969 L259.4162,297.8406 L261.8849,297.8406 L261.8849,289.7625 L259.4162,289.7625 Z " fill="#000000"/><text fill="#000000" font-family="sans-serif" font-size="14" font-style="italic" lengthAdjust="spacing" textLength="76.9385" x="283.9943" y="298.8436">IJwtService</text><line style="stroke:#181818;stroke-width:0.5;" x1="109.11" x2="503.317" y1="309.9969" y2="309.9969"/><line style="stroke:#181818;stroke-width:0.5;" x1="109.11" x2="503.317" y1="317.9969" y2="317.9969"/><ellipse cx="119.11" cy="331.6453" fill="#84BE84" rx="3" ry="3" style="stroke:#038048;stroke-width:1;"/><text fill="#000000" font-family="sans-serif" font-size="14" lengthAdjust="spacing" textLength="230.5557" x="128.11" y="334.992">string GenerateToken(User user)</text><ellipse cx="119.11" cy="347.9422" fill="#84BE84" rx="3" ry="3" style="stroke:#038048;stroke-width:1;"/><text fill="#000000" font-family="sans-serif" font-size="14" lengthAdjust="spacing" textLength="370.207" x="128.11" y="351.2889">ClaimsPrincipal GetPrincipalFromToken(string token)</text></g><!--class JwtService--><g class="entity" data-entity="JwtService" data-source-line="32" data-uid="ent0015" id="entity_JwtService"><rect fill="#F1F1F1" height="64.2969" rx="2.5" ry="2.5" style="stroke:#181818;stroke-width:0.5;" width="306.123" x="641.99" y="280.1469"/><ellipse cx="754.3967" cy="296.1469" fill="#ADD1B2" rx="11" ry="11" style="stroke:#181818;stroke-width:1;"/><path d="M757.3655,301.7875 Q756.7874,302.0844 756.1467,302.225 Q755.5061,302.3813 754.803,302.3813 Q752.303,302.3813 750.9749,300.7406 Q749.6624,299.0844 749.6624,295.9594 Q749.6624,292.8344 750.9749,291.1781 Q752.303,289.5219 754.803,289.5219 Q755.5061,289.5219 756.1467,289.6781 Q756.803,289.8344 757.3655,290.1313 L757.3655,292.85 Q756.7405,292.2719 756.1467,292.0063 Q755.553,291.725 754.928,291.725 Q753.5842,291.725 752.8967,292.8031 Q752.2092,293.8656 752.2092,295.9594 Q752.2092,298.0531 752.8967,299.1313 Q753.5842,300.1938 754.928,300.1938 Q755.553,300.1938 756.1467,299.9281 Q756.7405,299.6469 757.3655,299.0688 L757.3655,301.7875 Z " fill="#000000"/><text fill="#000000" font-family="sans-serif" font-size="14" lengthAdjust="spacing" textLength="72.8096" x="774.8967" y="300.9936">JwtService</text><line style="stroke:#181818;stroke-width:0.5;" x1="642.99" x2="947.113" y1="312.1469" y2="312.1469"/><line style="stroke:#181818;stroke-width:0.5;" x1="642.99" x2="947.113" y1="320.1469" y2="320.1469"/><ellipse cx="652.99" cy="333.7953" fill="#84BE84" rx="3" ry="3" style="stroke:#038048;stroke-width:1;"/><text fill="#000000" font-family="sans-serif" font-size="14" lengthAdjust="spacing" textLength="280.123" x="661.99" y="337.142">JwtService(IConfiguration configuration)</text></g><!--class ITaxService--><g class="entity" data-entity="ITaxService" data-source-line="39" data-uid="ent0019" id="entity_ITaxService"><rect fill="#F1F1F1" height="80.5938" rx="2.5" ry="2.5" style="stroke:#181818;stroke-width:0.5;" width="520.4297" x="46" y="393.9969"/><ellipse cx="261.3218" cy="409.9969" fill="#B4A7E5" rx="11" ry="11" style="stroke:#181818;stroke-width:1;"/><path d="M257.2437,405.7625 L257.2437,403.6063 L264.6343,403.6063 L264.6343,405.7625 L262.1655,405.7625 L262.1655,413.8406 L264.6343,413.8406 L264.6343,415.9969 L257.2437,415.9969 L257.2437,413.8406 L259.7124,413.8406 L259.7124,405.7625 L257.2437,405.7625 Z " fill="#000000"/><text fill="#000000" font-family="sans-serif" font-size="14" font-style="italic" lengthAdjust="spacing" textLength="81.2861" x="281.8218" y="414.8436">ITaxService</text><line style="stroke:#181818;stroke-width:0.5;" x1="47" x2="565.4297" y1="425.9969" y2="425.9969"/><line style="stroke:#181818;stroke-width:0.5;" x1="47" x2="565.4297" y1="433.9969" y2="433.9969"/><ellipse cx="57" cy="447.6453" fill="#84BE84" rx="3" ry="3" style="stroke:#038048;stroke-width:1;"/><text fill="#000000" font-family="sans-serif" font-size="14" lengthAdjust="spacing" textLength="371.6016" x="66" y="450.992">Task&lt;decimal&gt; GetTaxRateForUserAsync(int userId)</text><ellipse cx="57" cy="463.9422" fill="#84BE84" rx="3" ry="3" style="stroke:#038048;stroke-width:1;"/><text fill="#000000" font-family="sans-serif" font-size="14" lengthAdjust="spacing" textLength="494.4297" x="66" y="467.2889">Task&lt;decimal&gt; GetTaxRateByCountryCodeAsync(string countryCode)</text></g><!--class TaxService--><g class="entity" data-entity="TaxService" data-source-line="44" data-uid="ent0020" id="entity_TaxService"><rect fill="#F1F1F1" height="64.2969" rx="2.5" ry="2.5" style="stroke:#181818;stroke-width:0.5;" width="335.251" x="627.43" y="402.1469"/><ellipse cx="752.2269" cy="418.1469" fill="#ADD1B2" rx="11" ry="11" style="stroke:#181818;stroke-width:1;"/><path d="M755.1956,423.7875 Q754.6175,424.0844 753.9769,424.225 Q753.3363,424.3813 752.6331,424.3813 Q750.1331,424.3813 748.805,422.7406 Q747.4925,421.0844 747.4925,417.9594 Q747.4925,414.8344 748.805,413.1781 Q750.1331,411.5219 752.6331,411.5219 Q753.3363,411.5219 753.9769,411.6781 Q754.6331,411.8344 755.1956,412.1313 L755.1956,414.85 Q754.5706,414.2719 753.9769,414.0063 Q753.3831,413.725 752.7581,413.725 Q751.4144,413.725 750.7269,414.8031 Q750.0394,415.8656 750.0394,417.9594 Q750.0394,420.0531 750.7269,421.1313 Q751.4144,422.1938 752.7581,422.1938 Q753.3831,422.1938 753.9769,421.9281 Q754.5706,421.6469 755.1956,421.0688 L755.1956,423.7875 Z " fill="#000000"/><text fill="#000000" font-family="sans-serif" font-size="14" lengthAdjust="spacing" textLength="77.1572" x="772.7269" y="422.9936">TaxService</text><line style="stroke:#181818;stroke-width:0.5;" x1="628.43" x2="961.681" y1="434.1469" y2="434.1469"/><line style="stroke:#181818;stroke-width:0.5;" x1="628.43" x2="961.681" y1="442.1469" y2="442.1469"/><ellipse cx="638.43" cy="455.7953" fill="#84BE84" rx="3" ry="3" style="stroke:#038048;stroke-width:1;"/><text fill="#000000" font-family="sans-serif" font-size="14" lengthAdjust="spacing" textLength="309.251" x="647.43" y="459.142">TaxService(IUserRepository userRepository)</text></g><!--reverse link IUserRepository to UserRepository--><g class="link" data-entity-1="IUserRepository" data-entity-2="UserRepository" data-source-line="22" data-uid="lnk11" id="link_IUserRepository_UserRepository"><path codeLine="22" d="M1417.15,434.2969 C1436.96,434.2969 1439.38,434.2969 1459.42,434.2969" fill="none" id="IUserRepository-backto-UserRepository" style="stroke:#181818;stroke-width:1;stroke-dasharray:7.0,7.0;"/><polygon fill="none" points="1399.15,434.2969,1417.15,440.2969,1417.15,428.2969,1399.15,434.2969" style="stroke:#181818;stroke-width:1;"/></g><!--reverse link IJwtService to JwtService--><g class="link" data-entity-1="IJwtService" data-entity-2="JwtService" data-source-line="36" data-uid="lnk17" id="link_IJwtService_JwtService"><path codeLine="36" d="M522.5286,315.6425 C568.2586,315.0725 598.24,314.7069 641.7,314.1769" fill="none" id="IJwtService-backto-JwtService" style="stroke:#181818;stroke-width:1;stroke-dasharray:7.0,7.0;"/><polygon fill="none" points="504.53,315.8669,522.6034,321.6421,522.4538,309.643,504.53,315.8669" style="stroke:#181818;stroke-width:1;"/></g><!--link JwtService to User--><g class="link" data-entity-1="JwtService" data-entity-2="User" data-source-line="37" data-uid="lnk18" id="link_JwtService_User"><path codeLine="37" d="M884.9,279.6969 C987.75,241.9669 1146.0771,183.8834 1214.2771,158.8634" fill="none" id="JwtService-to-User" style="stroke:#181818;stroke-width:1;stroke-dasharray:7.0,7.0;"/><polygon fill="#181818" points="1219.91,156.7969,1210.083,156.1414,1215.2159,158.519,1212.8383,163.6519,1219.91,156.7969" style="stroke:#181818;stroke-width:1;"/><text fill="#000000" font-family="sans-serif" font-size="13" lengthAdjust="spacing" textLength="29.7832" x="1019.68" y="217.3638">uses</text></g><!--reverse link ITaxService to TaxService--><g class="link" data-entity-1="ITaxService" data-entity-2="TaxService" data-source-line="50" data-uid="lnk22" id="link_ITaxService_TaxService"><path codeLine="50" d="M584.67,434.2969 C605.2,434.2969 607.57,434.2969 627.21,434.2969" fill="none" id="ITaxService-backto-TaxService" style="stroke:#181818;stroke-width:1;stroke-dasharray:7.0,7.0;"/><polygon fill="none" points="566.67,434.2969,584.67,440.2969,584.67,428.2969,566.67,434.2969" style="stroke:#181818;stroke-width:1;"/></g><!--link TaxService to IUserRepository--><g class="link" data-entity-1="TaxService" data-entity-2="IUserRepository" data-source-line="51" data-uid="lnk23" id="link_TaxService_IUserRepository"><path codeLine="51" d="M962.97,434.2969 C1009.65,434.2969 1054.02,434.2969 1099.38,434.2969" fill="none" id="TaxService-to-IUserRepository" style="stroke:#181818;stroke-width:1;stroke-dasharray:7.0,7.0;"/><polygon fill="#181818" points="1105.38,434.2969,1096.38,430.2969,1100.38,434.2969,1096.38,438.2969,1105.38,434.2969" style="stroke:#181818;stroke-width:1;"/><text fill="#000000" font-family="sans-serif" font-size="13" lengthAdjust="spacing" textLength="29.7832" x="1019.68" y="430.3638">uses</text></g><!--SRC=[VLJ1Zjem5BpxAvxsK40LKTj33zKAQJTqLwnwM2rKFRlE8rWuTcGxBH7BlzUEIM8IQ2wHNyRpdcV6cS0QBMHS8xDSITWg3NQ7ha9pJGiYS6l1Aj0ytqKuGYot0Y7LofXvMbdBPGwfaWorD31z-RM13x2XXnaX4rX99geCGI93OwYk0GKMAAs1hLO5ADTHWw0rQjDCm9IqUB2af6nFSuIxJvyJ-2vTJuwE_PLgowcOtS6HW7kOeCR0J-D8Zd0Y9n9j_9B0yk77U0zt7VIMCeJL6vRASAjqVRzPD0m3W6VkGMU2vXb-kd-Vpoy8_VT5Z- -rAD3kLEObMgF-mrsR34kKcG6dReV_w01c7rZW6UrZlSeUJ2tPr8q7bIkliba33qD7Kem7di2Q5wLpJMEfqJZzQUTvQ8wIrQJlVKapJQdCwkNlD9ZJcXJQd_iF6YTLcRmlXYfvWoA7lYOtOdJ5gfU_jfNh60rghFORdr6YfXOtQezoskJ1IpIBaAcWl32l3ivuIONNj5iykIo6hMS-wnUjl57IRapHbwShTuOjpoiT56RngX_7fS7x4Mv2VBOG3XCP6triHUrB8qIo2BVXcp-_8KCLez35ypTHov3nWeecRGxtvkHyKjgpNS_T_xS-rgcgfDNkbM4WE6lB-leLXQzEE85bTqL6cOfdENGs3F9ONInl6H4rZuq8G9z-ojq_JgYSC_zh54hjeIh1qWFuz4MkHKojQtrfX4X6DwKpyFGF]--></g></svg>