<svg xmlns="http://www.w3.org/2000/svg" xmlns:xlink="http://www.w3.org/1999/xlink" contentStyleType="text/css" data-diagram-type="CLASS" height="1347px" preserveAspectRatio="none" style="width:1574px;height:1347px;background:#FFFFFF;" version="1.1" viewBox="0 0 1574 1347" width="1574px" zoomAndPan="magnify"><title>Data Access Layer (DAL)</title><defs/><g><g class="title" data-source-line="4"><text fill="#000000" font-family="sans-serif" font-size="14" font-weight="bold" lengthAdjust="spacing" textLength="193.4912" x="683.5294" y="22.9951">Data Access Layer (DAL)</text></g><!--cluster 01--><g class="cluster" data-entity="01" data-source-line="8" data-uid="ent0004" id="cluster_01"><path d="M1189.36,759.2969 L1209.8424,759.2969 A3.75,3.75 0 0 1 1212.3424,761.7969 L1219.3424,781.5938 L1383.26,781.5938 A2.5,2.5 0 0 1 1385.76,784.0938 L1385.76,1337.7969 A2.5,2.5 0 0 1 1383.26,1340.2969 L1189.36,1340.2969 A2.5,2.5 0 0 1 1186.86,1337.7969 L1186.86,761.7969 A2.5,2.5 0 0 1 1189.36,759.2969" fill="none" style="stroke:#000000;stroke-width:1.5;"/><line style="stroke:#000000;stroke-width:1.5;" x1="1186.86" x2="1219.3424" y1="781.5938" y2="781.5938"/><text fill="#000000" font-family="sans-serif" font-size="14" font-weight="bold" lengthAdjust="spacing" textLength="19.4824" x="1190.86" y="774.292">01</text></g><!--cluster  Entities (Partial)--><g class="cluster" data-entity=" Entities (Partial)" data-source-line="7" data-uid="ent0002" id="cluster_ Entities (Partial)"><path d="M1213.36,802.2969 L1349.5954,802.2969 A3.75,3.75 0 0 1 1352.0954,804.7969 L1359.0954,824.5938 L1359.26,824.5938 A2.5,2.5 0 0 1 1361.76,827.0938 L1361.76,1313.7969 A2.5,2.5 0 0 1 1359.26,1316.2969 L1213.36,1316.2969 A2.5,2.5 0 0 1 1210.86,1313.7969 L1210.86,804.7969 A2.5,2.5 0 0 1 1213.36,802.2969" fill="none" style="stroke:#000000;stroke-width:1.5;"/><line style="stroke:#000000;stroke-width:1.5;" x1="1210.86" x2="1359.0954" y1="824.5938" y2="824.5938"/><text fill="#000000" font-family="sans-serif" font-size="14" font-weight="bold" lengthAdjust="spacing" textLength="130.3613" x="1219.734" y="817.292">Entities (Partial)</text></g><!--cluster 02--><g class="cluster" data-entity="02" data-source-line="17" data-uid="ent0012" id="cluster_02"><path d="M8.5,43.2969 L28.9824,43.2969 A3.75,3.75 0 0 1 31.4824,45.7969 L38.4824,65.5938 L1565.05,65.5938 A2.5,2.5 0 0 1 1567.55,68.0938 L1567.55,732.7969 A2.5,2.5 0 0 1 1565.05,735.2969 L8.5,735.2969 A2.5,2.5 0 0 1 6,732.7969 L6,45.7969 A2.5,2.5 0 0 1 8.5,43.2969" fill="none" style="stroke:#000000;stroke-width:1.5;"/><line style="stroke:#000000;stroke-width:1.5;" x1="6" x2="38.4824" y1="65.5938" y2="65.5938"/><text fill="#000000" font-family="sans-serif" font-size="14" font-weight="bold" lengthAdjust="spacing" textLength="19.4824" x="10" y="58.292">02</text></g><!--cluster  DAL (Data Access Layer)--><g class="cluster" data-entity=" DAL (Data Access Layer)" data-source-line="16" data-uid="ent0010" id="cluster_ DAL (Data Access Layer)"><path d="M32.5,86.2969 L231.8652,86.2969 A3.75,3.75 0 0 1 234.3652,88.7969 L241.3652,108.5938 L1541.05,108.5938 A2.5,2.5 0 0 1 1543.55,111.0938 L1543.55,708.7969 A2.5,2.5 0 0 1 1541.05,711.2969 L32.5,711.2969 A2.5,2.5 0 0 1 30,708.7969 L30,88.7969 A2.5,2.5 0 0 1 32.5,86.2969" fill="none" style="stroke:#000000;stroke-width:1.5;"/><line style="stroke:#000000;stroke-width:1.5;" x1="30" x2="241.3652" y1="108.5938" y2="108.5938"/><text fill="#000000" font-family="sans-serif" font-size="14" font-weight="bold" lengthAdjust="spacing" textLength="193.4912" x="38.874" y="101.292">DAL (Data Access Layer)</text></g><!--class Brand--><g class="entity" data-entity="Brand" data-source-line="8" data-uid="ent0003" id="entity_Brand"><rect fill="#F1F1F1" height="48" rx="2.5" ry="2.5" style="stroke:#181818;stroke-width:0.5;" width="73.6992" x="1248.96" y="1252.2969"/><ellipse cx="1263.96" cy="1268.2969" fill="#ADD1B2" rx="11" ry="11" style="stroke:#181818;stroke-width:1;"/><path d="M1266.9288,1273.9375 Q1266.3506,1274.2344 1265.71,1274.375 Q1265.0694,1274.5313 1264.3663,1274.5313 Q1261.8663,1274.5313 1260.5381,1272.8906 Q1259.2256,1271.2344 1259.2256,1268.1094 Q1259.2256,1264.9844 1260.5381,1263.3281 Q1261.8663,1261.6719 1264.3663,1261.6719 Q1265.0694,1261.6719 1265.71,1261.8281 Q1266.3663,1261.9844 1266.9288,1262.2813 L1266.9288,1265 Q1266.3038,1264.4219 1265.71,1264.1563 Q1265.1163,1263.875 1264.4913,1263.875 Q1263.1475,1263.875 1262.46,1264.9531 Q1261.7725,1266.0156 1261.7725,1268.1094 Q1261.7725,1270.2031 1262.46,1271.2813 Q1263.1475,1272.3438 1264.4913,1272.3438 Q1265.1163,1272.3438 1265.71,1272.0781 Q1266.3038,1271.7969 1266.9288,1271.2188 L1266.9288,1273.9375 Z " fill="#000000"/><text fill="#000000" font-family="sans-serif" font-size="14" lengthAdjust="spacing" textLength="41.6992" x="1277.96" y="1273.1436">Brand</text><line style="stroke:#181818;stroke-width:0.5;" x1="1249.96" x2="1321.6592" y1="1284.2969" y2="1284.2969"/><line style="stroke:#181818;stroke-width:0.5;" x1="1249.96" x2="1321.6592" y1="1292.2969" y2="1292.2969"/></g><!--class Category--><g class="entity" data-entity="Category" data-source-line="9" data-uid="ent0005" id="entity_Category"><rect fill="#F1F1F1" height="48" rx="2.5" ry="2.5" style="stroke:#181818;stroke-width:0.5;" width="95.9502" x="1237.83" y="1169.2969"/><ellipse cx="1252.83" cy="1185.2969" fill="#ADD1B2" rx="11" ry="11" style="stroke:#181818;stroke-width:1;"/><path d="M1255.7988,1190.9375 Q1255.2206,1191.2344 1254.58,1191.375 Q1253.9394,1191.5313 1253.2363,1191.5313 Q1250.7363,1191.5313 1249.4081,1189.8906 Q1248.0956,1188.2344 1248.0956,1185.1094 Q1248.0956,1181.9844 1249.4081,1180.3281 Q1250.7363,1178.6719 1253.2363,1178.6719 Q1253.9394,1178.6719 1254.58,1178.8281 Q1255.2363,1178.9844 1255.7988,1179.2813 L1255.7988,1182 Q1255.1738,1181.4219 1254.58,1181.1563 Q1253.9863,1180.875 1253.3613,1180.875 Q1252.0175,1180.875 1251.33,1181.9531 Q1250.6425,1183.0156 1250.6425,1185.1094 Q1250.6425,1187.2031 1251.33,1188.2813 Q1252.0175,1189.3438 1253.3613,1189.3438 Q1253.9863,1189.3438 1254.58,1189.0781 Q1255.1738,1188.7969 1255.7988,1188.2188 L1255.7988,1190.9375 Z " fill="#000000"/><text fill="#000000" font-family="sans-serif" font-size="14" lengthAdjust="spacing" textLength="63.9502" x="1266.83" y="1190.1436">Category</text><line style="stroke:#181818;stroke-width:0.5;" x1="1238.83" x2="1332.7802" y1="1201.2969" y2="1201.2969"/><line style="stroke:#181818;stroke-width:0.5;" x1="1238.83" x2="1332.7802" y1="1209.2969" y2="1209.2969"/></g><!--class Candy--><g class="entity" data-entity="Candy" data-source-line="10" data-uid="ent0006" id="entity_Candy"><rect fill="#F1F1F1" height="48" rx="2.5" ry="2.5" style="stroke:#181818;stroke-width:0.5;" width="76.3994" x="1247.61" y="837.2969"/><ellipse cx="1262.61" cy="853.2969" fill="#ADD1B2" rx="11" ry="11" style="stroke:#181818;stroke-width:1;"/><path d="M1265.5788,858.9375 Q1265.0006,859.2344 1264.36,859.375 Q1263.7194,859.5313 1263.0163,859.5313 Q1260.5163,859.5313 1259.1881,857.8906 Q1257.8756,856.2344 1257.8756,853.1094 Q1257.8756,849.9844 1259.1881,848.3281 Q1260.5163,846.6719 1263.0163,846.6719 Q1263.7194,846.6719 1264.36,846.8281 Q1265.0163,846.9844 1265.5788,847.2813 L1265.5788,850 Q1264.9538,849.4219 1264.36,849.1563 Q1263.7663,848.875 1263.1413,848.875 Q1261.7975,848.875 1261.11,849.9531 Q1260.4225,851.0156 1260.4225,853.1094 Q1260.4225,855.2031 1261.11,856.2813 Q1261.7975,857.3438 1263.1413,857.3438 Q1263.7663,857.3438 1264.36,857.0781 Q1264.9538,856.7969 1265.5788,856.2188 L1265.5788,858.9375 Z " fill="#000000"/><text fill="#000000" font-family="sans-serif" font-size="14" lengthAdjust="spacing" textLength="44.3994" x="1276.61" y="858.1436">Candy</text><line style="stroke:#181818;stroke-width:0.5;" x1="1248.61" x2="1323.0094" y1="869.2969" y2="869.2969"/><line style="stroke:#181818;stroke-width:0.5;" x1="1248.61" x2="1323.0094" y1="877.2969" y2="877.2969"/></g><!--class User--><g class="entity" data-entity="User" data-source-line="11" data-uid="ent0007" id="entity_User"><rect fill="#F1F1F1" height="48" rx="2.5" ry="2.5" style="stroke:#181818;stroke-width:0.5;" width="63.9102" x="1253.85" y="920.2969"/><ellipse cx="1268.85" cy="936.2969" fill="#ADD1B2" rx="11" ry="11" style="stroke:#181818;stroke-width:1;"/><path d="M1271.8188,941.9375 Q1271.2406,942.2344 1270.6,942.375 Q1269.9594,942.5313 1269.2563,942.5313 Q1266.7563,942.5313 1265.4281,940.8906 Q1264.1156,939.2344 1264.1156,936.1094 Q1264.1156,932.9844 1265.4281,931.3281 Q1266.7563,929.6719 1269.2563,929.6719 Q1269.9594,929.6719 1270.6,929.8281 Q1271.2563,929.9844 1271.8188,930.2813 L1271.8188,933 Q1271.1938,932.4219 1270.6,932.1563 Q1270.0063,931.875 1269.3813,931.875 Q1268.0375,931.875 1267.35,932.9531 Q1266.6625,934.0156 1266.6625,936.1094 Q1266.6625,938.2031 1267.35,939.2813 Q1268.0375,940.3438 1269.3813,940.3438 Q1270.0063,940.3438 1270.6,940.0781 Q1271.1938,939.7969 1271.8188,939.2188 L1271.8188,941.9375 Z " fill="#000000"/><text fill="#000000" font-family="sans-serif" font-size="14" lengthAdjust="spacing" textLength="31.9102" x="1282.85" y="941.1436">User</text><line style="stroke:#181818;stroke-width:0.5;" x1="1254.85" x2="1316.7602" y1="952.2969" y2="952.2969"/><line style="stroke:#181818;stroke-width:0.5;" x1="1254.85" x2="1316.7602" y1="960.2969" y2="960.2969"/></g><!--class Order--><g class="entity" data-entity="Order" data-source-line="12" data-uid="ent0008" id="entity_Order"><rect fill="#F1F1F1" height="48" rx="2.5" ry="2.5" style="stroke:#181818;stroke-width:0.5;" width="72.0313" x="1249.79" y="1003.2969"/><ellipse cx="1264.79" cy="1019.2969" fill="#ADD1B2" rx="11" ry="11" style="stroke:#181818;stroke-width:1;"/><path d="M1267.7588,1024.9375 Q1267.1806,1025.2344 1266.54,1025.375 Q1265.8994,1025.5313 1265.1963,1025.5313 Q1262.6963,1025.5313 1261.3681,1023.8906 Q1260.0556,1022.2344 1260.0556,1019.1094 Q1260.0556,1015.9844 1261.3681,1014.3281 Q1262.6963,1012.6719 1265.1963,1012.6719 Q1265.8994,1012.6719 1266.54,1012.8281 Q1267.1963,1012.9844 1267.7588,1013.2813 L1267.7588,1016 Q1267.1338,1015.4219 1266.54,1015.1563 Q1265.9463,1014.875 1265.3213,1014.875 Q1263.9775,1014.875 1263.29,1015.9531 Q1262.6025,1017.0156 1262.6025,1019.1094 Q1262.6025,1021.2031 1263.29,1022.2813 Q1263.9775,1023.3438 1265.3213,1023.3438 Q1265.9463,1023.3438 1266.54,1023.0781 Q1267.1338,1022.7969 1267.7588,1022.2188 L1267.7588,1024.9375 Z " fill="#000000"/><text fill="#000000" font-family="sans-serif" font-size="14" lengthAdjust="spacing" textLength="40.0313" x="1278.79" y="1024.1436">Order</text><line style="stroke:#181818;stroke-width:0.5;" x1="1250.79" x2="1320.8213" y1="1035.2969" y2="1035.2969"/><line style="stroke:#181818;stroke-width:0.5;" x1="1250.79" x2="1320.8213" y1="1043.2969" y2="1043.2969"/></g><!--class OrderItem--><g class="entity" data-entity="OrderItem" data-source-line="13" data-uid="ent0009" id="entity_OrderItem"><rect fill="#F1F1F1" height="48" rx="2.5" ry="2.5" style="stroke:#181818;stroke-width:0.5;" width="103.9004" x="1233.86" y="1086.2969"/><ellipse cx="1248.86" cy="1102.2969" fill="#ADD1B2" rx="11" ry="11" style="stroke:#181818;stroke-width:1;"/><path d="M1251.8288,1107.9375 Q1251.2506,1108.2344 1250.61,1108.375 Q1249.9694,1108.5313 1249.2663,1108.5313 Q1246.7663,1108.5313 1245.4381,1106.8906 Q1244.1256,1105.2344 1244.1256,1102.1094 Q1244.1256,1098.9844 1245.4381,1097.3281 Q1246.7663,1095.6719 1249.2663,1095.6719 Q1249.9694,1095.6719 1250.61,1095.8281 Q1251.2663,1095.9844 1251.8288,1096.2813 L1251.8288,1099 Q1251.2038,1098.4219 1250.61,1098.1563 Q1250.0163,1097.875 1249.3913,1097.875 Q1248.0475,1097.875 1247.36,1098.9531 Q1246.6725,1100.0156 1246.6725,1102.1094 Q1246.6725,1104.2031 1247.36,1105.2813 Q1248.0475,1106.3438 1249.3913,1106.3438 Q1250.0163,1106.3438 1250.61,1106.0781 Q1251.2038,1105.7969 1251.8288,1105.2188 L1251.8288,1107.9375 Z " fill="#000000"/><text fill="#000000" font-family="sans-serif" font-size="14" lengthAdjust="spacing" textLength="71.9004" x="1262.86" y="1107.1436">OrderItem</text><line style="stroke:#181818;stroke-width:0.5;" x1="1234.86" x2="1336.7604" y1="1118.2969" y2="1118.2969"/><line style="stroke:#181818;stroke-width:0.5;" x1="1234.86" x2="1336.7604" y1="1126.2969" y2="1126.2969"/></g><!--class CandyDbContext--><g class="entity" data-entity="CandyDbContext" data-source-line="17" data-uid="ent0011" id="entity_CandyDbContext"><rect fill="#F1F1F1" height="210.9688" rx="2.5" ry="2.5" style="stroke:#181818;stroke-width:0.5;" width="483.4883" x="1044.06" y="458.8169"/><ellipse cx="1221.9755" cy="474.8169" fill="#ADD1B2" rx="11" ry="11" style="stroke:#181818;stroke-width:1;"/><path d="M1224.9443,480.4575 Q1224.3662,480.7544 1223.7255,480.895 Q1223.0849,481.0513 1222.3818,481.0513 Q1219.8818,481.0513 1218.5537,479.4106 Q1217.2412,477.7544 1217.2412,474.6294 Q1217.2412,471.5044 1218.5537,469.8481 Q1219.8818,468.1919 1222.3818,468.1919 Q1223.0849,468.1919 1223.7255,468.3481 Q1224.3818,468.5044 1224.9443,468.8013 L1224.9443,471.52 Q1224.3193,470.9419 1223.7255,470.6763 Q1223.1318,470.395 1222.5068,470.395 Q1221.163,470.395 1220.4755,471.4731 Q1219.788,472.5356 1219.788,474.6294 Q1219.788,476.7231 1220.4755,477.8013 Q1221.163,478.8638 1222.5068,478.8638 Q1223.1318,478.8638 1223.7255,478.5981 Q1224.3193,478.3169 1224.9443,477.7388 L1224.9443,480.4575 Z " fill="#000000"/><text fill="#000000" font-family="sans-serif" font-size="14" lengthAdjust="spacing" textLength="119.1572" x="1242.4755" y="479.6636">CandyDbContext</text><line style="stroke:#181818;stroke-width:0.5;" x1="1045.06" x2="1526.5483" y1="490.8169" y2="490.8169"/><ellipse cx="1055.06" cy="504.4653" fill="none" rx="3" ry="3" style="stroke:#038048;stroke-width:1;"/><text fill="#000000" font-family="sans-serif" font-size="14" lengthAdjust="spacing" textLength="161.2598" x="1064.06" y="507.812">DbSet&lt;Brand&gt; Brands</text><ellipse cx="1055.06" cy="520.7622" fill="none" rx="3" ry="3" style="stroke:#038048;stroke-width:1;"/><text fill="#000000" font-family="sans-serif" font-size="14" lengthAdjust="spacing" textLength="209.9795" x="1064.06" y="524.1089">DbSet&lt;Category&gt; Categories</text><ellipse cx="1055.06" cy="537.0591" fill="none" rx="3" ry="3" style="stroke:#038048;stroke-width:1;"/><text fill="#000000" font-family="sans-serif" font-size="14" lengthAdjust="spacing" textLength="170.8779" x="1064.06" y="540.4057">DbSet&lt;Candy&gt; Candies</text><ellipse cx="1055.06" cy="553.3559" fill="none" rx="3" ry="3" style="stroke:#038048;stroke-width:1;"/><text fill="#000000" font-family="sans-serif" font-size="14" lengthAdjust="spacing" textLength="141.6816" x="1064.06" y="556.7026">DbSet&lt;User&gt; Users</text><ellipse cx="1055.06" cy="569.6528" fill="none" rx="3" ry="3" style="stroke:#038048;stroke-width:1;"/><text fill="#000000" font-family="sans-serif" font-size="14" lengthAdjust="spacing" textLength="157.9238" x="1064.06" y="572.9995">DbSet&lt;Order&gt; Orders</text><ellipse cx="1055.06" cy="585.9497" fill="none" rx="3" ry="3" style="stroke:#038048;stroke-width:1;"/><text fill="#000000" font-family="sans-serif" font-size="14" lengthAdjust="spacing" textLength="221.6621" x="1064.06" y="589.2964">DbSet&lt;OrderItem&gt; OrderItems</text><ellipse cx="1055.06" cy="622.5434" fill="#84BE84" rx="3" ry="3" style="stroke:#038048;stroke-width:1;"/><text fill="#000000" font-family="sans-serif" font-size="14" lengthAdjust="spacing" textLength="457.4883" x="1064.06" y="625.8901">CandyDbContext(DbContextOptions&lt;CandyDbContext&gt; options)</text><line style="stroke:#181818;stroke-width:1;" x1="1045.06" x2="1241.0903" y1="604.7466" y2="604.7466"/><text fill="#000000" font-family="sans-serif" font-size="14" lengthAdjust="spacing" textLength="89.4277" x="1241.0903" y="609.0932">Constructors</text><line style="stroke:#181818;stroke-width:1;" x1="1330.518" x2="1526.5483" y1="604.7466" y2="604.7466"/><polygon fill="#FFFF44" points="1055.06,654.1372,1059.06,658.1372,1055.06,662.1372,1051.06,658.1372" style="stroke:#B38D22;stroke-width:1;"/><text fill="#000000" font-family="sans-serif" font-size="14" lengthAdjust="spacing" textLength="355.8926" x="1064.06" y="662.4839">void OnModelCreating(ModelBuilder modelBuilder)</text><line style="stroke:#181818;stroke-width:1;" x1="1045.06" x2="1255.9038" y1="641.3403" y2="641.3403"/><text fill="#000000" font-family="sans-serif" font-size="14" lengthAdjust="spacing" textLength="59.8008" x="1255.9038" y="645.687">Methods</text><line style="stroke:#181818;stroke-width:1;" x1="1315.7045" x2="1526.5483" y1="641.3403" y2="641.3403"/></g><!--class IRepository--><g class="entity" data-entity="IRepository" data-source-line="30" data-uid="ent0013" id="entity_IRepository"><rect fill="#F1F1F1" height="129.4844" rx="2.5" ry="2.5" style="stroke:#181818;stroke-width:0.5;" width="302.1104" x="151.47" y="121.5569"/><ellipse cx="253.0096" cy="137.5569" fill="#B4A7E5" rx="11" ry="11" style="stroke:#181818;stroke-width:1;"/><path d="M248.9314,133.3225 L248.9314,131.1663 L256.3221,131.1663 L256.3221,133.3225 L253.8533,133.3225 L253.8533,141.4006 L256.3221,141.4006 L256.3221,143.5569 L248.9314,143.5569 L248.9314,141.4006 L251.4002,141.4006 L251.4002,133.3225 L248.9314,133.3225 Z " fill="#000000"/><text fill="#000000" font-family="sans-serif" font-size="14" font-style="italic" lengthAdjust="spacing" textLength="79.2012" x="273.5096" y="142.4036">IRepository</text><rect fill="#FFFFFF" height="15.9688" style="stroke:#181818;stroke-width:1;stroke-dasharray:2.0,2.0;" width="9.3301" x="447.2503" y="118.5569"/><text fill="#000000" font-family="sans-serif" font-size="12" font-style="italic" lengthAdjust="spacing" textLength="7.3301" x="448.2503" y="130.6955">T</text><line style="stroke:#181818;stroke-width:0.5;" x1="152.47" x2="452.5804" y1="153.5569" y2="153.5569"/><line style="stroke:#181818;stroke-width:0.5;" x1="152.47" x2="452.5804" y1="161.5569" y2="161.5569"/><ellipse cx="162.47" cy="175.2053" fill="#84BE84" rx="3" ry="3" style="stroke:#038048;stroke-width:1;"/><text fill="#000000" font-family="sans-serif" font-size="14" lengthAdjust="spacing" textLength="212.9805" x="171.47" y="178.552">Task&lt;T&gt; GetByIdAsync(int id)</text><ellipse cx="162.47" cy="191.5022" fill="#84BE84" rx="3" ry="3" style="stroke:#038048;stroke-width:1;"/><text fill="#000000" font-family="sans-serif" font-size="14" lengthAdjust="spacing" textLength="276.1104" x="171.47" y="194.8489">Task&lt;IEnumerable&lt;T&gt;&gt; GetAllAsync()</text><ellipse cx="162.47" cy="207.7991" fill="#84BE84" rx="3" ry="3" style="stroke:#038048;stroke-width:1;"/><text fill="#000000" font-family="sans-serif" font-size="14" lengthAdjust="spacing" textLength="202.6377" x="171.47" y="211.1457">Task&lt;T&gt; AddAsync(T entity)</text><ellipse cx="162.47" cy="224.0959" fill="#84BE84" rx="3" ry="3" style="stroke:#038048;stroke-width:1;"/><text fill="#000000" font-family="sans-serif" font-size="14" lengthAdjust="spacing" textLength="193.9766" x="171.47" y="227.4426">Task UpdateAsync(T entity)</text><ellipse cx="162.47" cy="240.3928" fill="#84BE84" rx="3" ry="3" style="stroke:#038048;stroke-width:1;"/><text fill="#000000" font-family="sans-serif" font-size="14" lengthAdjust="spacing" textLength="171.1104" x="171.47" y="243.7395">Task DeleteAsync(int id)</text></g><!--class ICandyRepository--><g class="entity" data-entity="ICandyRepository" data-source-line="38" data-uid="ent0014" id="entity_ICandyRepository"><rect fill="#F1F1F1" height="113.1875" rx="2.5" ry="2.5" style="stroke:#181818;stroke-width:0.5;" width="513.0469" x="46" y="285.7069"/><ellipse cx="236.4731" cy="301.7069" fill="#B4A7E5" rx="11" ry="11" style="stroke:#181818;stroke-width:1;"/><path d="M232.395,297.4725 L232.395,295.3163 L239.7856,295.3163 L239.7856,297.4725 L237.3169,297.4725 L237.3169,305.5506 L239.7856,305.5506 L239.7856,307.7069 L232.395,307.7069 L232.395,305.5506 L234.8638,305.5506 L234.8638,297.4725 L232.395,297.4725 Z " fill="#000000"/><text fill="#000000" font-family="sans-serif" font-size="14" font-style="italic" lengthAdjust="spacing" textLength="123.6006" x="256.9731" y="306.5536">ICandyRepository</text><line style="stroke:#181818;stroke-width:0.5;" x1="47" x2="558.0469" y1="317.7069" y2="317.7069"/><text fill="#000000" font-family="sans-serif" font-size="14" lengthAdjust="spacing" textLength="306.1133" x="52" y="334.702">ICandyRepository &lt;|-- IRepository&lt;Candy&gt;</text><line style="stroke:#181818;stroke-width:0.5;" x1="47" x2="558.0469" y1="342.0038" y2="342.0038"/><ellipse cx="57" cy="355.6522" fill="#84BE84" rx="3" ry="3" style="stroke:#038048;stroke-width:1;"/><text fill="#000000" font-family="sans-serif" font-size="14" lengthAdjust="spacing" textLength="487.0469" x="66" y="358.9989">Task&lt;IEnumerable&lt;Candy&gt;&gt; GetByCategoryIdAsync(int categoryId)</text><ellipse cx="57" cy="371.9491" fill="#84BE84" rx="3" ry="3" style="stroke:#038048;stroke-width:1;"/><text fill="#000000" font-family="sans-serif" font-size="14" lengthAdjust="spacing" textLength="392.5879" x="66" y="375.2957">Task&lt;IEnumerable&lt;Candy&gt;&gt; GetAllWithDetailsAsync()</text><ellipse cx="57" cy="388.2459" fill="#84BE84" rx="3" ry="3" style="stroke:#038048;stroke-width:1;"/><text fill="#000000" font-family="sans-serif" font-size="14" lengthAdjust="spacing" textLength="329.458" x="66" y="391.5926">Task&lt;Candy&gt; GetByIdWithDetailsAsync(int id)</text></g><!--class CandyRepository--><g class="entity" data-entity="CandyRepository" data-source-line="45" data-uid="ent0015" id="entity_CandyRepository"><rect fill="#F1F1F1" height="64.2969" rx="2.5" ry="2.5" style="stroke:#181818;stroke-width:0.5;" width="333.0156" x="620.05" y="433.1469"/><ellipse cx="722.572" cy="449.1469" fill="#ADD1B2" rx="11" ry="11" style="stroke:#181818;stroke-width:1;"/><path d="M725.5407,454.7875 Q724.9626,455.0844 724.322,455.225 Q723.6813,455.3813 722.9782,455.3813 Q720.4782,455.3813 719.1501,453.7406 Q717.8376,452.0844 717.8376,448.9594 Q717.8376,445.8344 719.1501,444.1781 Q720.4782,442.5219 722.9782,442.5219 Q723.6813,442.5219 724.322,442.6781 Q724.9782,442.8344 725.5407,443.1313 L725.5407,445.85 Q724.9157,445.2719 724.322,445.0063 Q723.7282,444.725 723.1032,444.725 Q721.7595,444.725 721.072,445.8031 Q720.3845,446.8656 720.3845,448.9594 Q720.3845,451.0531 721.072,452.1313 Q721.7595,453.1938 723.1032,453.1938 Q723.7282,453.1938 724.322,452.9281 Q724.9157,452.6469 725.5407,452.0688 L725.5407,454.7875 Z " fill="#000000"/><text fill="#000000" font-family="sans-serif" font-size="14" lengthAdjust="spacing" textLength="119.4717" x="743.072" y="453.9936">CandyRepository</text><line style="stroke:#181818;stroke-width:0.5;" x1="621.05" x2="952.0656" y1="465.1469" y2="465.1469"/><line style="stroke:#181818;stroke-width:0.5;" x1="621.05" x2="952.0656" y1="473.1469" y2="473.1469"/><ellipse cx="631.05" cy="486.7953" fill="#84BE84" rx="3" ry="3" style="stroke:#038048;stroke-width:1;"/><text fill="#000000" font-family="sans-serif" font-size="14" lengthAdjust="spacing" textLength="307.0156" x="640.05" y="490.142">CandyRepository(CandyDbContext context)</text></g><!--class IUserRepository--><g class="entity" data-entity="IUserRepository" data-source-line="52" data-uid="ent0019" id="entity_IUserRepository"><rect fill="#F1F1F1" height="113.1875" rx="2.5" ry="2.5" style="stroke:#181818;stroke-width:0.5;" width="400.3359" x="102.36" y="433.7069"/><ellipse cx="242.7223" cy="449.7069" fill="#B4A7E5" rx="11" ry="11" style="stroke:#181818;stroke-width:1;"/><path d="M238.6442,445.4725 L238.6442,443.3162 L246.0348,443.3162 L246.0348,445.4725 L243.5661,445.4725 L243.5661,453.5506 L246.0348,453.5506 L246.0348,455.7069 L238.6442,455.7069 L238.6442,453.5506 L241.1129,453.5506 L241.1129,445.4725 L238.6442,445.4725 Z " fill="#000000"/><text fill="#000000" font-family="sans-serif" font-size="14" font-style="italic" lengthAdjust="spacing" textLength="111.1113" x="263.2223" y="454.5536">IUserRepository</text><line style="stroke:#181818;stroke-width:0.5;" x1="103.36" x2="501.6959" y1="465.7069" y2="465.7069"/><text fill="#000000" font-family="sans-serif" font-size="14" lengthAdjust="spacing" textLength="281.1348" x="108.36" y="482.702">IUserRepository &lt;|-- IRepository&lt;User&gt;</text><line style="stroke:#181818;stroke-width:0.5;" x1="103.36" x2="501.6959" y1="490.0037" y2="490.0037"/><ellipse cx="113.36" cy="503.6522" fill="#84BE84" rx="3" ry="3" style="stroke:#038048;stroke-width:1;"/><text fill="#000000" font-family="sans-serif" font-size="14" lengthAdjust="spacing" textLength="374.3359" x="122.36" y="506.9989">Task&lt;User&gt; GetByUsernameAsync(string username)</text><ellipse cx="113.36" cy="519.9491" fill="#84BE84" rx="3" ry="3" style="stroke:#038048;stroke-width:1;"/><text fill="#000000" font-family="sans-serif" font-size="14" lengthAdjust="spacing" textLength="315.4443" x="122.36" y="523.2957">Task&lt;User&gt; GetUserOrdersAsync(int userId)</text><ellipse cx="113.36" cy="536.2459" fill="#84BE84" rx="3" ry="3" style="stroke:#038048;stroke-width:1;"/><text fill="#000000" font-family="sans-serif" font-size="14" lengthAdjust="spacing" textLength="267.1143" x="122.36" y="539.5926">Task&lt;User&gt; GetByIdAsync(int userId)</text></g><!--class UserRepository--><g class="entity" data-entity="UserRepository" data-source-line="59" data-uid="ent0020" id="entity_UserRepository"><rect fill="#F1F1F1" height="64.2969" rx="2.5" ry="2.5" style="stroke:#181818;stroke-width:0.5;" width="320.5264" x="626.29" y="532.1469"/><ellipse cx="728.812" cy="548.1469" fill="#ADD1B2" rx="11" ry="11" style="stroke:#181818;stroke-width:1;"/><path d="M731.7807,553.7875 Q731.2026,554.0844 730.562,554.225 Q729.9213,554.3813 729.2182,554.3813 Q726.7182,554.3813 725.3901,552.7406 Q724.0776,551.0844 724.0776,547.9594 Q724.0776,544.8344 725.3901,543.1781 Q726.7182,541.5219 729.2182,541.5219 Q729.9213,541.5219 730.562,541.6781 Q731.2182,541.8344 731.7807,542.1313 L731.7807,544.85 Q731.1557,544.2719 730.562,544.0063 Q729.9682,543.725 729.3432,543.725 Q727.9995,543.725 727.312,544.8031 Q726.6245,545.8656 726.6245,547.9594 Q726.6245,550.0531 727.312,551.1313 Q727.9995,552.1938 729.3432,552.1938 Q729.9682,552.1938 730.562,551.9281 Q731.1557,551.6469 731.7807,551.0688 L731.7807,553.7875 Z " fill="#000000"/><text fill="#000000" font-family="sans-serif" font-size="14" lengthAdjust="spacing" textLength="106.9824" x="749.312" y="552.9936">UserRepository</text><line style="stroke:#181818;stroke-width:0.5;" x1="627.29" x2="945.8164" y1="564.1469" y2="564.1469"/><line style="stroke:#181818;stroke-width:0.5;" x1="627.29" x2="945.8164" y1="572.1469" y2="572.1469"/><ellipse cx="637.29" cy="585.7953" fill="#84BE84" rx="3" ry="3" style="stroke:#038048;stroke-width:1;"/><text fill="#000000" font-family="sans-serif" font-size="14" lengthAdjust="spacing" textLength="294.5264" x="646.29" y="589.142">UserRepository(CandyDbContext context)</text></g><!--class IOrderRepository--><g class="entity" data-entity="IOrderRepository" data-source-line="66" data-uid="ent0024" id="entity_IOrderRepository"><rect fill="#F1F1F1" height="113.1875" rx="2.5" ry="2.5" style="stroke:#181818;stroke-width:0.5;" width="461.7227" x="71.66" y="581.7069"/><ellipse cx="238.6551" cy="597.7069" fill="#B4A7E5" rx="11" ry="11" style="stroke:#181818;stroke-width:1;"/><path d="M234.577,593.4725 L234.577,591.3163 L241.9676,591.3163 L241.9676,593.4725 L239.4989,593.4725 L239.4989,601.5506 L241.9676,601.5506 L241.9676,603.7069 L234.577,603.7069 L234.577,601.5506 L237.0457,601.5506 L237.0457,593.4725 L234.577,593.4725 Z " fill="#000000"/><text fill="#000000" font-family="sans-serif" font-size="14" font-style="italic" lengthAdjust="spacing" textLength="119.2324" x="259.1551" y="602.5536">IOrderRepository</text><line style="stroke:#181818;stroke-width:0.5;" x1="72.66" x2="532.3827" y1="613.7069" y2="613.7069"/><text fill="#000000" font-family="sans-serif" font-size="14" lengthAdjust="spacing" textLength="297.377" x="77.66" y="630.702">IOrderRepository &lt;|-- IRepository&lt;Order&gt;</text><line style="stroke:#181818;stroke-width:0.5;" x1="72.66" x2="532.3827" y1="638.0038" y2="638.0038"/><ellipse cx="82.66" cy="651.6522" fill="#84BE84" rx="3" ry="3" style="stroke:#038048;stroke-width:1;"/><text fill="#000000" font-family="sans-serif" font-size="14" lengthAdjust="spacing" textLength="435.7227" x="91.66" y="654.9989">Task&lt;IEnumerable&lt;Order&gt;&gt; GetUserOrdersAsync(int userId)</text><ellipse cx="82.66" cy="667.9491" fill="#84BE84" rx="3" ry="3" style="stroke:#038048;stroke-width:1;"/><text fill="#000000" font-family="sans-serif" font-size="14" lengthAdjust="spacing" textLength="239.0732" x="91.66" y="671.2957">Task AddOrderAsync(Order order)</text><ellipse cx="82.66" cy="684.2459" fill="#84BE84" rx="3" ry="3" style="stroke:#038048;stroke-width:1;"/><text fill="#000000" font-family="sans-serif" font-size="14" lengthAdjust="spacing" textLength="402.9375" x="91.66" y="687.5926">Task&lt;Order&gt; GetOrderByIdWithDetailsAsync(int orderId)</text></g><!--class OrderRepository--><g class="entity" data-entity="OrderRepository" data-source-line="73" data-uid="ent0025" id="entity_OrderRepository"><rect fill="#F1F1F1" height="64.2969" rx="2.5" ry="2.5" style="stroke:#181818;stroke-width:0.5;" width="328.6475" x="622.23" y="631.1469"/><ellipse cx="724.752" cy="647.1469" fill="#ADD1B2" rx="11" ry="11" style="stroke:#181818;stroke-width:1;"/><path d="M727.7207,652.7875 Q727.1426,653.0844 726.502,653.225 Q725.8613,653.3813 725.1582,653.3813 Q722.6582,653.3813 721.3301,651.7406 Q720.0176,650.0844 720.0176,646.9594 Q720.0176,643.8344 721.3301,642.1781 Q722.6582,640.5219 725.1582,640.5219 Q725.8613,640.5219 726.502,640.6781 Q727.1582,640.8344 727.7207,641.1313 L727.7207,643.85 Q727.0957,643.2719 726.502,643.0063 Q725.9082,642.725 725.2832,642.725 Q723.9395,642.725 723.252,643.8031 Q722.5645,644.8656 722.5645,646.9594 Q722.5645,649.0531 723.252,650.1313 Q723.9395,651.1938 725.2832,651.1938 Q725.9082,651.1938 726.502,650.9281 Q727.0957,650.6469 727.7207,650.0688 L727.7207,652.7875 Z " fill="#000000"/><text fill="#000000" font-family="sans-serif" font-size="14" lengthAdjust="spacing" textLength="115.1035" x="745.252" y="651.9936">OrderRepository</text><line style="stroke:#181818;stroke-width:0.5;" x1="623.23" x2="949.8775" y1="663.1469" y2="663.1469"/><line style="stroke:#181818;stroke-width:0.5;" x1="623.23" x2="949.8775" y1="671.1469" y2="671.1469"/><ellipse cx="633.23" cy="684.7953" fill="#84BE84" rx="3" ry="3" style="stroke:#038048;stroke-width:1;"/><text fill="#000000" font-family="sans-serif" font-size="14" lengthAdjust="spacing" textLength="302.6475" x="642.23" y="688.142">OrderRepository(CandyDbContext context)</text></g><!--reverse link ICandyRepository to CandyRepository--><g class="link" data-entity-1="ICandyRepository" data-entity-2="CandyRepository" data-source-line="49" data-uid="lnk17" id="link_ICandyRepository_CandyRepository"><path codeLine="49" d="M544.6911,403.8377 C589.4811,415.2677 617.62,422.4469 657.78,432.6869" fill="none" id="ICandyRepository-backto-CandyRepository" style="stroke:#181818;stroke-width:1;stroke-dasharray:7.0,7.0;"/><polygon fill="none" points="527.25,399.3869,543.2075,409.6514,546.1747,398.024,527.25,399.3869" style="stroke:#181818;stroke-width:1;"/></g><!--link CandyRepository to CandyDbContext--><g class="link" data-entity-1="CandyRepository" data-entity-2="CandyDbContext" data-source-line="50" data-uid="lnk18" id="link_CandyRepository_CandyDbContext"><path codeLine="50" d="M951.41,497.9169 C980.98,503.8069 1006.4856,508.8849 1037.7156,515.1049" fill="none" id="CandyRepository-to-CandyDbContext" style="stroke:#181818;stroke-width:1;"/><polygon fill="#181818" points="1043.6,516.2769,1035.5547,510.5959,1038.6963,515.3002,1033.992,518.4418,1043.6,516.2769" style="stroke:#181818;stroke-width:1;"/><text fill="#000000" font-family="sans-serif" font-size="13" lengthAdjust="spacing" textLength="29.7832" x="984.06" y="502.3638">uses</text></g><!--reverse link IUserRepository to UserRepository--><g class="link" data-entity-1="IUserRepository" data-entity-2="UserRepository" data-source-line="63" data-uid="lnk22" id="link_IUserRepository_UserRepository"><path codeLine="63" d="M520.8511,523.661 C561.7811,529.951 586.55,533.7469 625.85,539.7769" fill="none" id="IUserRepository-backto-UserRepository" style="stroke:#181818;stroke-width:1;stroke-dasharray:7.0,7.0;"/><polygon fill="none" points="503.06,520.9269,519.9398,529.5913,521.7625,517.7306,503.06,520.9269" style="stroke:#181818;stroke-width:1;"/></g><!--link UserRepository to CandyDbContext--><g class="link" data-entity-1="UserRepository" data-entity-2="CandyDbContext" data-source-line="64" data-uid="lnk23" id="link_UserRepository_CandyDbContext"><path codeLine="64" d="M947.28,564.2969 C978.1,564.2969 1005.01,564.2969 1037.74,564.2969" fill="none" id="UserRepository-to-CandyDbContext" style="stroke:#181818;stroke-width:1;"/><polygon fill="#181818" points="1043.74,564.2969,1034.74,560.2969,1038.74,564.2969,1034.74,568.2969,1043.74,564.2969" style="stroke:#181818;stroke-width:1;"/><text fill="#000000" font-family="sans-serif" font-size="13" lengthAdjust="spacing" textLength="29.7832" x="984.06" y="560.3638">uses</text></g><!--reverse link IOrderRepository to OrderRepository--><g class="link" data-entity-1="IOrderRepository" data-entity-2="OrderRepository" data-source-line="77" data-uid="lnk27" id="link_IOrderRepository_OrderRepository"><path codeLine="77" d="M551.5757,651.1619 C581.3757,652.7119 593.42,653.3369 621.84,654.8069" fill="none" id="IOrderRepository-backto-OrderRepository" style="stroke:#181818;stroke-width:1;stroke-dasharray:7.0,7.0;"/><polygon fill="none" points="533.6,650.2269,551.264,657.1538,551.8874,645.17,533.6,650.2269" style="stroke:#181818;stroke-width:1;"/></g><!--link OrderRepository to CandyDbContext--><g class="link" data-entity-1="OrderRepository" data-entity-2="CandyDbContext" data-source-line="78" data-uid="lnk28" id="link_OrderRepository_CandyDbContext"><path codeLine="78" d="M951.06,630.7469 C980.78,624.8269 1006.4654,619.7078 1037.8754,613.4578" fill="none" id="OrderRepository-to-CandyDbContext" style="stroke:#181818;stroke-width:1;"/><polygon fill="#181818" points="1043.76,612.2869,1034.1524,610.1202,1038.8561,613.2627,1035.7137,617.9664,1043.76,612.2869" style="stroke:#181818;stroke-width:1;"/><text fill="#000000" font-family="sans-serif" font-size="13" lengthAdjust="spacing" textLength="29.7832" x="984.06" y="616.3638">uses</text></g><!--link CandyRepository to Candy--><g class="link" data-entity-1="CandyRepository" data-entity-2="Candy" data-source-line="82" data-uid="lnk29" id="link_CandyRepository_Candy"><path codeLine="82" d="M932.95,497.7969 C940.24,502.5669 947.03,508.0369 953.06,514.2969 C990.32,552.9469 959.65,582.9869 983.06,631.2969 C1002.56,671.5369 1010.99,681.2069 1044.06,711.2969 C1107.98,769.4669 1192.0458,815.6889 1241.9558,840.6989" fill="none" id="CandyRepository-to-Candy" style="stroke:#181818;stroke-width:1;stroke-dasharray:7.0,7.0;"/><polygon fill="#181818" points="1247.32,843.3869,1241.0657,835.7787,1242.8498,841.1469,1237.4817,842.931,1247.32,843.3869" style="stroke:#181818;stroke-width:1;"/></g><!--link UserRepository to User--><g class="link" data-entity-1="UserRepository" data-entity-2="User" data-source-line="83" data-uid="lnk30" id="link_UserRepository_User"><path codeLine="83" d="M934.78,596.8969 C941.47,601.6569 947.64,607.0969 953.06,613.2969 C1010.21,678.6369 952.66,724.9869 983.06,806.2969 C1000.9,853.9969 1001.72,875.0069 1044.06,903.2969 C1108.75,946.5169 1198.4058,949.11 1247.3858,946.96" fill="none" id="UserRepository-to-User" style="stroke:#181818;stroke-width:1;stroke-dasharray:7.0,7.0;"/><polygon fill="#181818" points="1253.38,946.6969,1244.2132,943.0954,1248.3848,946.9161,1244.5641,951.0877,1253.38,946.6969" style="stroke:#181818;stroke-width:1;"/></g><!--link OrderRepository to Order--><g class="link" data-entity-1="OrderRepository" data-entity-2="Order" data-source-line="84" data-uid="lnk31" id="link_OrderRepository_Order"><path codeLine="84" d="M803.06,695.9169 C836.64,762.6969 922.95,914.6569 1044.06,986.2969 C1109.02,1024.7169 1194.0305,1029.6145 1243.4705,1028.9745" fill="none" id="OrderRepository-to-Order" style="stroke:#181818;stroke-width:1;stroke-dasharray:7.0,7.0;"/><polygon fill="#181818" points="1249.47,1028.8969,1240.419,1025.0137,1244.4704,1028.9616,1240.5225,1033.013,1249.47,1028.8969" style="stroke:#181818;stroke-width:1;"/></g><!--link OrderRepository to OrderItem--><g class="link" data-entity-1="OrderRepository" data-entity-2="OrderItem" data-source-line="85" data-uid="lnk32" id="link_OrderRepository_OrderItem"><path codeLine="85" d="M797.78,695.9369 C824.27,774.6369 903.06,975.2969 1044.06,1069.2969 C1100.86,1107.1569 1175.4402,1113.6665 1227.4202,1113.2365" fill="none" id="OrderRepository-to-OrderItem" style="stroke:#181818;stroke-width:1;stroke-dasharray:7.0,7.0;"/><polygon fill="#181818" points="1233.42,1113.1869,1224.3872,1109.2615,1228.4202,1113.2282,1224.4534,1117.2612,1233.42,1113.1869" style="stroke:#181818;stroke-width:1;"/></g><!--SRC=[bLRTQzim47_tNt5q3qq82TiUHp2aJHc1bewjPS-gVKb4PTb8Ibbe-x_l9DcnBDlzy4DYtwT-zpkTT0v_q43E5MQ6bnAsfGApHvAmdM958d1hm9IW-6uVs2M9uKOWh9bXiCeor1gksH4LJDQhwscIdCD6PkAG8qYqMgQES2N9YQDsIR9I6lndaefbZso7SFRrswArcFnYod0cfcVmd00zcM2Kua8ncSCpl0QoIsPmLrBuM2ppM7QlQO5TqQtAXsKRWuMJloR16hylWF0Ho1Xtj52NVVrmwK7MAllCOFr05Lyw9Aa7f7lQ1bFQeAEQ31XHZjIb6b9RiAc3tDSvXAa7EgAr-DEs5AtLV0u4Injro4ofD7q70Rgu9wUtsyfsZLvszIcKNZuDez-WsPTv9_0NU2fv3hVofinHN2faXilTn7rT7BYm71R1Xuz7pDa_JhdKbcK8czzObPhJie_BkxJ3oXtJZrRs4yt5SPElz55c4_84dazZiysLF1Ies8D0Sd4-Ao6yotGWvYgluzq1sWO_naPmN-N4ypj6QnJO68KhwyDqLMwn1a1xgkKBLJoiY- -gjo1xYxfKJQU69SjEika7ur3v_dApNwDXNEYHIjRzNZFKinyeIR0N1winYtMJQD_MGwfT2esreX9O44MwNyp2Tswz1FiRMomErU8bxNaEsixdQJn7Vi11qrQF-RQRV11WJzMZsqs9kD9-TBX2srV9YhhjQDVJlhEBSCBfgADzyTEb9STw3RH4a2niej2wfZEOuYDqTbMVP3EAsoSpCcYux8g7BDzXCgJI5Ms4orZN8zEFzTPZODDvamzprCmU6c7Er5lwGxDKfqaRPglF5ahWtaRtgdC_vUfIF5w5MQpx9Cbnv93bckPUzeReI3vi_0RNhtGhMcE5CaUPsLjEkNMt2OVPVihW0bIKseWZF77cJsMmDn-_Mj1y9vavAAI3ipTX5dN-96xNXRyD93ruY_gS7zVO6y1_]--></g></svg>