<svg xmlns="http://www.w3.org/2000/svg" xmlns:xlink="http://www.w3.org/1999/xlink" contentStyleType="text/css" data-diagram-type="CLASS" height="988px" preserveAspectRatio="none" style="width:975px;height:988px;background:#FFFFFF;" version="1.1" viewBox="0 0 975 988" width="975px" zoomAndPan="magnify"><title>Data Transfer Objects (DTOs)</title><defs/><g><g class="title" data-source-line="4"><text fill="#000000" font-family="sans-serif" font-size="14" font-weight="bold" lengthAdjust="spacing" textLength="232.2646" x="364.4677" y="22.9951">Data Transfer Objects (DTOs)</text></g><!--cluster 05--><g class="cluster" data-entity="05" data-source-line="7" data-uid="ent0004" id="cluster_05"><path d="M8.5,43.2969 L28.9824,43.2969 A3.75,3.75 0 0 1 31.4824,45.7969 L38.4824,65.5938 L965.7,65.5938 A2.5,2.5 0 0 1 968.2,68.0938 L968.2,978.7969 A2.5,2.5 0 0 1 965.7,981.2969 L8.5,981.2969 A2.5,2.5 0 0 1 6,978.7969 L6,45.7969 A2.5,2.5 0 0 1 8.5,43.2969" fill="none" style="stroke:#000000;stroke-width:1.5;"/><line style="stroke:#000000;stroke-width:1.5;" x1="6" x2="38.4824" y1="65.5938" y2="65.5938"/><text fill="#000000" font-family="sans-serif" font-size="14" font-weight="bold" lengthAdjust="spacing" textLength="19.4824" x="10" y="58.292">05</text></g><!--cluster  DTOs (Data Transfer Objects)--><g class="cluster" data-entity=" DTOs (Data Transfer Objects)" data-source-line="6" data-uid="ent0002" id="cluster_ DTOs (Data Transfer Objects)"><path d="M32.5,86.2969 L270.6387,86.2969 A3.75,3.75 0 0 1 273.1387,88.7969 L280.1387,108.5938 L941.7,108.5938 A2.5,2.5 0 0 1 944.2,111.0938 L944.2,954.7969 A2.5,2.5 0 0 1 941.7,957.2969 L32.5,957.2969 A2.5,2.5 0 0 1 30,954.7969 L30,88.7969 A2.5,2.5 0 0 1 32.5,86.2969" fill="none" style="stroke:#000000;stroke-width:1.5;"/><line style="stroke:#000000;stroke-width:1.5;" x1="30" x2="280.1387" y1="108.5938" y2="108.5938"/><text fill="#000000" font-family="sans-serif" font-size="14" font-weight="bold" lengthAdjust="spacing" textLength="232.2646" x="38.874" y="101.292">DTOs (Data Transfer Objects)</text></g><!--class AddCandyRequestDto--><g class="entity" data-entity="AddCandyRequestDto" data-source-line="7" data-uid="ent0003" id="entity_AddCandyRequestDto"><rect fill="#F1F1F1" height="145.7813" rx="2.5" ry="2.5" style="stroke:#181818;stroke-width:0.5;" width="186.082" x="94.03" y="795.4069"/><ellipse cx="109.03" cy="811.4069" fill="#ADD1B2" rx="11" ry="11" style="stroke:#181818;stroke-width:1;"/><path d="M111.9988,817.0475 Q111.4206,817.3444 110.78,817.485 Q110.1394,817.6413 109.4363,817.6413 Q106.9363,817.6413 105.6081,816.0006 Q104.2956,814.3444 104.2956,811.2194 Q104.2956,808.0944 105.6081,806.4381 Q106.9363,804.7819 109.4363,804.7819 Q110.1394,804.7819 110.78,804.9381 Q111.4363,805.0944 111.9988,805.3913 L111.9988,808.11 Q111.3738,807.5319 110.78,807.2663 Q110.1863,806.985 109.5613,806.985 Q108.2175,806.985 107.53,808.0631 Q106.8425,809.1256 106.8425,811.2194 Q106.8425,813.3131 107.53,814.3913 Q108.2175,815.4538 109.5613,815.4538 Q110.1863,815.4538 110.78,815.1881 Q111.3738,814.9069 111.9988,814.3288 L111.9988,817.0475 Z " fill="#000000"/><text fill="#000000" font-family="sans-serif" font-size="14" lengthAdjust="spacing" textLength="154.082" x="123.03" y="816.2536">AddCandyRequestDto</text><line style="stroke:#181818;stroke-width:0.5;" x1="95.03" x2="279.112" y1="827.4069" y2="827.4069"/><ellipse cx="105.03" cy="841.0553" fill="none" rx="3" ry="3" style="stroke:#038048;stroke-width:1;"/><text fill="#000000" font-family="sans-serif" font-size="14" lengthAdjust="spacing" textLength="85.9414" x="114.03" y="844.402">string Name</text><ellipse cx="105.03" cy="857.3522" fill="none" rx="3" ry="3" style="stroke:#038048;stroke-width:1;"/><text fill="#000000" font-family="sans-serif" font-size="14" lengthAdjust="spacing" textLength="124.373" x="114.03" y="860.6989">string Description</text><ellipse cx="105.03" cy="873.6491" fill="none" rx="3" ry="3" style="stroke:#038048;stroke-width:1;"/><text fill="#000000" font-family="sans-serif" font-size="14" lengthAdjust="spacing" textLength="150.4932" x="114.03" y="876.9957">decimal TaxFreePrice</text><ellipse cx="105.03" cy="889.9459" fill="none" rx="3" ry="3" style="stroke:#038048;stroke-width:1;"/><text fill="#000000" font-family="sans-serif" font-size="14" lengthAdjust="spacing" textLength="121.9463" x="114.03" y="893.2926">int StockQuantity</text><ellipse cx="105.03" cy="906.2428" fill="none" rx="3" ry="3" style="stroke:#038048;stroke-width:1;"/><text fill="#000000" font-family="sans-serif" font-size="14" lengthAdjust="spacing" textLength="77.417" x="114.03" y="909.5895">int BrandId</text><ellipse cx="105.03" cy="922.5397" fill="none" rx="3" ry="3" style="stroke:#038048;stroke-width:1;"/><text fill="#000000" font-family="sans-serif" font-size="14" lengthAdjust="spacing" textLength="99.668" x="114.03" y="925.8864">int CategoryId</text><line style="stroke:#181818;stroke-width:0.5;" x1="95.03" x2="279.112" y1="933.1881" y2="933.1881"/></g><!--class UpdateCandyRequestDto--><g class="entity" data-entity="UpdateCandyRequestDto" data-source-line="16" data-uid="ent0005" id="entity_UpdateCandyRequestDto"><rect fill="#F1F1F1" height="145.7813" rx="2.5" ry="2.5" style="stroke:#181818;stroke-width:0.5;" width="209.4336" x="82.36" y="614.4069"/><ellipse cx="97.36" cy="630.4069" fill="#ADD1B2" rx="11" ry="11" style="stroke:#181818;stroke-width:1;"/><path d="M100.3288,636.0475 Q99.7506,636.3444 99.11,636.485 Q98.4694,636.6413 97.7663,636.6413 Q95.2663,636.6413 93.9381,635.0006 Q92.6256,633.3444 92.6256,630.2194 Q92.6256,627.0944 93.9381,625.4381 Q95.2663,623.7819 97.7663,623.7819 Q98.4694,623.7819 99.11,623.9381 Q99.7663,624.0944 100.3288,624.3913 L100.3288,627.11 Q99.7038,626.5319 99.11,626.2663 Q98.5163,625.985 97.8913,625.985 Q96.5475,625.985 95.86,627.0631 Q95.1725,628.1256 95.1725,630.2194 Q95.1725,632.3131 95.86,633.3913 Q96.5475,634.4538 97.8913,634.4538 Q98.5163,634.4538 99.11,634.1881 Q99.7038,633.9069 100.3288,633.3288 L100.3288,636.0475 Z " fill="#000000"/><text fill="#000000" font-family="sans-serif" font-size="14" lengthAdjust="spacing" textLength="177.4336" x="111.36" y="635.2536">UpdateCandyRequestDto</text><line style="stroke:#181818;stroke-width:0.5;" x1="83.36" x2="290.7936" y1="646.4069" y2="646.4069"/><ellipse cx="93.36" cy="660.0553" fill="none" rx="3" ry="3" style="stroke:#038048;stroke-width:1;"/><text fill="#000000" font-family="sans-serif" font-size="14" lengthAdjust="spacing" textLength="85.9414" x="102.36" y="663.402">string Name</text><ellipse cx="93.36" cy="676.3522" fill="none" rx="3" ry="3" style="stroke:#038048;stroke-width:1;"/><text fill="#000000" font-family="sans-serif" font-size="14" lengthAdjust="spacing" textLength="124.373" x="102.36" y="679.6989">string Description</text><ellipse cx="93.36" cy="692.6491" fill="none" rx="3" ry="3" style="stroke:#038048;stroke-width:1;"/><text fill="#000000" font-family="sans-serif" font-size="14" lengthAdjust="spacing" textLength="150.4932" x="102.36" y="695.9957">decimal TaxFreePrice</text><ellipse cx="93.36" cy="708.9459" fill="none" rx="3" ry="3" style="stroke:#038048;stroke-width:1;"/><text fill="#000000" font-family="sans-serif" font-size="14" lengthAdjust="spacing" textLength="121.9463" x="102.36" y="712.2926">int StockQuantity</text><ellipse cx="93.36" cy="725.2428" fill="none" rx="3" ry="3" style="stroke:#038048;stroke-width:1;"/><text fill="#000000" font-family="sans-serif" font-size="14" lengthAdjust="spacing" textLength="77.417" x="102.36" y="728.5895">int BrandId</text><ellipse cx="93.36" cy="741.5397" fill="none" rx="3" ry="3" style="stroke:#038048;stroke-width:1;"/><text fill="#000000" font-family="sans-serif" font-size="14" lengthAdjust="spacing" textLength="99.668" x="102.36" y="744.8864">int CategoryId</text><line style="stroke:#181818;stroke-width:0.5;" x1="83.36" x2="290.7936" y1="752.1881" y2="752.1881"/></g><!--class CandyResponseDto--><g class="entity" data-entity="CandyResponseDto" data-source-line="25" data-uid="ent0006" id="entity_CandyResponseDto"><rect fill="#F1F1F1" height="178.375" rx="2.5" ry="2.5" style="stroke:#181818;stroke-width:0.5;" width="177.5527" x="98.3" y="401.1069"/><ellipse cx="117.103" cy="417.1069" fill="#ADD1B2" rx="11" ry="11" style="stroke:#181818;stroke-width:1;"/><path d="M120.0718,422.7475 Q119.4937,423.0444 118.853,423.185 Q118.2124,423.3412 117.5093,423.3412 Q115.0093,423.3412 113.6812,421.7006 Q112.3687,420.0444 112.3687,416.9194 Q112.3687,413.7944 113.6812,412.1381 Q115.0093,410.4819 117.5093,410.4819 Q118.2124,410.4819 118.853,410.6381 Q119.5093,410.7944 120.0718,411.0912 L120.0718,413.81 Q119.4468,413.2319 118.853,412.9662 Q118.2593,412.685 117.6343,412.685 Q116.2905,412.685 115.603,413.7631 Q114.9155,414.8256 114.9155,416.9194 Q114.9155,419.0131 115.603,420.0912 Q116.2905,421.1537 117.6343,421.1537 Q118.2593,421.1537 118.853,420.8881 Q119.4468,420.6069 120.0718,420.0287 L120.0718,422.7475 Z " fill="#000000"/><text fill="#000000" font-family="sans-serif" font-size="14" lengthAdjust="spacing" textLength="137.1016" x="131.9481" y="421.9536">CandyResponseDto</text><line style="stroke:#181818;stroke-width:0.5;" x1="99.3" x2="274.8527" y1="433.1069" y2="433.1069"/><ellipse cx="109.3" cy="446.7553" fill="none" rx="3" ry="3" style="stroke:#038048;stroke-width:1;"/><text fill="#000000" font-family="sans-serif" font-size="14" lengthAdjust="spacing" textLength="35.7178" x="118.3" y="450.102">int Id</text><ellipse cx="109.3" cy="463.0522" fill="none" rx="3" ry="3" style="stroke:#038048;stroke-width:1;"/><text fill="#000000" font-family="sans-serif" font-size="14" lengthAdjust="spacing" textLength="85.9414" x="118.3" y="466.3989">string Name</text><ellipse cx="109.3" cy="479.3491" fill="none" rx="3" ry="3" style="stroke:#038048;stroke-width:1;"/><text fill="#000000" font-family="sans-serif" font-size="14" lengthAdjust="spacing" textLength="124.373" x="118.3" y="482.6957">string Description</text><ellipse cx="109.3" cy="495.6459" fill="none" rx="3" ry="3" style="stroke:#038048;stroke-width:1;"/><text fill="#000000" font-family="sans-serif" font-size="14" lengthAdjust="spacing" textLength="150.4932" x="118.3" y="498.9926">decimal TaxFreePrice</text><ellipse cx="109.3" cy="511.9428" fill="none" rx="3" ry="3" style="stroke:#038048;stroke-width:1;"/><text fill="#000000" font-family="sans-serif" font-size="14" lengthAdjust="spacing" textLength="151.5527" x="118.3" y="515.2895">decimal PriceWithTax</text><ellipse cx="109.3" cy="528.2397" fill="none" rx="3" ry="3" style="stroke:#038048;stroke-width:1;"/><text fill="#000000" font-family="sans-serif" font-size="14" lengthAdjust="spacing" textLength="121.9463" x="118.3" y="531.5864">int StockQuantity</text><ellipse cx="109.3" cy="544.5366" fill="none" rx="3" ry="3" style="stroke:#038048;stroke-width:1;"/><text fill="#000000" font-family="sans-serif" font-size="14" lengthAdjust="spacing" textLength="127.6406" x="118.3" y="547.8832">string BrandName</text><ellipse cx="109.3" cy="560.8334" fill="none" rx="3" ry="3" style="stroke:#038048;stroke-width:1;"/><text fill="#000000" font-family="sans-serif" font-size="14" lengthAdjust="spacing" textLength="149.8916" x="118.3" y="564.1801">string CategoryName</text><line style="stroke:#181818;stroke-width:0.5;" x1="99.3" x2="274.8527" y1="571.4819" y2="571.4819"/></g><!--class RegisterUserDto--><g class="entity" data-entity="RegisterUserDto" data-source-line="36" data-uid="ent0007" id="entity_RegisterUserDto"><rect fill="#F1F1F1" height="113.1875" rx="2.5" ry="2.5" style="stroke:#181818;stroke-width:0.5;" width="147.0146" x="476.35" y="806.7069"/><ellipse cx="491.35" cy="822.7069" fill="#ADD1B2" rx="11" ry="11" style="stroke:#181818;stroke-width:1;"/><path d="M494.3188,828.3475 Q493.7406,828.6444 493.1,828.785 Q492.4594,828.9413 491.7563,828.9413 Q489.2563,828.9413 487.9281,827.3006 Q486.6156,825.6444 486.6156,822.5194 Q486.6156,819.3944 487.9281,817.7381 Q489.2563,816.0819 491.7563,816.0819 Q492.4594,816.0819 493.1,816.2381 Q493.7563,816.3944 494.3188,816.6913 L494.3188,819.41 Q493.6938,818.8319 493.1,818.5663 Q492.5063,818.285 491.8813,818.285 Q490.5375,818.285 489.85,819.3631 Q489.1625,820.4256 489.1625,822.5194 Q489.1625,824.6131 489.85,825.6913 Q490.5375,826.7538 491.8813,826.7538 Q492.5063,826.7538 493.1,826.4881 Q493.6938,826.2069 494.3188,825.6288 L494.3188,828.3475 Z " fill="#000000"/><text fill="#000000" font-family="sans-serif" font-size="14" lengthAdjust="spacing" textLength="115.0146" x="505.35" y="827.5536">RegisterUserDto</text><line style="stroke:#181818;stroke-width:0.5;" x1="477.35" x2="622.3646" y1="838.7069" y2="838.7069"/><ellipse cx="487.35" cy="852.3553" fill="none" rx="3" ry="3" style="stroke:#038048;stroke-width:1;"/><text fill="#000000" font-family="sans-serif" font-size="14" lengthAdjust="spacing" textLength="116.252" x="496.35" y="855.702">string Username</text><ellipse cx="487.35" cy="868.6522" fill="none" rx="3" ry="3" style="stroke:#038048;stroke-width:1;"/><text fill="#000000" font-family="sans-serif" font-size="14" lengthAdjust="spacing" textLength="110.9063" x="496.35" y="871.9989">string Password</text><ellipse cx="487.35" cy="884.9491" fill="none" rx="3" ry="3" style="stroke:#038048;stroke-width:1;"/><text fill="#000000" font-family="sans-serif" font-size="14" lengthAdjust="spacing" textLength="83.4805" x="496.35" y="888.2957">string Email</text><ellipse cx="487.35" cy="901.2459" fill="none" rx="3" ry="3" style="stroke:#038048;stroke-width:1;"/><text fill="#000000" font-family="sans-serif" font-size="14" lengthAdjust="spacing" textLength="100.2559" x="496.35" y="904.5926">string Country</text><line style="stroke:#181818;stroke-width:0.5;" x1="477.35" x2="622.3646" y1="911.8944" y2="911.8944"/></g><!--class LoginRequestDto--><g class="entity" data-entity="LoginRequestDto" data-source-line="43" data-uid="ent0008" id="entity_LoginRequestDto"><rect fill="#F1F1F1" height="80.5938" rx="2.5" ry="2.5" style="stroke:#181818;stroke-width:0.5;" width="152.3467" x="473.69" y="690.9969"/><ellipse cx="488.69" cy="706.9969" fill="#ADD1B2" rx="11" ry="11" style="stroke:#181818;stroke-width:1;"/><path d="M491.6588,712.6375 Q491.0806,712.9344 490.44,713.075 Q489.7994,713.2313 489.0963,713.2313 Q486.5963,713.2313 485.2681,711.5906 Q483.9556,709.9344 483.9556,706.8094 Q483.9556,703.6844 485.2681,702.0281 Q486.5963,700.3719 489.0963,700.3719 Q489.7994,700.3719 490.44,700.5281 Q491.0963,700.6844 491.6588,700.9813 L491.6588,703.7 Q491.0338,703.1219 490.44,702.8563 Q489.8463,702.575 489.2213,702.575 Q487.8775,702.575 487.19,703.6531 Q486.5025,704.7156 486.5025,706.8094 Q486.5025,708.9031 487.19,709.9813 Q487.8775,711.0438 489.2213,711.0438 Q489.8463,711.0438 490.44,710.7781 Q491.0338,710.4969 491.6588,709.9188 L491.6588,712.6375 Z " fill="#000000"/><text fill="#000000" font-family="sans-serif" font-size="14" lengthAdjust="spacing" textLength="120.3467" x="502.69" y="711.8436">LoginRequestDto</text><line style="stroke:#181818;stroke-width:0.5;" x1="474.69" x2="625.0367" y1="722.9969" y2="722.9969"/><ellipse cx="484.69" cy="736.6453" fill="none" rx="3" ry="3" style="stroke:#038048;stroke-width:1;"/><text fill="#000000" font-family="sans-serif" font-size="14" lengthAdjust="spacing" textLength="116.252" x="493.69" y="739.992">string Username</text><ellipse cx="484.69" cy="752.9422" fill="none" rx="3" ry="3" style="stroke:#038048;stroke-width:1;"/><text fill="#000000" font-family="sans-serif" font-size="14" lengthAdjust="spacing" textLength="110.9063" x="493.69" y="756.2889">string Password</text><line style="stroke:#181818;stroke-width:0.5;" x1="474.69" x2="625.0367" y1="763.5906" y2="763.5906"/></g><!--class AuthResponseDto--><g class="entity" data-entity="AuthResponseDto" data-source-line="48" data-uid="ent0009" id="entity_AuthResponseDto"><rect fill="#F1F1F1" height="129.4844" rx="2.5" ry="2.5" style="stroke:#181818;stroke-width:0.5;" width="157.5146" x="471.1" y="526.5569"/><ellipse cx="486.1" cy="542.5569" fill="#ADD1B2" rx="11" ry="11" style="stroke:#181818;stroke-width:1;"/><path d="M489.0688,548.1975 Q488.4906,548.4944 487.85,548.635 Q487.2094,548.7913 486.5063,548.7913 Q484.0063,548.7913 482.6781,547.1506 Q481.3656,545.4944 481.3656,542.3694 Q481.3656,539.2444 482.6781,537.5881 Q484.0063,535.9319 486.5063,535.9319 Q487.2094,535.9319 487.85,536.0881 Q488.5063,536.2444 489.0688,536.5413 L489.0688,539.26 Q488.4438,538.6819 487.85,538.4163 Q487.2563,538.135 486.6313,538.135 Q485.2875,538.135 484.6,539.2131 Q483.9125,540.2756 483.9125,542.3694 Q483.9125,544.4631 484.6,545.5413 Q485.2875,546.6038 486.6313,546.6038 Q487.2563,546.6038 487.85,546.3381 Q488.4438,546.0569 489.0688,545.4788 L489.0688,548.1975 Z " fill="#000000"/><text fill="#000000" font-family="sans-serif" font-size="14" lengthAdjust="spacing" textLength="125.5146" x="500.1" y="547.4036">AuthResponseDto</text><line style="stroke:#181818;stroke-width:0.5;" x1="472.1" x2="627.6146" y1="558.5569" y2="558.5569"/><ellipse cx="482.1" cy="572.2053" fill="none" rx="3" ry="3" style="stroke:#038048;stroke-width:1;"/><text fill="#000000" font-family="sans-serif" font-size="14" lengthAdjust="spacing" textLength="87.3496" x="491.1" y="575.552">string Token</text><ellipse cx="482.1" cy="588.5022" fill="none" rx="3" ry="3" style="stroke:#038048;stroke-width:1;"/><text fill="#000000" font-family="sans-serif" font-size="14" lengthAdjust="spacing" textLength="67.6279" x="491.1" y="591.8489">int UserId</text><ellipse cx="482.1" cy="604.7991" fill="none" rx="3" ry="3" style="stroke:#038048;stroke-width:1;"/><text fill="#000000" font-family="sans-serif" font-size="14" lengthAdjust="spacing" textLength="116.252" x="491.1" y="608.1457">string Username</text><ellipse cx="482.1" cy="621.0959" fill="none" rx="3" ry="3" style="stroke:#038048;stroke-width:1;"/><text fill="#000000" font-family="sans-serif" font-size="14" lengthAdjust="spacing" textLength="75.4346" x="491.1" y="624.4426">string Role</text><ellipse cx="482.1" cy="637.3928" fill="none" rx="3" ry="3" style="stroke:#038048;stroke-width:1;"/><text fill="#000000" font-family="sans-serif" font-size="14" lengthAdjust="spacing" textLength="100.2559" x="491.1" y="640.7395">string Country</text><line style="stroke:#181818;stroke-width:0.5;" x1="472.1" x2="627.6146" y1="648.0413" y2="648.0413"/></g><!--class UserResponseDto--><g class="entity" data-entity="UserResponseDto" data-source-line="56" data-uid="ent0010" id="entity_UserResponseDto"><rect fill="#F1F1F1" height="162.0781" rx="2.5" ry="2.5" style="stroke:#181818;stroke-width:0.5;" width="156.6123" x="743.58" y="779.2569"/><ellipse cx="758.58" cy="795.2569" fill="#ADD1B2" rx="11" ry="11" style="stroke:#181818;stroke-width:1;"/><path d="M761.5488,800.8975 Q760.9706,801.1944 760.33,801.335 Q759.6894,801.4913 758.9863,801.4913 Q756.4863,801.4913 755.1581,799.8506 Q753.8456,798.1944 753.8456,795.0694 Q753.8456,791.9444 755.1581,790.2881 Q756.4863,788.6319 758.9863,788.6319 Q759.6894,788.6319 760.33,788.7881 Q760.9863,788.9444 761.5488,789.2413 L761.5488,791.96 Q760.9238,791.3819 760.33,791.1163 Q759.7363,790.835 759.1113,790.835 Q757.7675,790.835 757.08,791.9131 Q756.3925,792.9756 756.3925,795.0694 Q756.3925,797.1631 757.08,798.2413 Q757.7675,799.3038 759.1113,799.3038 Q759.7363,799.3038 760.33,799.0381 Q760.9238,798.7569 761.5488,798.1788 L761.5488,800.8975 Z " fill="#000000"/><text fill="#000000" font-family="sans-serif" font-size="14" lengthAdjust="spacing" textLength="124.6123" x="772.58" y="800.1036">UserResponseDto</text><line style="stroke:#181818;stroke-width:0.5;" x1="744.58" x2="899.1923" y1="811.2569" y2="811.2569"/><ellipse cx="754.58" cy="824.9053" fill="none" rx="3" ry="3" style="stroke:#038048;stroke-width:1;"/><text fill="#000000" font-family="sans-serif" font-size="14" lengthAdjust="spacing" textLength="35.7178" x="763.58" y="828.252">int Id</text><ellipse cx="754.58" cy="841.2022" fill="none" rx="3" ry="3" style="stroke:#038048;stroke-width:1;"/><text fill="#000000" font-family="sans-serif" font-size="14" lengthAdjust="spacing" textLength="116.252" x="763.58" y="844.5489">string Username</text><ellipse cx="754.58" cy="857.4991" fill="none" rx="3" ry="3" style="stroke:#038048;stroke-width:1;"/><text fill="#000000" font-family="sans-serif" font-size="14" lengthAdjust="spacing" textLength="83.4805" x="763.58" y="860.8457">string Email</text><ellipse cx="754.58" cy="873.7959" fill="none" rx="3" ry="3" style="stroke:#038048;stroke-width:1;"/><text fill="#000000" font-family="sans-serif" font-size="14" lengthAdjust="spacing" textLength="116.4229" x="763.58" y="877.1426">string FirstName</text><ellipse cx="754.58" cy="890.0928" fill="none" rx="3" ry="3" style="stroke:#038048;stroke-width:1;"/><text fill="#000000" font-family="sans-serif" font-size="14" lengthAdjust="spacing" textLength="115.1035" x="763.58" y="893.4395">string LastName</text><ellipse cx="754.58" cy="906.3897" fill="none" rx="3" ry="3" style="stroke:#038048;stroke-width:1;"/><text fill="#000000" font-family="sans-serif" font-size="14" lengthAdjust="spacing" textLength="75.4346" x="763.58" y="909.7364">string Role</text><ellipse cx="754.58" cy="922.6866" fill="none" rx="3" ry="3" style="stroke:#038048;stroke-width:1;"/><text fill="#000000" font-family="sans-serif" font-size="14" lengthAdjust="spacing" textLength="100.2559" x="763.58" y="926.0332">string Country</text><line style="stroke:#181818;stroke-width:0.5;" x1="744.58" x2="899.1923" y1="933.335" y2="933.335"/></g><!--class UpdateUserDto--><g class="entity" data-entity="UpdateUserDto" data-source-line="66" data-uid="ent0011" id="entity_UpdateUserDto"><rect fill="#F1F1F1" height="113.1875" rx="2.5" ry="2.5" style="stroke:#181818;stroke-width:0.5;" width="142.4229" x="750.67" y="630.7069"/><ellipse cx="767.009" cy="646.7069" fill="#ADD1B2" rx="11" ry="11" style="stroke:#181818;stroke-width:1;"/><path d="M769.9778,652.3475 Q769.3996,652.6444 768.759,652.785 Q768.1184,652.9413 767.4153,652.9413 Q764.9153,652.9413 763.5871,651.3006 Q762.2746,649.6444 762.2746,646.5194 Q762.2746,643.3944 763.5871,641.7381 Q764.9153,640.0819 767.4153,640.0819 Q768.1184,640.0819 768.759,640.2381 Q769.4153,640.3944 769.9778,640.6913 L769.9778,643.41 Q769.3528,642.8319 768.759,642.5663 Q768.1653,642.285 767.5403,642.285 Q766.1965,642.285 765.509,643.3631 Q764.8215,644.4256 764.8215,646.5194 Q764.8215,648.6131 765.509,649.6913 Q766.1965,650.7538 767.5403,650.7538 Q768.1653,650.7538 768.759,650.4881 Q769.3528,650.2069 769.9778,649.6288 L769.9778,652.3475 Z " fill="#000000"/><text fill="#000000" font-family="sans-serif" font-size="14" lengthAdjust="spacing" textLength="107.4473" x="781.3066" y="651.5536">UpdateUserDto</text><line style="stroke:#181818;stroke-width:0.5;" x1="751.67" x2="892.0929" y1="662.7069" y2="662.7069"/><ellipse cx="761.67" cy="676.3553" fill="none" rx="3" ry="3" style="stroke:#038048;stroke-width:1;"/><text fill="#000000" font-family="sans-serif" font-size="14" lengthAdjust="spacing" textLength="83.4805" x="770.67" y="679.702">string Email</text><ellipse cx="761.67" cy="692.6522" fill="none" rx="3" ry="3" style="stroke:#038048;stroke-width:1;"/><text fill="#000000" font-family="sans-serif" font-size="14" lengthAdjust="spacing" textLength="116.4229" x="770.67" y="695.9989">string FirstName</text><ellipse cx="761.67" cy="708.9491" fill="none" rx="3" ry="3" style="stroke:#038048;stroke-width:1;"/><text fill="#000000" font-family="sans-serif" font-size="14" lengthAdjust="spacing" textLength="115.1035" x="770.67" y="712.2957">string LastName</text><ellipse cx="761.67" cy="725.2459" fill="none" rx="3" ry="3" style="stroke:#038048;stroke-width:1;"/><text fill="#000000" font-family="sans-serif" font-size="14" lengthAdjust="spacing" textLength="100.2559" x="770.67" y="728.5926">string Country</text><line style="stroke:#181818;stroke-width:0.5;" x1="751.67" x2="892.0929" y1="735.8944" y2="735.8944"/></g><!--class PlaceOrderRequestDto--><g class="entity" data-entity="PlaceOrderRequestDto" data-source-line="73" data-uid="ent0012" id="entity_PlaceOrderRequestDto"><rect fill="#F1F1F1" height="64.2969" rx="2.5" ry="2.5" style="stroke:#181818;stroke-width:0.5;" width="214.2822" x="79.93" y="302.1469"/><ellipse cx="105.1438" cy="318.1469" fill="#ADD1B2" rx="11" ry="11" style="stroke:#181818;stroke-width:1;"/><path d="M108.1125,323.7875 Q107.5344,324.0844 106.8938,324.225 Q106.2531,324.3813 105.55,324.3813 Q103.05,324.3813 101.7219,322.7406 Q100.4094,321.0844 100.4094,317.9594 Q100.4094,314.8344 101.7219,313.1781 Q103.05,311.5219 105.55,311.5219 Q106.2531,311.5219 106.8938,311.6781 Q107.55,311.8344 108.1125,312.1313 L108.1125,314.85 Q107.4875,314.2719 106.8938,314.0063 Q106.3,313.725 105.675,313.725 Q104.3313,313.725 103.6438,314.8031 Q102.9563,315.8656 102.9563,317.9594 Q102.9563,320.0531 103.6438,321.1313 Q104.3313,322.1938 105.675,322.1938 Q106.3,322.1938 106.8938,321.9281 Q107.4875,321.6469 108.1125,321.0688 L108.1125,323.7875 Z " fill="#000000"/><text fill="#000000" font-family="sans-serif" font-size="14" lengthAdjust="spacing" textLength="159.585" x="121.4135" y="322.9936">PlaceOrderRequestDto</text><line style="stroke:#181818;stroke-width:0.5;" x1="80.93" x2="293.2122" y1="334.1469" y2="334.1469"/><ellipse cx="90.93" cy="347.7953" fill="none" rx="3" ry="3" style="stroke:#038048;stroke-width:1;"/><text fill="#000000" font-family="sans-serif" font-size="14" lengthAdjust="spacing" textLength="188.2822" x="99.93" y="351.142">List&lt;OrderItemDto&gt; Items</text><line style="stroke:#181818;stroke-width:0.5;" x1="80.93" x2="293.2122" y1="358.4438" y2="358.4438"/></g><!--class OrderItemDto--><g class="entity" data-entity="OrderItemDto" data-source-line="77" data-uid="ent0013" id="entity_OrderItemDto"><rect fill="#F1F1F1" height="80.5938" rx="2.5" ry="2.5" style="stroke:#181818;stroke-width:0.5;" width="128.7354" x="485.49" y="301.9969"/><ellipse cx="500.49" cy="317.9969" fill="#ADD1B2" rx="11" ry="11" style="stroke:#181818;stroke-width:1;"/><path d="M503.4588,323.6375 Q502.8806,323.9344 502.24,324.075 Q501.5994,324.2313 500.8963,324.2313 Q498.3963,324.2313 497.0681,322.5906 Q495.7556,320.9344 495.7556,317.8094 Q495.7556,314.6844 497.0681,313.0281 Q498.3963,311.3719 500.8963,311.3719 Q501.5994,311.3719 502.24,311.5281 Q502.8963,311.6844 503.4588,311.9813 L503.4588,314.7 Q502.8338,314.1219 502.24,313.8563 Q501.6463,313.575 501.0213,313.575 Q499.6775,313.575 498.99,314.6531 Q498.3025,315.7156 498.3025,317.8094 Q498.3025,319.9031 498.99,320.9813 Q499.6775,322.0438 501.0213,322.0438 Q501.6463,322.0438 502.24,321.7781 Q502.8338,321.4969 503.4588,320.9188 L503.4588,323.6375 Z " fill="#000000"/><text fill="#000000" font-family="sans-serif" font-size="14" lengthAdjust="spacing" textLength="96.7354" x="514.49" y="322.8436">OrderItemDto</text><line style="stroke:#181818;stroke-width:0.5;" x1="486.49" x2="613.2254" y1="333.9969" y2="333.9969"/><ellipse cx="496.49" cy="347.6453" fill="none" rx="3" ry="3" style="stroke:#038048;stroke-width:1;"/><text fill="#000000" font-family="sans-serif" font-size="14" lengthAdjust="spacing" textLength="80.1172" x="505.49" y="350.992">int CandyId</text><ellipse cx="496.49" cy="363.9422" fill="none" rx="3" ry="3" style="stroke:#038048;stroke-width:1;"/><text fill="#000000" font-family="sans-serif" font-size="14" lengthAdjust="spacing" textLength="83.2002" x="505.49" y="367.2889">int Quantity</text><line style="stroke:#181818;stroke-width:0.5;" x1="486.49" x2="613.2254" y1="374.5906" y2="374.5906"/></g><!--class OrderResponseDto--><g class="entity" data-entity="OrderResponseDto" data-source-line="82" data-uid="ent0014" id="entity_OrderResponseDto"><rect fill="#F1F1F1" height="145.7813" rx="2.5" ry="2.5" style="stroke:#181818;stroke-width:0.5;" width="282.1494" x="46" y="121.4069"/><ellipse cx="116.458" cy="137.4069" fill="#ADD1B2" rx="11" ry="11" style="stroke:#181818;stroke-width:1;"/><path d="M119.4268,143.0475 Q118.8486,143.3444 118.208,143.485 Q117.5674,143.6413 116.8643,143.6413 Q114.3643,143.6413 113.0361,142.0006 Q111.7236,140.3444 111.7236,137.2194 Q111.7236,134.0944 113.0361,132.4381 Q114.3643,130.7819 116.8643,130.7819 Q117.5674,130.7819 118.208,130.9381 Q118.8643,131.0944 119.4268,131.3913 L119.4268,134.11 Q118.8018,133.5319 118.208,133.2663 Q117.6143,132.985 116.9893,132.985 Q115.6455,132.985 114.958,134.0631 Q114.2705,135.1256 114.2705,137.2194 Q114.2705,139.3131 114.958,140.3913 Q115.6455,141.4538 116.9893,141.4538 Q117.6143,141.4538 118.208,141.1881 Q118.8018,140.9069 119.4268,140.3288 L119.4268,143.0475 Z " fill="#000000"/><text fill="#000000" font-family="sans-serif" font-size="14" lengthAdjust="spacing" textLength="132.7334" x="136.958" y="142.2536">OrderResponseDto</text><line style="stroke:#181818;stroke-width:0.5;" x1="47" x2="327.1494" y1="153.4069" y2="153.4069"/><ellipse cx="57" cy="167.0553" fill="none" rx="3" ry="3" style="stroke:#038048;stroke-width:1;"/><text fill="#000000" font-family="sans-serif" font-size="14" lengthAdjust="spacing" textLength="35.7178" x="66" y="170.402">int Id</text><ellipse cx="57" cy="183.3522" fill="none" rx="3" ry="3" style="stroke:#038048;stroke-width:1;"/><text fill="#000000" font-family="sans-serif" font-size="14" lengthAdjust="spacing" textLength="146.0977" x="66" y="186.6989">DateTime OrderDate</text><ellipse cx="57" cy="199.6491" fill="none" rx="3" ry="3" style="stroke:#038048;stroke-width:1;"/><text fill="#000000" font-family="sans-serif" font-size="14" lengthAdjust="spacing" textLength="89.25" x="66" y="202.9957">string Status</text><ellipse cx="57" cy="215.9459" fill="none" rx="3" ry="3" style="stroke:#038048;stroke-width:1;"/><text fill="#000000" font-family="sans-serif" font-size="14" lengthAdjust="spacing" textLength="256.1494" x="66" y="219.2926">List&lt;OrderItemResponseDto&gt; Items</text><ellipse cx="57" cy="232.2428" fill="none" rx="3" ry="3" style="stroke:#038048;stroke-width:1;"/><text fill="#000000" font-family="sans-serif" font-size="14" lengthAdjust="spacing" textLength="175.1504" x="66" y="235.5895">decimal TotalTaxAmount</text><ellipse cx="57" cy="248.5397" fill="none" rx="3" ry="3" style="stroke:#038048;stroke-width:1;"/><text fill="#000000" font-family="sans-serif" font-size="14" lengthAdjust="spacing" textLength="186.6279" x="66" y="251.8864">decimal TotalPriceWithTax</text><line style="stroke:#181818;stroke-width:0.5;" x1="47" x2="327.1494" y1="259.1881" y2="259.1881"/></g><!--class OrderItemResponseDto--><g class="entity" data-entity="OrderItemResponseDto" data-source-line="91" data-uid="ent0015" id="entity_OrderItemResponseDto"><rect fill="#F1F1F1" height="145.7813" rx="2.5" ry="2.5" style="stroke:#181818;stroke-width:0.5;" width="209.4219" x="445.15" y="121.4069"/><ellipse cx="465.9187" cy="137.4069" fill="#ADD1B2" rx="11" ry="11" style="stroke:#181818;stroke-width:1;"/><path d="M468.8875,143.0475 Q468.3093,143.3444 467.6687,143.485 Q467.0281,143.6413 466.325,143.6413 Q463.825,143.6413 462.4968,142.0006 Q461.1843,140.3444 461.1843,137.2194 Q461.1843,134.0944 462.4968,132.4381 Q463.825,130.7819 466.325,130.7819 Q467.0281,130.7819 467.6687,130.9381 Q468.325,131.0944 468.8875,131.3913 L468.8875,134.11 Q468.2625,133.5319 467.6687,133.2663 Q467.075,132.985 466.45,132.985 Q465.1062,132.985 464.4187,134.0631 Q463.7312,135.1256 463.7312,137.2194 Q463.7312,139.3131 464.4187,140.3913 Q465.1062,141.4538 466.45,141.4538 Q467.075,141.4538 467.6687,141.1881 Q468.2625,140.9069 468.8875,140.3288 L468.8875,143.0475 Z " fill="#000000"/><text fill="#000000" font-family="sans-serif" font-size="14" lengthAdjust="spacing" textLength="164.6025" x="481.2006" y="142.2536">OrderItemResponseDto</text><line style="stroke:#181818;stroke-width:0.5;" x1="446.15" x2="653.5719" y1="153.4069" y2="153.4069"/><ellipse cx="456.15" cy="167.0553" fill="none" rx="3" ry="3" style="stroke:#038048;stroke-width:1;"/><text fill="#000000" font-family="sans-serif" font-size="14" lengthAdjust="spacing" textLength="80.1172" x="465.15" y="170.402">int CandyId</text><ellipse cx="456.15" cy="183.3522" fill="none" rx="3" ry="3" style="stroke:#038048;stroke-width:1;"/><text fill="#000000" font-family="sans-serif" font-size="14" lengthAdjust="spacing" textLength="130.3408" x="465.15" y="186.6989">string CandyName</text><ellipse cx="456.15" cy="199.6491" fill="none" rx="3" ry="3" style="stroke:#038048;stroke-width:1;"/><text fill="#000000" font-family="sans-serif" font-size="14" lengthAdjust="spacing" textLength="83.2002" x="465.15" y="202.9957">int Quantity</text><ellipse cx="456.15" cy="215.9459" fill="none" rx="3" ry="3" style="stroke:#038048;stroke-width:1;"/><text fill="#000000" font-family="sans-serif" font-size="14" lengthAdjust="spacing" textLength="122.541" x="465.15" y="219.2926">decimal UnitPrice</text><ellipse cx="456.15" cy="232.2428" fill="none" rx="3" ry="3" style="stroke:#038048;stroke-width:1;"/><text fill="#000000" font-family="sans-serif" font-size="14" lengthAdjust="spacing" textLength="170.0986" x="465.15" y="235.5895">decimal TaxRateApplied</text><ellipse cx="456.15" cy="248.5397" fill="none" rx="3" ry="3" style="stroke:#038048;stroke-width:1;"/><text fill="#000000" font-family="sans-serif" font-size="14" lengthAdjust="spacing" textLength="183.4219" x="465.15" y="251.8864">decimal ItemPriceWithTax</text><line style="stroke:#181818;stroke-width:0.5;" x1="446.15" x2="653.5719" y1="259.1881" y2="259.1881"/></g><!--class OrderHistoryItemDto--><g class="entity" data-entity="OrderHistoryItemDto" data-source-line="100" data-uid="ent0016" id="entity_OrderHistoryItemDto"><rect fill="#F1F1F1" height="145.7813" rx="2.5" ry="2.5" style="stroke:#181818;stroke-width:0.5;" width="212.6279" x="715.57" y="450.4069"/><ellipse cx="745.9087" cy="466.4069" fill="#ADD1B2" rx="11" ry="11" style="stroke:#181818;stroke-width:1;"/><path d="M748.8774,472.0475 Q748.2993,472.3444 747.6587,472.485 Q747.018,472.6413 746.3149,472.6413 Q743.8149,472.6413 742.4868,471.0006 Q741.1743,469.3444 741.1743,466.2194 Q741.1743,463.0944 742.4868,461.4381 Q743.8149,459.7819 746.3149,459.7819 Q747.018,459.7819 747.6587,459.9381 Q748.3149,460.0944 748.8774,460.3913 L748.8774,463.11 Q748.2524,462.5319 747.6587,462.2663 Q747.0649,461.985 746.4399,461.985 Q745.0962,461.985 744.4087,463.0631 Q743.7212,464.1256 743.7212,466.2194 Q743.7212,468.3131 744.4087,469.3913 Q745.0962,470.4538 746.4399,470.4538 Q747.0649,470.4538 747.6587,470.1881 Q748.2524,469.9069 748.8774,469.3288 L748.8774,472.0475 Z " fill="#000000"/><text fill="#000000" font-family="sans-serif" font-size="14" lengthAdjust="spacing" textLength="146.542" x="763.3173" y="471.2536">OrderHistoryItemDto</text><line style="stroke:#181818;stroke-width:0.5;" x1="716.57" x2="927.1979" y1="482.4069" y2="482.4069"/><ellipse cx="726.57" cy="496.0553" fill="none" rx="3" ry="3" style="stroke:#038048;stroke-width:1;"/><text fill="#000000" font-family="sans-serif" font-size="14" lengthAdjust="spacing" textLength="75.749" x="735.57" y="499.402">int OrderId</text><ellipse cx="726.57" cy="512.3522" fill="none" rx="3" ry="3" style="stroke:#038048;stroke-width:1;"/><text fill="#000000" font-family="sans-serif" font-size="14" lengthAdjust="spacing" textLength="146.0977" x="735.57" y="515.6989">DateTime OrderDate</text><ellipse cx="726.57" cy="528.6491" fill="none" rx="3" ry="3" style="stroke:#038048;stroke-width:1;"/><text fill="#000000" font-family="sans-serif" font-size="14" lengthAdjust="spacing" textLength="89.25" x="735.57" y="531.9957">string Status</text><ellipse cx="726.57" cy="544.9459" fill="none" rx="3" ry="3" style="stroke:#038048;stroke-width:1;"/><text fill="#000000" font-family="sans-serif" font-size="14" lengthAdjust="spacing" textLength="175.1504" x="735.57" y="548.2926">decimal TotalTaxAmount</text><ellipse cx="726.57" cy="561.2428" fill="none" rx="3" ry="3" style="stroke:#038048;stroke-width:1;"/><text fill="#000000" font-family="sans-serif" font-size="14" lengthAdjust="spacing" textLength="186.6279" x="735.57" y="564.5895">decimal TotalPriceWithTax</text><ellipse cx="726.57" cy="577.5397" fill="none" rx="3" ry="3" style="stroke:#038048;stroke-width:1;"/><text fill="#000000" font-family="sans-serif" font-size="14" lengthAdjust="spacing" textLength="134.0527" x="735.57" y="580.8864">int NumberOfItems</text><line style="stroke:#181818;stroke-width:0.5;" x1="716.57" x2="927.1979" y1="588.1881" y2="588.1881"/></g><!--link PlaceOrderRequestDto to OrderItemDto--><g class="link" data-entity-1="PlaceOrderRequestDto" data-entity-2="OrderItemDto" data-source-line="110" data-uid="lnk17" id="link_PlaceOrderRequestDto_OrderItemDto"><path codeLine="110" d="M294.37,336.6569 C356.31,338.0269 426.3615,339.5838 479.1115,340.7538" fill="none" id="PlaceOrderRequestDto-to-OrderItemDto" style="stroke:#181818;stroke-width:1;"/><polygon fill="#181818" points="485.11,340.8869,476.2009,336.6883,480.1112,340.776,476.0235,344.6863,485.11,340.8869" style="stroke:#181818;stroke-width:1;"/><text fill="#000000" font-family="sans-serif" font-size="13" lengthAdjust="spacing" textLength="55.0278" x="359.15" y="334.3638">contains</text><text fill="#000000" font-family="sans-serif" font-size="13" lengthAdjust="spacing" textLength="6.5" x="302.143" y="349.4218">*</text><text fill="#000000" font-family="sans-serif" font-size="13" lengthAdjust="spacing" textLength="8.271" x="469.1767" y="353.666">1</text></g><!--link OrderResponseDto to OrderItemResponseDto--><g class="link" data-entity-1="OrderResponseDto" data-entity-2="OrderItemResponseDto" data-source-line="111" data-uid="lnk18" id="link_OrderResponseDto_OrderItemResponseDto"><path codeLine="111" d="M328.6,194.2969 C367.28,194.2969 402.53,194.2969 438.76,194.2969" fill="none" id="OrderResponseDto-to-OrderItemResponseDto" style="stroke:#181818;stroke-width:1;"/><polygon fill="#181818" points="444.76,194.2969,435.76,190.2969,439.76,194.2969,435.76,198.2969,444.76,194.2969" style="stroke:#181818;stroke-width:1;"/><text fill="#000000" font-family="sans-serif" font-size="13" lengthAdjust="spacing" textLength="55.0278" x="359.15" y="190.3638">contains</text><text fill="#000000" font-family="sans-serif" font-size="13" lengthAdjust="spacing" textLength="6.5" x="336.065" y="206.7539">*</text><text fill="#000000" font-family="sans-serif" font-size="13" lengthAdjust="spacing" textLength="8.271" x="428.7579" y="206.9194">1</text></g><!--SRC=[rLPDZzCm4BtdLunoMHQq20vS45gfjAoeL6rBjnLdRpnDJHqxs1D1XVhViTEopOTTMh4NSchdpOpVcnbFSWKFIC25mOo4Lh3I1cYDpi9omuf4ueg0D1YHhnj-IKA29CA84OE5OSgkqC3qyPk3BRmOBQRsEabAbcrOZf2-UVSQlCqXeO3h57ubu9vCCcjXmFcGARwTu_SABOtSyNlOFw_0aX4gXtjMODywGfiPKTOSZo37J1HCmeBzl3E8CoEoPgnG10-aiysNYYadRDl1FZg-VCmxrY4ZpBNP7e1Tqf2mBBb3_tSL1_wsrCfYMy0Xkf4kekcqgB-fQk0ry5NGsZbsQOHb7u-kfKTe_Id04MxLO8wvi8HcQT54UkWX5UpZp6NueGtl8vyA9cJVFDIL8hFjjsAYSw5EZzAPD5ff1nMjmmr-2bxe3QhEqFYZnlmI2dCjyGAvFb6CLsVkpZWyKkmxOIo5B-24nP1BXTIBuCJmF2UtA8kPP1bE3VT53OoGop1nG_wXzXWJ5Ww-1V_3DdCTaZMz-XkXtXdjjU3DxSiPI7Z1cd7l45o80lU1_b_WMZyGeyh69JREQqhjBYLDJBg5CoXyQQCU_TqKATb9bO7IFUqeXtJtLx-iRMPB9IYwJHtHkIlSe2obG1xoy7JFqlNPrTM_G68JiHV_71tyvwuSITrNnIEQwQhH-LsoIwvWhCYl4Uc_Ly2WPFvzPTUYj4dm5gKlKxYvkONqRTg-6UyXqugOK3Rf3NWmgEbm3FuD]--></g></svg>