<svg xmlns="http://www.w3.org/2000/svg" xmlns:xlink="http://www.w3.org/1999/xlink" contentStyleType="text/css" data-diagram-type="CLASS" height="625px" preserveAspectRatio="none" style="width:1055px;height:625px;background:#FFFFFF;" version="1.1" viewBox="0 0 1055 625" width="1055px" zoomAndPan="magnify"><title>Entity Model</title><defs/><g><g class="title" data-source-line="4"><text fill="#000000" font-family="sans-serif" font-size="14" font-weight="bold" lengthAdjust="spacing" textLength="99.5791" x="470.9354" y="22.9951">Entity Model</text></g><!--cluster 01--><g class="cluster" data-entity="01" data-source-line="7" data-uid="ent0004" id="cluster_01"><path d="M8.5,43.2969 L28.9824,43.2969 A3.75,3.75 0 0 1 31.4824,45.7969 L38.4824,65.5938 L1045.95,65.5938 A2.5,2.5 0 0 1 1048.45,68.0938 L1048.45,615.7969 A2.5,2.5 0 0 1 1045.95,618.2969 L8.5,618.2969 A2.5,2.5 0 0 1 6,615.7969 L6,45.7969 A2.5,2.5 0 0 1 8.5,43.2969" fill="none" style="stroke:#000000;stroke-width:1.5;"/><line style="stroke:#000000;stroke-width:1.5;" x1="6" x2="38.4824" y1="65.5938" y2="65.5938"/><text fill="#000000" font-family="sans-serif" font-size="14" font-weight="bold" lengthAdjust="spacing" textLength="19.4824" x="10" y="58.292">01</text></g><!--cluster  Entities--><g class="cluster" data-entity=" Entities" data-source-line="6" data-uid="ent0002" id="cluster_ Entities"><path d="M32.5,86.2969 L98.7148,86.2969 A3.75,3.75 0 0 1 101.2148,88.7969 L108.2148,108.5938 L1021.95,108.5938 A2.5,2.5 0 0 1 1024.45,111.0938 L1024.45,591.7969 A2.5,2.5 0 0 1 1021.95,594.2969 L32.5,594.2969 A2.5,2.5 0 0 1 30,591.7969 L30,88.7969 A2.5,2.5 0 0 1 32.5,86.2969" fill="none" style="stroke:#000000;stroke-width:1.5;"/><line style="stroke:#000000;stroke-width:1.5;" x1="30" x2="108.2148" y1="108.5938" y2="108.5938"/><text fill="#000000" font-family="sans-serif" font-size="14" font-weight="bold" lengthAdjust="spacing" textLength="60.3408" x="38.874" y="101.292">Entities</text></g><!--class Brand--><g class="entity" data-entity="Brand" data-source-line="7" data-uid="ent0003" id="entity_Brand"><rect fill="#F1F1F1" height="80.5938" rx="2.5" ry="2.5" style="stroke:#181818;stroke-width:0.5;" width="111.9414" x="97.35" y="486.9969"/><ellipse cx="129.559" cy="502.9969" fill="#ADD1B2" rx="11" ry="11" style="stroke:#181818;stroke-width:1;"/><path d="M132.5277,508.6375 Q131.9496,508.9344 131.309,509.075 Q130.6684,509.2313 129.9652,509.2313 Q127.4652,509.2313 126.1371,507.5906 Q124.8246,505.9344 124.8246,502.8094 Q124.8246,499.6844 126.1371,498.0281 Q127.4652,496.3719 129.9652,496.3719 Q130.6684,496.3719 131.309,496.5281 Q131.9652,496.6844 132.5277,496.9813 L132.5277,499.7 Q131.9027,499.1219 131.309,498.8563 Q130.7152,498.575 130.0902,498.575 Q128.7465,498.575 128.059,499.6531 Q127.3715,500.7156 127.3715,502.8094 Q127.3715,504.9031 128.059,505.9813 Q128.7465,507.0438 130.0902,507.0438 Q130.7152,507.0438 131.309,506.7781 Q131.9027,506.4969 132.5277,505.9188 L132.5277,508.6375 Z " fill="#000000"/><text fill="#000000" font-family="sans-serif" font-size="14" lengthAdjust="spacing" textLength="41.6992" x="147.3832" y="507.8436">Brand</text><line style="stroke:#181818;stroke-width:0.5;" x1="98.35" x2="208.2914" y1="518.9969" y2="518.9969"/><ellipse cx="108.35" cy="532.6453" fill="none" rx="3" ry="3" style="stroke:#038048;stroke-width:1;"/><text fill="#000000" font-family="sans-serif" font-size="14" lengthAdjust="spacing" textLength="35.7178" x="117.35" y="535.992">int Id</text><ellipse cx="108.35" cy="548.9422" fill="none" rx="3" ry="3" style="stroke:#038048;stroke-width:1;"/><text fill="#000000" font-family="sans-serif" font-size="14" lengthAdjust="spacing" textLength="85.9414" x="117.35" y="552.2889">string Name</text><line style="stroke:#181818;stroke-width:0.5;" x1="98.35" x2="208.2914" y1="559.5906" y2="559.5906"/></g><!--class Category--><g class="entity" data-entity="Category" data-source-line="12" data-uid="ent0005" id="entity_Category"><rect fill="#F1F1F1" height="80.5938" rx="2.5" ry="2.5" style="stroke:#181818;stroke-width:0.5;" width="111.9414" x="97.35" y="370.9969"/><ellipse cx="119.546" cy="386.9969" fill="#ADD1B2" rx="11" ry="11" style="stroke:#181818;stroke-width:1;"/><path d="M122.5148,392.6375 Q121.9367,392.9344 121.296,393.075 Q120.6554,393.2313 119.9523,393.2313 Q117.4523,393.2313 116.1242,391.5906 Q114.8117,389.9344 114.8117,386.8094 Q114.8117,383.6844 116.1242,382.0281 Q117.4523,380.3719 119.9523,380.3719 Q120.6554,380.3719 121.296,380.5281 Q121.9523,380.6844 122.5148,380.9813 L122.5148,383.7 Q121.8898,383.1219 121.296,382.8563 Q120.7023,382.575 120.0773,382.575 Q118.7335,382.575 118.046,383.6531 Q117.3585,384.7156 117.3585,386.8094 Q117.3585,388.9031 118.046,389.9813 Q118.7335,391.0438 120.0773,391.0438 Q120.7023,391.0438 121.296,390.7781 Q121.8898,390.4969 122.5148,389.9188 L122.5148,392.6375 Z " fill="#000000"/><text fill="#000000" font-family="sans-serif" font-size="14" lengthAdjust="spacing" textLength="63.9502" x="135.1452" y="391.8436">Category</text><line style="stroke:#181818;stroke-width:0.5;" x1="98.35" x2="208.2914" y1="402.9969" y2="402.9969"/><ellipse cx="108.35" cy="416.6453" fill="none" rx="3" ry="3" style="stroke:#038048;stroke-width:1;"/><text fill="#000000" font-family="sans-serif" font-size="14" lengthAdjust="spacing" textLength="35.7178" x="117.35" y="419.992">int Id</text><ellipse cx="108.35" cy="432.9422" fill="none" rx="3" ry="3" style="stroke:#038048;stroke-width:1;"/><text fill="#000000" font-family="sans-serif" font-size="14" lengthAdjust="spacing" textLength="85.9414" x="117.35" y="436.2889">string Name</text><line style="stroke:#181818;stroke-width:0.5;" x1="98.35" x2="208.2914" y1="443.5906" y2="443.5906"/></g><!--class Candy--><g class="entity" data-entity="Candy" data-source-line="17" data-uid="ent0006" id="entity_Candy"><rect fill="#F1F1F1" height="243.5625" rx="2.5" ry="2.5" style="stroke:#181818;stroke-width:0.5;" width="278.3828" x="390.64" y="334.5169"/><ellipse cx="503.3817" cy="350.5169" fill="#ADD1B2" rx="11" ry="11" style="stroke:#181818;stroke-width:1;"/><path d="M506.3504,356.1575 Q505.7723,356.4544 505.1317,356.595 Q504.4911,356.7513 503.7879,356.7513 Q501.2879,356.7513 499.9598,355.1106 Q498.6473,353.4544 498.6473,350.3294 Q498.6473,347.2044 499.9598,345.5481 Q501.2879,343.8919 503.7879,343.8919 Q504.4911,343.8919 505.1317,344.0481 Q505.7879,344.2044 506.3504,344.5013 L506.3504,347.22 Q505.7254,346.6419 505.1317,346.3763 Q504.5379,346.095 503.9129,346.095 Q502.5692,346.095 501.8817,347.1731 Q501.1942,348.2356 501.1942,350.3294 Q501.1942,352.4231 501.8817,353.5013 Q502.5692,354.5638 503.9129,354.5638 Q504.5379,354.5638 505.1317,354.2981 Q505.7254,354.0169 506.3504,353.4388 L506.3504,356.1575 Z " fill="#000000"/><text fill="#000000" font-family="sans-serif" font-size="14" lengthAdjust="spacing" textLength="44.3994" x="523.8817" y="355.3636">Candy</text><line style="stroke:#181818;stroke-width:0.5;" x1="391.64" x2="668.0228" y1="366.5169" y2="366.5169"/><ellipse cx="401.64" cy="380.1653" fill="none" rx="3" ry="3" style="stroke:#038048;stroke-width:1;"/><text fill="#000000" font-family="sans-serif" font-size="14" lengthAdjust="spacing" textLength="35.7178" x="410.64" y="383.512">int Id</text><ellipse cx="401.64" cy="396.4622" fill="none" rx="3" ry="3" style="stroke:#038048;stroke-width:1;"/><text fill="#000000" font-family="sans-serif" font-size="14" lengthAdjust="spacing" textLength="85.9414" x="410.64" y="399.8089">string Name</text><ellipse cx="401.64" cy="412.7591" fill="none" rx="3" ry="3" style="stroke:#038048;stroke-width:1;"/><text fill="#000000" font-family="sans-serif" font-size="14" lengthAdjust="spacing" textLength="124.373" x="410.64" y="416.1057">string Description</text><ellipse cx="401.64" cy="429.0559" fill="none" rx="3" ry="3" style="stroke:#038048;stroke-width:1;"/><text fill="#000000" font-family="sans-serif" font-size="14" lengthAdjust="spacing" textLength="150.4932" x="410.64" y="432.4026">decimal TaxFreePrice</text><ellipse cx="401.64" cy="445.3528" fill="none" rx="3" ry="3" style="stroke:#038048;stroke-width:1;"/><text fill="#000000" font-family="sans-serif" font-size="14" lengthAdjust="spacing" textLength="121.9463" x="410.64" y="448.6995">int StockQuantity</text><ellipse cx="401.64" cy="481.9466" fill="none" rx="3" ry="3" style="stroke:#038048;stroke-width:1;"/><text fill="#000000" font-family="sans-serif" font-size="14" lengthAdjust="spacing" textLength="77.417" x="410.64" y="485.2932">int BrandId</text><ellipse cx="401.64" cy="498.2434" fill="none" rx="3" ry="3" style="stroke:#038048;stroke-width:1;"/><text fill="#000000" font-family="sans-serif" font-size="14" lengthAdjust="spacing" textLength="99.668" x="410.64" y="501.5901">int CategoryId</text><line style="stroke:#181818;stroke-width:1;" x1="391.64" x2="484.6014" y1="464.1497" y2="464.1497"/><text fill="#000000" font-family="sans-serif" font-size="14" lengthAdjust="spacing" textLength="90.46" x="484.6014" y="468.4964">Foreign Keys</text><line style="stroke:#181818;stroke-width:1;" x1="575.0614" x2="668.0228" y1="464.1497" y2="464.1497"/><ellipse cx="401.64" cy="534.8372" fill="none" rx="3" ry="3" style="stroke:#038048;stroke-width:1;"/><text fill="#000000" font-family="sans-serif" font-size="14" lengthAdjust="spacing" textLength="87.8486" x="410.64" y="538.1839">Brand Brand</text><ellipse cx="401.64" cy="551.1341" fill="none" rx="3" ry="3" style="stroke:#038048;stroke-width:1;"/><text fill="#000000" font-family="sans-serif" font-size="14" lengthAdjust="spacing" textLength="132.3506" x="410.64" y="554.4807">Category Category</text><ellipse cx="401.64" cy="567.4309" fill="none" rx="3" ry="3" style="stroke:#038048;stroke-width:1;"/><text fill="#000000" font-family="sans-serif" font-size="14" lengthAdjust="spacing" textLength="252.3828" x="410.64" y="570.7776">ICollection&lt;OrderItem&gt; OrderItems</text><line style="stroke:#181818;stroke-width:1;" x1="391.64" x2="454.1986" y1="517.0403" y2="517.0403"/><text fill="#000000" font-family="sans-serif" font-size="14" lengthAdjust="spacing" textLength="151.2656" x="454.1986" y="521.387">Navigation Properties</text><line style="stroke:#181818;stroke-width:1;" x1="605.4642" x2="668.0228" y1="517.0403" y2="517.0403"/></g><!--class User--><g class="entity" data-entity="User" data-source-line="32" data-uid="ent0007" id="entity_User"><rect fill="#F1F1F1" height="194.6719" rx="2.5" ry="2.5" style="stroke:#181818;stroke-width:0.5;" width="214.6445" x="46" y="120.9569"/><ellipse cx="133.1172" cy="136.9569" fill="#ADD1B2" rx="11" ry="11" style="stroke:#181818;stroke-width:1;"/><path d="M136.0859,142.5975 Q135.5078,142.8944 134.8672,143.035 Q134.2266,143.1912 133.5234,143.1912 Q131.0234,143.1912 129.6953,141.5506 Q128.3828,139.8944 128.3828,136.7694 Q128.3828,133.6444 129.6953,131.9881 Q131.0234,130.3319 133.5234,130.3319 Q134.2266,130.3319 134.8672,130.4881 Q135.5234,130.6444 136.0859,130.9412 L136.0859,133.66 Q135.4609,133.0819 134.8672,132.8162 Q134.2734,132.535 133.6484,132.535 Q132.3047,132.535 131.6172,133.6131 Q130.9297,134.6756 130.9297,136.7694 Q130.9297,138.8631 131.6172,139.9412 Q132.3047,141.0037 133.6484,141.0037 Q134.2734,141.0037 134.8672,140.7381 Q135.4609,140.4569 136.0859,139.8787 L136.0859,142.5975 Z " fill="#000000"/><text fill="#000000" font-family="sans-serif" font-size="14" lengthAdjust="spacing" textLength="31.9102" x="153.6172" y="141.8036">User</text><line style="stroke:#181818;stroke-width:0.5;" x1="47" x2="259.6445" y1="152.9569" y2="152.9569"/><ellipse cx="57" cy="166.6053" fill="none" rx="3" ry="3" style="stroke:#038048;stroke-width:1;"/><text fill="#000000" font-family="sans-serif" font-size="14" lengthAdjust="spacing" textLength="35.7178" x="66" y="169.952">int Id</text><ellipse cx="57" cy="182.9022" fill="none" rx="3" ry="3" style="stroke:#038048;stroke-width:1;"/><text fill="#000000" font-family="sans-serif" font-size="14" lengthAdjust="spacing" textLength="116.252" x="66" y="186.2489">string Username</text><ellipse cx="57" cy="199.1991" fill="none" rx="3" ry="3" style="stroke:#038048;stroke-width:1;"/><text fill="#000000" font-family="sans-serif" font-size="14" lengthAdjust="spacing" textLength="146.1797" x="66" y="202.5457">string PasswordHash</text><ellipse cx="57" cy="215.4959" fill="none" rx="3" ry="3" style="stroke:#038048;stroke-width:1;"/><text fill="#000000" font-family="sans-serif" font-size="14" lengthAdjust="spacing" textLength="83.4805" x="66" y="218.8426">string Email</text><ellipse cx="57" cy="231.7928" fill="none" rx="3" ry="3" style="stroke:#038048;stroke-width:1;"/><text fill="#000000" font-family="sans-serif" font-size="14" lengthAdjust="spacing" textLength="116.4229" x="66" y="235.1395">string FirstName</text><ellipse cx="57" cy="248.0897" fill="none" rx="3" ry="3" style="stroke:#038048;stroke-width:1;"/><text fill="#000000" font-family="sans-serif" font-size="14" lengthAdjust="spacing" textLength="115.1035" x="66" y="251.4364">string LastName</text><ellipse cx="57" cy="264.3866" fill="none" rx="3" ry="3" style="stroke:#038048;stroke-width:1;"/><text fill="#000000" font-family="sans-serif" font-size="14" lengthAdjust="spacing" textLength="75.4346" x="66" y="267.7332">string Role</text><ellipse cx="57" cy="280.6834" fill="none" rx="3" ry="3" style="stroke:#038048;stroke-width:1;"/><text fill="#000000" font-family="sans-serif" font-size="14" lengthAdjust="spacing" textLength="100.2559" x="66" y="284.0301">string Country</text><ellipse cx="57" cy="296.9803" fill="none" rx="3" ry="3" style="stroke:#038048;stroke-width:1;"/><text fill="#000000" font-family="sans-serif" font-size="14" lengthAdjust="spacing" textLength="188.6445" x="66" y="300.327">ICollection&lt;Order&gt; Orders</text><line style="stroke:#181818;stroke-width:0.5;" x1="47" x2="259.6445" y1="307.6287" y2="307.6287"/></g><!--class Order--><g class="entity" data-entity="Order" data-source-line="44" data-uid="ent0008" id="entity_Order"><rect fill="#F1F1F1" height="178.375" rx="2.5" ry="2.5" style="stroke:#181818;stroke-width:0.5;" width="278.3828" x="390.64" y="121.1069"/><ellipse cx="505.5658" cy="137.1069" fill="#ADD1B2" rx="11" ry="11" style="stroke:#181818;stroke-width:1;"/><path d="M508.5345,142.7475 Q507.9564,143.0444 507.3158,143.185 Q506.6752,143.3412 505.972,143.3412 Q503.472,143.3412 502.1439,141.7006 Q500.8314,140.0444 500.8314,136.9194 Q500.8314,133.7944 502.1439,132.1381 Q503.472,130.4819 505.972,130.4819 Q506.6752,130.4819 507.3158,130.6381 Q507.972,130.7944 508.5345,131.0912 L508.5345,133.81 Q507.9095,133.2319 507.3158,132.9662 Q506.722,132.685 506.097,132.685 Q504.7533,132.685 504.0658,133.7631 Q503.3783,134.8256 503.3783,136.9194 Q503.3783,139.0131 504.0658,140.0912 Q504.7533,141.1537 506.097,141.1537 Q506.722,141.1537 507.3158,140.8881 Q507.9095,140.6069 508.5345,140.0287 L508.5345,142.7475 Z " fill="#000000"/><text fill="#000000" font-family="sans-serif" font-size="14" lengthAdjust="spacing" textLength="40.0313" x="526.0658" y="141.9536">Order</text><line style="stroke:#181818;stroke-width:0.5;" x1="391.64" x2="668.0228" y1="153.1069" y2="153.1069"/><ellipse cx="401.64" cy="166.7553" fill="none" rx="3" ry="3" style="stroke:#038048;stroke-width:1;"/><text fill="#000000" font-family="sans-serif" font-size="14" lengthAdjust="spacing" textLength="35.7178" x="410.64" y="170.102">int Id</text><ellipse cx="401.64" cy="183.0522" fill="none" rx="3" ry="3" style="stroke:#038048;stroke-width:1;"/><text fill="#000000" font-family="sans-serif" font-size="14" lengthAdjust="spacing" textLength="67.6279" x="410.64" y="186.3989">int UserId</text><ellipse cx="401.64" cy="199.3491" fill="none" rx="3" ry="3" style="stroke:#038048;stroke-width:1;"/><text fill="#000000" font-family="sans-serif" font-size="14" lengthAdjust="spacing" textLength="146.0977" x="410.64" y="202.6957">DateTime OrderDate</text><ellipse cx="401.64" cy="215.6459" fill="none" rx="3" ry="3" style="stroke:#038048;stroke-width:1;"/><text fill="#000000" font-family="sans-serif" font-size="14" lengthAdjust="spacing" textLength="89.25" x="410.64" y="218.9926">string Status</text><ellipse cx="401.64" cy="231.9428" fill="none" rx="3" ry="3" style="stroke:#038048;stroke-width:1;"/><text fill="#000000" font-family="sans-serif" font-size="14" lengthAdjust="spacing" textLength="68.2705" x="410.64" y="235.2895">User User</text><ellipse cx="401.64" cy="248.2397" fill="none" rx="3" ry="3" style="stroke:#038048;stroke-width:1;"/><text fill="#000000" font-family="sans-serif" font-size="14" lengthAdjust="spacing" textLength="252.3828" x="410.64" y="251.5864">ICollection&lt;OrderItem&gt; OrderItems</text><ellipse cx="401.64" cy="264.5366" fill="none" rx="3" ry="3" style="stroke:#038048;stroke-width:1;"/><text fill="#000000" font-family="sans-serif" font-size="14" lengthAdjust="spacing" textLength="175.1504" x="410.64" y="267.8832">decimal TotalTaxAmount</text><ellipse cx="401.64" cy="280.8334" fill="none" rx="3" ry="3" style="stroke:#038048;stroke-width:1;"/><text fill="#000000" font-family="sans-serif" font-size="14" lengthAdjust="spacing" textLength="186.6279" x="410.64" y="284.1801">decimal TotalPriceWithTax</text><line style="stroke:#181818;stroke-width:0.5;" x1="391.64" x2="668.0228" y1="291.4819" y2="291.4819"/></g><!--class OrderItem--><g class="entity" data-entity="OrderItem" data-source-line="55" data-uid="ent0009" id="entity_OrderItem"><rect fill="#F1F1F1" height="210.9688" rx="2.5" ry="2.5" style="stroke:#181818;stroke-width:0.5;" width="209.4219" x="799.03" y="227.8169"/><ellipse cx="863.5407" cy="243.8169" fill="#ADD1B2" rx="11" ry="11" style="stroke:#181818;stroke-width:1;"/><path d="M866.5095,249.4575 Q865.9314,249.7544 865.2907,249.895 Q864.6501,250.0512 863.947,250.0512 Q861.447,250.0512 860.1189,248.4106 Q858.8064,246.7544 858.8064,243.6294 Q858.8064,240.5044 860.1189,238.8481 Q861.447,237.1919 863.947,237.1919 Q864.6501,237.1919 865.2907,237.3481 Q865.947,237.5044 866.5095,237.8012 L866.5095,240.52 Q865.8845,239.9419 865.2907,239.6762 Q864.697,239.395 864.072,239.395 Q862.7282,239.395 862.0407,240.4731 Q861.3532,241.5356 861.3532,243.6294 Q861.3532,245.7231 862.0407,246.8012 Q862.7282,247.8637 864.072,247.8637 Q864.697,247.8637 865.2907,247.5981 Q865.8845,247.3169 866.5095,246.7387 L866.5095,249.4575 Z " fill="#000000"/><text fill="#000000" font-family="sans-serif" font-size="14" lengthAdjust="spacing" textLength="71.9004" x="884.0407" y="248.6636">OrderItem</text><line style="stroke:#181818;stroke-width:0.5;" x1="800.03" x2="1007.4519" y1="259.8169" y2="259.8169"/><ellipse cx="810.03" cy="273.4653" fill="none" rx="3" ry="3" style="stroke:#038048;stroke-width:1;"/><text fill="#000000" font-family="sans-serif" font-size="14" lengthAdjust="spacing" textLength="35.7178" x="819.03" y="276.812">int Id</text><ellipse cx="810.03" cy="289.7622" fill="none" rx="3" ry="3" style="stroke:#038048;stroke-width:1;"/><text fill="#000000" font-family="sans-serif" font-size="14" lengthAdjust="spacing" textLength="75.749" x="819.03" y="293.1089">int OrderId</text><ellipse cx="810.03" cy="306.0591" fill="none" rx="3" ry="3" style="stroke:#038048;stroke-width:1;"/><text fill="#000000" font-family="sans-serif" font-size="14" lengthAdjust="spacing" textLength="80.1172" x="819.03" y="309.4057">int CandyId</text><ellipse cx="810.03" cy="322.3559" fill="none" rx="3" ry="3" style="stroke:#038048;stroke-width:1;"/><text fill="#000000" font-family="sans-serif" font-size="14" lengthAdjust="spacing" textLength="83.2002" x="819.03" y="325.7026">int Quantity</text><ellipse cx="810.03" cy="338.6528" fill="none" rx="3" ry="3" style="stroke:#038048;stroke-width:1;"/><text fill="#000000" font-family="sans-serif" font-size="14" lengthAdjust="spacing" textLength="122.541" x="819.03" y="341.9995">decimal UnitPrice</text><ellipse cx="810.03" cy="354.9497" fill="none" rx="3" ry="3" style="stroke:#038048;stroke-width:1;"/><text fill="#000000" font-family="sans-serif" font-size="14" lengthAdjust="spacing" textLength="170.0986" x="819.03" y="358.2964">decimal TaxRateApplied</text><ellipse cx="810.03" cy="371.2466" fill="none" rx="3" ry="3" style="stroke:#038048;stroke-width:1;"/><text fill="#000000" font-family="sans-serif" font-size="14" lengthAdjust="spacing" textLength="171.9443" x="819.03" y="374.5932">decimal ItemTaxAmount</text><ellipse cx="810.03" cy="387.5434" fill="none" rx="3" ry="3" style="stroke:#038048;stroke-width:1;"/><text fill="#000000" font-family="sans-serif" font-size="14" lengthAdjust="spacing" textLength="183.4219" x="819.03" y="390.8901">decimal ItemPriceWithTax</text><ellipse cx="810.03" cy="403.8403" fill="none" rx="3" ry="3" style="stroke:#038048;stroke-width:1;"/><text fill="#000000" font-family="sans-serif" font-size="14" lengthAdjust="spacing" textLength="84.5127" x="819.03" y="407.187">Order Order</text><ellipse cx="810.03" cy="420.1372" fill="none" rx="3" ry="3" style="stroke:#038048;stroke-width:1;"/><text fill="#000000" font-family="sans-serif" font-size="14" lengthAdjust="spacing" textLength="93.249" x="819.03" y="423.4839">Candy Candy</text><line style="stroke:#181818;stroke-width:0.5;" x1="800.03" x2="1007.4519" y1="430.7856" y2="430.7856"/></g><!--link Brand to Candy--><g class="link" data-entity-1="Brand" data-entity-2="Candy" data-source-line="69" data-uid="lnk10" id="link_Brand_Candy"><path codeLine="69" d="M209.58,516.8169 C257.09,507.8169 327.67,494.4369 390.39,482.5469" fill="none" id="Brand-Candy" style="stroke:#181818;stroke-width:1;"/><text fill="#000000" font-family="sans-serif" font-size="13" lengthAdjust="spacing" textLength="22.9785" x="314.64" y="486.3638">has</text><text fill="#000000" font-family="sans-serif" font-size="13" lengthAdjust="spacing" textLength="8.271" x="217.3181" y="528.5109">1</text><text fill="#000000" font-family="sans-serif" font-size="13" lengthAdjust="spacing" textLength="6.5" x="376.1696" y="496.5687">*</text></g><!--link Category to Candy--><g class="link" data-entity-1="Category" data-entity-2="Candy" data-source-line="70" data-uid="lnk11" id="link_Category_Candy"><path codeLine="70" d="M209.58,417.9369 C257.09,423.6469 327.67,432.1269 390.39,439.6669" fill="none" id="Category-Candy" style="stroke:#181818;stroke-width:1;"/><text fill="#000000" font-family="sans-serif" font-size="13" lengthAdjust="spacing" textLength="68.2627" x="291.64" y="425.3638">belongs to</text><text fill="#000000" font-family="sans-serif" font-size="13" lengthAdjust="spacing" textLength="8.271" x="217.3181" y="431.8244">1</text><text fill="#000000" font-family="sans-serif" font-size="13" lengthAdjust="spacing" textLength="6.5" x="376.1696" y="451.2097">*</text></g><!--link User to Order--><g class="link" data-entity-1="User" data-entity-2="Order" data-source-line="71" data-uid="lnk12" id="link_User_Order"><path codeLine="71" d="M261.14,216.0169 C301.36,215.1569 347.68,214.1669 390.37,213.2569" fill="none" id="User-Order" style="stroke:#181818;stroke-width:1;"/><text fill="#000000" font-family="sans-serif" font-size="13" lengthAdjust="spacing" textLength="41.7485" x="305.14" y="210.3638">places</text><text fill="#000000" font-family="sans-serif" font-size="13" lengthAdjust="spacing" textLength="8.271" x="268.6619" y="228.4392">1</text><text fill="#000000" font-family="sans-serif" font-size="13" lengthAdjust="spacing" textLength="6.5" x="376.1484" y="225.9325">*</text></g><!--link Order to OrderItem--><g class="link" data-entity-1="Order" data-entity-2="OrderItem" data-source-line="72" data-uid="lnk13" id="link_Order_OrderItem"><path codeLine="72" d="M669.32,256.0969 C712.17,270.2669 758.63,285.6369 798.73,298.8969" fill="none" id="Order-OrderItem" style="stroke:#181818;stroke-width:1;"/><text fill="#000000" font-family="sans-serif" font-size="13" lengthAdjust="spacing" textLength="55.0278" x="706.53" y="264.3638">contains</text><text fill="#000000" font-family="sans-serif" font-size="13" lengthAdjust="spacing" textLength="8.271" x="677.1744" y="271.0824">1</text><text fill="#000000" font-family="sans-serif" font-size="13" lengthAdjust="spacing" textLength="6.5" x="784.4796" y="308.909">*</text></g><!--link Candy to OrderItem--><g class="link" data-entity-1="Candy" data-entity-2="OrderItem" data-source-line="73" data-uid="lnk14" id="link_Candy_OrderItem"><path codeLine="73" d="M669.32,410.4969 C712.17,396.3269 758.63,380.9569 798.73,367.6969" fill="none" id="Candy-OrderItem" style="stroke:#181818;stroke-width:1;"/><text fill="#000000" font-family="sans-serif" font-size="13" lengthAdjust="spacing" textLength="68.5356" x="700.03" y="376.3638">appears in</text><text fill="#000000" font-family="sans-serif" font-size="13" lengthAdjust="spacing" textLength="8.271" x="677.1744" y="420.4728">1</text><text fill="#000000" font-family="sans-serif" font-size="13" lengthAdjust="spacing" textLength="6.5" x="784.4796" y="382.9765">*</text></g><!--SRC=[fLHDRzim3BtxLn2-T1_ei5w3OK2MDbYmhSkQ5ZspDciJbIL3OjO5G__xz96aJknaA-Q3R3y-KUGZgHDOa439bWfXe-7UM92QF8ALnIPJT2yW1YnNTOUNPSAY22wqVw_Wcob9PLcBnGDM1FdxitV9nEHo-9s1Vmg5pi4dYxfS8-5v2wm5PcK7S69PLt293KNqAUlidw1GPUpglrpeyeNxTz1pSeNbDihmR2ofu0OLNEElgIMQMovexuY5cEBXnnAZPblRwIbCZIMkD7oXbVF_UzkYP3lX1NGZHCVWFLtYJwumLd9kJKisL63NPQf0N3leLjVDHySscnYbKjq_VBSbsPbGyn6sdwwlyOqZ-qyI1w8Ub7dk_JmQMtv6L_Uj5msowiDJjaw6o_OL3rckZ1f09sQfvRWEQmq6ye_uSG424BBV0S-z-jVSK78G_lg1BGHbwJfu53iiBwxPNkiQGUNxTzo4r0yHOcVVijIUUI3nSC3Vaq_KVb_xwUoXlQbv3kf6i-nFMsSOhxo6uxPLJEK08KHwBEDWxoMSAAd4STsPet2vnBKhpWbSaOfpwMfk7ToHF1BfxIK9hyREcO8JvNNSamOrFyl3OETlyhNl4TIOghUTsG7E7IcZA-UlxaYDBTAXfU17q2eiA7bBq3udbd84XT62h3VdXZCECB5j2QtpLSkU_W00]--></g></svg>